<?xml version="1.0" standalone="no"?>
<!DOCTYPE svg PUBLIC "-//W3C//DTD SVG 1.1//EN" "http://www.w3.org/Graphics/SVG/1.1/DTD/svg11.dtd" >
<svg xmlns="http://www.w3.org/2000/svg" xmlns:xlink="http://www.w3.org/1999/xlink" version="1.1">
<metadata></metadata>
<defs>
<font id="gilroy-semiboldituploadedfile" horiz-adv-x="1044" >
<font-face units-per-em="2048" ascent="1585" descent="-463" />
<missing-glyph horiz-adv-x="512" />
<glyph horiz-adv-x="0" />
<glyph unicode="&#xd;" horiz-adv-x="681" />
<glyph unicode=" "  horiz-adv-x="512" />
<glyph unicode="&#x09;" horiz-adv-x="512" />
<glyph unicode="&#xa0;" horiz-adv-x="512" />
<glyph unicode="!" horiz-adv-x="522" d="M41 133q10 63 61.5 106.5t118.5 43.5q63 0 100 -46.5t27 -109.5q-12 -66 -62 -109t-120 -43q-63 0 -99 46.5t-26 111.5zM164 451l55 573l72 410h266l-72 -410l-147 -573h-174z" />
<glyph unicode="&#x22;" horiz-adv-x="727" d="M207 983l47 451h215l-109 -451h-153zM535 983l47 451h215l-109 -451h-153z" />
<glyph unicode="#" horiz-adv-x="1249" d="M39 440l59 174h234l69 205h-233l59 174h234l117 338h182l-117 -338h229l117 338h182l-116 -338h229l-59 -174h-230l-69 -205h229l-57 -174h-232l-116 -338h-183l117 338h-229l-117 -338h-182l116 338h-233zM514 614h229l70 205h-229z" />
<glyph unicode="$" horiz-adv-x="1146" d="M25 297l213 109q53 -172 235 -199l76 424q-37 16 -62.5 28.5t-60.5 31t-57.5 34.5t-52 41t-44 47.5t-35 53t-23.5 62.5t-8 72.5t7 83.5q35 180 174 276.5t309 98.5l31 178h133l-35 -190q115 -27 197 -97.5t125 -174.5l-209 -109q-59 117 -152 150l-71 -404 q172 -80 233 -131q147 -123 111 -328q-35 -176 -169 -273t-325 -108l-30 -178h-134l33 185q-158 18 -263 101t-146 216zM453 1065q-14 -70 22.5 -114t116.5 -83l63 363q-76 -6 -133 -50t-69 -116zM606 205q86 14 141.5 61t69.5 115q16 70 -22.5 114t-122.5 83z" />
<glyph unicode="%" horiz-adv-x="1529" d="M168 213l1126 1053l111 -70l-1129 -1053zM213 1135q20 135 128 230t261 95q145 0 225 -105.5t54 -240.5q-27 -131 -131 -220t-254 -89q-143 0 -223 99.5t-60 230.5zM403 1133q-12 -61 21 -104.5t96.5 -43.5t112.5 43t59 105q10 63 -21.5 106t-97.5 43q-63 0 -111 -43 t-59 -106zM723 311q23 135 128 227.5t259 92.5q145 0 224 -103.5t55 -238.5q-25 -131 -130.5 -222.5t-252.5 -91.5q-145 0 -225.5 101.5t-57.5 234.5zM911.5 303.5q-10.5 -63.5 22.5 -105.5t96.5 -42t112.5 43t59 104q10 63 -22.5 106.5t-96 43.5t-112.5 -43t-59.5 -106.5z " />
<glyph unicode="&#x26;" horiz-adv-x="1386" d="M86 418q49 258 334 395q-70 127 -45 270q29 172 162 274.5t319 102.5q158 0 268.5 -76.5t157.5 -222.5l-211 -112q-55 182 -231 182q-86 0 -152.5 -47t-79.5 -135q-16 -106 82 -238l277 -369q65 98 120 250l189 -119q-68 -170 -178 -307l162 -215l-201 -104l-123 164 q-188 -137 -424 -138q-225 0 -343 126t-83 319zM326 420q-18 -102 43 -164.5t186 -62.5q139 0 256 83l-283 375q-178 -78 -202 -231z" />
<glyph unicode="'" horiz-adv-x="399" d="M207 983l47 451h215l-109 -451h-153z" />
<glyph unicode="(" horiz-adv-x="602" d="M152 733q82 465 387 905h221q-305 -449 -387 -921.5t61 -921.5h-221q-147 451 -61 938z" />
<glyph unicode=")" horiz-adv-x="600" d="M-86 -205q305 449 387 922t-61 921h221q147 -451 61 -938q-82 -465 -387 -905h-221z" />
<glyph unicode="*" horiz-adv-x="813" d="M217 1100l27 147l182 -12l-84 147l135 78l60 -170l120 170l119 -78l-135 -147l188 12l-26 -147l-185 12l84 -147l-133 -78l-59 170l-121 -170l-121 78l135 147z" />
<glyph unicode="+" horiz-adv-x="1126" d="M131 612l37 209h346l61 346h209l-61 -346h346l-37 -209h-346l-61 -346h-209l61 346h-346z" />
<glyph unicode="," horiz-adv-x="542" d="M-35 -287l178 533h246l-237 -533h-187z" />
<glyph unicode="-" d="M145 516l37 213h758l-37 -213h-758z" />
<glyph unicode="." horiz-adv-x="522" d="M41 133q10 63 61.5 106.5t118.5 43.5q63 0 100 -46.5t27 -109.5q-12 -66 -62 -109t-120 -43q-63 0 -99 46.5t-26 111.5z" />
<glyph unicode="/" horiz-adv-x="1075" d="M-55 -205l1136 1843h121l-1136 -1843h-121z" />
<glyph unicode="0" horiz-adv-x="1294" d="M120.5 735q59.5 338 238 531.5t446.5 193.5q264 0 382 -212t58.5 -550t-237 -531.5t-445.5 -193.5q-264 0 -383 212t-59.5 550zM356 717q-43 -248 17.5 -381t218.5 -133q160 0 266.5 133t151.5 381q43 248 -17.5 381t-218.5 133q-160 0 -266.5 -133t-151.5 -381z" />
<glyph unicode="1" horiz-adv-x="761" d="M166 1300l399 134h205l-252 -1434h-235l206 1176v-2l-301 -82z" />
<glyph unicode="2" horiz-adv-x="1085" d="M-27 0l33 184l590 510q215 186 238 316q18 104 -33 162.5t-146 58.5q-168 0 -293 -182l-186 120q188 291 510 291q184 0 303 -128t82 -333q-23 -125 -99.5 -228t-213.5 -220l-381 -324h581l-40 -227h-945z" />
<glyph unicode="3" horiz-adv-x="1105" d="M8 270l213 113q47 -180 256 -180q121 0 204 62.5t101.5 169t-42 168t-181.5 61.5h-55l-70 143l369 405h-586l39 222h881l-35 -201l-352 -389q141 -43 219 -156t49 -270q-39 -215 -196.5 -330t-368.5 -115q-166 0 -284 76t-161 221z" />
<glyph unicode="4" horiz-adv-x="1177" d="M2 258l39 219l653 957h267l-654 -957h438l66 373h238l-66 -373h164l-39 -219h-164l-45 -258h-237l45 258h-705z" />
<glyph unicode="5" horiz-adv-x="1120" d="M20 281l216 112q43 -190 266 -190q119 0 200.5 62.5t100 169t-41 168t-177.5 61.5h-418l188 770h799l-37 -222h-575l-80 -319h174q188 0 314 -131t89 -344q-39 -215 -195.5 -330t-365.5 -115q-168 0 -288.5 78t-168.5 230z" />
<glyph unicode="6" horiz-adv-x="1118" d="M47 479q31 172 141 293l562 662h284l-411 -482h4q215 0 341 -145t87 -361q-39 -217 -196 -345t-384 -128q-223 0 -345 144.5t-83 361.5zM283 463q-23 -121 38.5 -193.5t182.5 -72.5q119 0 205.5 72.5t109.5 193.5q20 121 -42 193.5t-181 72.5t-206 -72.5t-107 -193.5z " />
<glyph unicode="7" horiz-adv-x="1003" d="M100 0l697 1208h-643l39 226h911l-35 -205l-709 -1229h-260z" />
<glyph unicode="8" horiz-adv-x="1150" d="M53 414q41 231 275 338q-147 115 -113 309q35 197 181.5 298t340.5 101q184 0 303 -113.5t84.5 -310t-219.5 -299.5q188 -127 152 -356q-37 -197 -187.5 -302.5t-380.5 -105.5q-221 0 -346 122t-90 319zM292.5 419.5q-18.5 -106.5 45 -164.5t182.5 -58t202 58.5 t103 164.5q18 106 -47 164.5t-180 58.5q-117 0 -202 -58.5t-103.5 -165zM449 1038q-16 -92 38 -145t146 -53q96 0 166.5 53t87.5 145q16 96 -37 147.5t-147.5 51.5t-166 -52.5t-87.5 -146.5z" />
<glyph unicode="9" horiz-adv-x="1120" d="M135 989q39 217 197 344t385 127q221 0 344 -145.5t84 -362.5q-29 -174 -148 -299l-555 -653h-282l407 481h-4q-215 0 -341 146.5t-87 361.5zM370.5 971q-20.5 -121 42 -193.5t181.5 -72.5t207 72.5t108.5 193.5t-41 193.5t-180.5 72.5q-121 0 -209 -72.5t-108.5 -193.5z " />
<glyph unicode=":" horiz-adv-x="522" d="M41 133q10 63 61.5 106.5t118.5 43.5q63 0 100 -46.5t27 -109.5q-12 -66 -62 -109t-120 -43q-63 0 -99 46.5t-26 111.5zM176 901q10 63 61.5 106.5t118.5 43.5q63 0 100.5 -46.5t26.5 -109.5q-12 -66 -62 -109t-120 -43q-63 0 -99 46.5t-26 111.5z" />
<glyph unicode=";" horiz-adv-x="548" d="M-35 -287l178 533h246l-237 -533h-187zM203 901q10 63 61 106.5t119 43.5q63 0 100 -46.5t27 -109.5q-12 -66 -62 -109t-120 -43q-63 0 -99 46.5t-26 111.5z" />
<glyph unicode="&#x3c;" horiz-adv-x="1075" d="M121 614l37 205l938 379l-45 -246l-662 -247l576 -248l-39 -221z" />
<glyph unicode="=" horiz-adv-x="1085" d="M84 403l37 209h880l-38 -209h-879zM158 823l37 209h880l-37 -209h-880z" />
<glyph unicode="&#x3e;" horiz-adv-x="1075" d="M55 236l43 245l662 248l-574 248l39 221l801 -379l-16 -102l-19 -103z" />
<glyph unicode="?" horiz-adv-x="1118" d="M195 1157q76 145 216 224t306 79q184 0 300 -112.5t83 -296.5q-14 -86 -64.5 -160t-113 -124t-124 -97t-107.5 -103.5t-56 -115.5h-236q14 88 64.5 162.5t112 124.5t122 96.5t107.5 101.5t57 117q14 86 -36 132t-142 46q-199 0 -295 -195zM307 133q10 63 61.5 106.5 t118.5 43.5q63 0 100.5 -46.5t26.5 -109.5q-12 -66 -62 -109t-120 -43q-63 0 -99 46.5t-26 111.5z" />
<glyph unicode="@" horiz-adv-x="1607" d="M76 530q53 307 302 515t568 208q213 0 362.5 -109.5t206 -270t25.5 -334.5q-39 -215 -145.5 -320.5t-245.5 -105.5q-88 0 -148.5 42t-74.5 119q-98 -94 -229.5 -94t-206 101.5t-48.5 242.5q25 141 125.5 231.5t231.5 90.5q123 0 192 -96l15 75h188l-82 -463 q-31 -166 94 -165q88 0 160 88t104 268q47 270 -106.5 452.5t-425.5 182.5q-285 0 -513 -192.5t-280 -479.5q-51 -293 117 -486.5t475 -193.5q195 0 350 53l-12 -69q-158 -49 -348 -49q-334 0 -521.5 219t-129.5 540zM633 512q-14 -72 23.5 -116t107.5 -44q68 0 120 44 t64 116q14 72 -22.5 117t-104.5 45q-70 0 -123 -45t-65 -117z" />
<glyph unicode="A" horiz-adv-x="1341" d="M-80 0l772 1434h283l266 -1434h-252l-47 289h-610l-154 -289h-258zM451 510h454l-106 655z" />
<glyph unicode="B" horiz-adv-x="1249" d="M53 0l252 1434h545q180 0 290 -117q88 -94 88 -225q0 -32 -5 -66q-27 -184 -195 -289q144 -93 144 -268q0 -34 -5 -70q-25 -174 -161 -286.5t-349 -112.5h-604zM328 221h366q90 0 159 58.5t83 142.5q4 22 4 42q0 60 -35 102q-47 58 -133 57h-375zM436 836h328 q82 0 144.5 54t78.5 134q3 19 3 37q0 56 -34 97q-45 54 -131 54h-323z" />
<glyph unicode="C" horiz-adv-x="1503" d="M111 737q53 313 294.5 518t552.5 205q205 0 354.5 -92t223.5 -252l-213 -112q-106 227 -383 227q-225 0 -391 -145.5t-205 -368.5q-10 -56 -10 -107q0 -152 87 -262q116 -146 333 -145q293 0 460 237l193 -125q-115 -158 -292 -250t-378 -92q-326 1 -503 225 q-136 172 -136 397q0 68 13 142z" />
<glyph unicode="D" horiz-adv-x="1468" d="M53 0l252 1434h563q285 0 450 -218q125 -165 125 -379q0 -68 -13 -141q-53 -303 -280.5 -499.5t-533.5 -196.5h-563zM328 225h319q209 0 363.5 140.5t191.5 357.5q10 56 10 107q0 142 -76 242q-104 136 -307 136h-327z" />
<glyph unicode="E" horiz-adv-x="1085" d="M53 0l252 1434h860l-39 -226h-624l-66 -372h574l-39 -222h-574l-69 -389h637l-41 -225h-871z" />
<glyph unicode="F" horiz-adv-x="1060" d="M53 0l252 1434h840l-39 -226h-604l-72 -401h584l-39 -225h-584l-102 -582h-236z" />
<glyph unicode="G" horiz-adv-x="1611" d="M113 743q53 311 293.5 514t556.5 203q211 0 362.5 -92t233.5 -258l-216 -113q-119 233 -399 234q-227 0 -393 -143.5t-205 -366.5q-10 -56 -10 -108q0 -154 88 -263q117 -147 350 -147q197 0 330 88t192 239h-471l37 211h717l-16 -98q-51 -299 -273.5 -484.5 t-535.5 -185.5q-336 0 -516 225q-138 173 -138 399q0 70 13 146z" />
<glyph unicode="H" horiz-adv-x="1372" d="M53 0l252 1434h236l-103 -588h615l102 588h236l-252 -1434h-236l109 621h-615l-108 -621h-236z" />
<glyph unicode="I" horiz-adv-x="522" d="M53 0l252 1434h236l-252 -1434h-236z" />
<glyph unicode="J" horiz-adv-x="1150" d="M25 246l215 116q47 -159 235 -159h2q127 0 203 60.5t96 170.5l176 1000h236l-176 -1002q-41 -233 -189.5 -346t-363.5 -113q-336 0 -434 273z" />
<glyph unicode="K" horiz-adv-x="1232" d="M53 0l252 1434h236l-111 -633l660 633h288l-729 -705l484 -729h-254l-467 698l-123 -698h-236z" />
<glyph unicode="L" horiz-adv-x="993" d="M53 0l252 1434h236l-213 -1209h585l-41 -225h-819z" />
<glyph unicode="M" horiz-adv-x="1658" d="M53 0l252 1434h248l295 -727l561 727h268l-252 -1434h-235l180 1020l-565 -719h-29l-305 739l-182 -1040h-236z" />
<glyph unicode="N" horiz-adv-x="1382" d="M53 0l252 1434h178l510 -985l172 985h236l-252 -1434h-178l-508 985l-174 -985h-236z" />
<glyph unicode="O" horiz-adv-x="1634" d="M111 737q55 315 296.5 519t567.5 204q309 0 491 -227q141 -175 142 -402q0 -67 -13 -139q-57 -315 -297.5 -517t-568.5 -202q-309 -1 -491 225q-140 173 -140 397q0 69 13 142zM346 717q-10 -55 -10 -105q0 -152 89 -262q118 -146 335 -147q219 0 390 144.5t210 365.5 q10 54 10 103q0 154 -92 266q-121 148 -340 149q-217 0 -385 -146.5t-207 -367.5z" />
<glyph unicode="P" horiz-adv-x="1208" d="M53 0l252 1434h510q213 0 327 -138q90 -109 90 -260q0 -40 -7 -84q-33 -203 -187.5 -331.5t-392.5 -128.5h-270l-86 -492h-236zM414 713h256q131 0 216 72.5t105 187.5q5 27 5 52q0 74 -41 122q-54 65 -173 65h-280z" />
<glyph unicode="Q" horiz-adv-x="1644" d="M111 737q55 313 299.5 518t564.5 205q309 0 491 -228q141 -176 141 -403q0 -66 -12 -137q-53 -293 -272 -489l115 -144l-178 -139l-121 152q-190 -98 -410 -99q-303 0 -489 227q-142 173 -142 397q0 68 13 140zM346 717q-10 -55 -10 -105q0 -152 89 -262 q118 -147 335 -147q124 0 235 49l-217 272l178 138l228 -285q139 139 176 336q10 54 10 103q0 154 -92 266q-121 149 -340 149q-217 0 -385 -146.5t-207 -367.5z" />
<glyph unicode="R" horiz-adv-x="1255" d="M53 0l252 1434h563q188 0 306 -146q93 -114 93 -255q0 -39 -7 -81q-27 -143 -122.5 -249.5t-234.5 -151.5l225 -551h-239l-211 522h-297l-92 -522h-236zM418 733h338q98 0 175 69.5t95 169.5q4 24 4 48q0 70 -42 122q-56 70 -157 70h-329z" />
<glyph unicode="S" horiz-adv-x="1198" d="M29 326l213 110q51 -235 323 -235h2q125 0 202 49t93 131q4 21 4 39q0 64 -54 103q-70 50 -224 102q-49 16 -90 32.5t-86 41t-76 50t-61.5 60.5t-43 74t-20.5 90q-3 19 -3 38q0 34 9 70q33 186 179.5 282.5t330.5 96.5q176 0 296 -85t171 -228l-207 -109 q-74 195 -278 195q-98 0 -168 -45t-86 -123q-4 -20 -4 -38q0 -65 52 -105q66 -50 218 -103q213 -76 295 -153q95 -90 94 -224q0 -40 -8 -84q-35 -186 -184.5 -285.5t-366.5 -99.5q-213 0 -347 94.5t-175 258.5z" />
<glyph unicode="T" horiz-adv-x="1105" d="M154 1208l39 226h1044l-39 -226h-403l-213 -1208h-236l213 1208h-405z" />
<glyph unicode="U" horiz-adv-x="1333" d="M117 475l170 959h235l-166 -945q-6 -35 -6 -66q0 -85 46 -143q63 -78 214 -77q154 0 246 79.5t115 206.5l166 945h235l-170 -959q-41 -242 -206 -372t-398 -130q-250 1 -385 141q-105 109 -105 266q0 45 9 95z" />
<glyph unicode="V" horiz-adv-x="1277" d="M172 1434h244l170 -1153l577 1153h267l-740 -1434h-282z" />
<glyph unicode="W" horiz-adv-x="2045" d="M203 1434h235l107 -1125l522 1125h217l129 -1125l500 1125h254l-658 -1434h-272l-121 1047l-487 -1047h-273z" />
<glyph unicode="X" horiz-adv-x="1228" d="M-59 0l583 750l-305 684h252l213 -480l373 480h278l-551 -707l324 -727h-252l-231 520l-406 -520h-278z" />
<glyph unicode="Y" horiz-adv-x="1214" d="M172 1434h252l231 -564l430 564h281l-618 -791l-113 -643h-236l113 647z" />
<glyph unicode="Z" horiz-adv-x="1085" d="M-14 0l37 195l819 1013h-627l39 226h922l-33 -195l-819 -1014h655l-39 -225h-954z" />
<glyph unicode="[" horiz-adv-x="614" d="M-14 -205l325 1843h461l-37 -213h-239l-252 -1417h241l-39 -213h-460z" />
<glyph unicode="\" horiz-adv-x="1075" d="M270 1638h111l496 -1843h-111z" />
<glyph unicode="]" horiz-adv-x="614" d="M-86 -205l39 213h237l252 1417h-239l37 213h460l-325 -1843h-461z" />
<glyph unicode="^" horiz-adv-x="1105" d="M129 778l496 656h180l266 -656h-233l-156 404l-301 -404h-252z" />
<glyph unicode="_" horiz-adv-x="1064" d="M-78 -330l37 213h924l-37 -213h-924z" />
<glyph unicode="`" horiz-adv-x="514" d="M203 1434l174 -277h209l-123 277h-260z" />
<glyph unicode="a" horiz-adv-x="1292" d="M76 535q41 229 203.5 372.5t377.5 143.5q240 0 347 -193l28 166h221l-180 -1024h-221l20 121q-143 -147 -374 -148q-223 0 -343 169q-89 126 -89 282q0 54 10 111zM297 518q-6 -35 -6 -68q0 -98 57 -170q76 -96 215 -96q131 0 235.5 81t137.5 210l10 60q2 21 2 41 q0 112 -68 182q-80 82 -210 82q-133 0 -239.5 -86t-133.5 -236z" />
<glyph unicode="b" horiz-adv-x="1290" d="M39 0l252 1434h221l-96 -543q154 160 377 160q217 0 339 -163q94 -126 93 -288q0 -48 -8 -100q-37 -221 -199 -374t-391 -153q-238 0 -338 193l-29 -166h-221zM350 512q-6 -35 -5 -66q-1 -100 57 -170q76 -92 214 -92q141 0 247.5 94.5t131.5 239.5q6 36 6 68 q0 96 -56 164q-75 90 -214 90t-248 -92.5t-133 -235.5z" />
<glyph unicode="c" horiz-adv-x="1114" d="M76 535q39 225 212 370.5t404 145.5q156 0 267.5 -72t158.5 -195l-198 -102q-59 152 -248 152q-137 0 -243.5 -88.5t-131.5 -227.5q-5 -33 -6 -63q0 -99 57 -171q74 -94 211 -94q90 0 167 43t126 117l178 -114q-78 -127 -208.5 -195t-284.5 -68q-233 0 -367 164 q-103 127 -103 296q0 49 9 102z" />
<glyph unicode="d" horiz-adv-x="1294" d="M76 535q41 229 203.5 372.5t377.5 143.5q242 0 347 -195l102 578h221l-252 -1434h-221l23 123q-145 -150 -379 -150q-223 0 -343 169q-89 126 -89 282q0 54 10 111zM297 518q-6 -35 -6 -67q0 -99 58 -171q77 -96 216 -96q131 0 235.5 81t137.5 212l10 60q2 21 2 41 q0 112 -68 181q-80 81 -210 81q-133 0 -240.5 -86t-134.5 -236z" />
<glyph unicode="e" horiz-adv-x="1193" d="M76 532q39 225 211 372t399 147q229 0 357 -158q96 -118 96 -274q0 -52 -11 -109q-18 -74 -24 -92h-815q2 -119 77.5 -180.5t198.5 -61.5q182 0 289 129l162 -123q-168 -209 -469 -209q-248 0 -379 162q-101 125 -101 293q0 50 9 104zM319 600h601v7q0 121 -67 181 q-69 62 -181 62q-121 0 -214.5 -66.5t-138.5 -183.5z" />
<glyph unicode="f" horiz-adv-x="667" d="M100 811l37 213h156l4 20q37 217 173 324q119 94 309 94q27 0 55 -2l-37 -213q-22 2 -43 2q-201 0 -236 -205l-4 -20h242l-37 -213h-242l-143 -811h-221l143 811h-156z" />
<glyph unicode="g" horiz-adv-x="1294" d="M29 -188l198 102q66 -150 281 -150q150 0 242 73t116 210l19 107q-147 -160 -371 -160q-233 0 -353 162q-92 123 -92 285q0 50 9 104q35 217 197.5 361.5t375.5 144.5q121 0 214 -52.5t143 -146.5l30 172h217l-172 -977q-43 -244 -202.5 -363.5t-386.5 -119.5 q-168 0 -289 63.5t-176 184.5zM299 528q-5 -32 -5 -63q0 -99 58 -170q76 -92 219 -92q139 0 245 87t132 226q8 38 8 72q0 98 -62 164q-83 90 -220 90q-135 0 -243.5 -86t-131.5 -228z" />
<glyph unicode="h" horiz-adv-x="1165" d="M39 0l252 1434h221l-94 -533q129 150 334 150q176 0 269 -114q69 -84 69 -212q0 -45 -9 -96l-110 -629h-221l106 606q6 33 6 62q0 72 -36 116q-50 60 -158 60q-113 0 -197 -67.5t-111 -207.5l-100 -569h-221z" />
<glyph unicode="i" horiz-adv-x="477" d="M39 0l180 1024h221l-180 -1024h-221zM240 1319q10 57 57 99t107 42t94 -41q27 -32 26 -74q0 -12 -2 -26q-10 -57 -57.5 -99t-108.5 -42q-59 0 -93 42q-26 32 -26 73q1 13 3 26z" />
<glyph unicode="j" horiz-adv-x="518" d="M-199 -436l39 213q19 -2 36 -2q75 0 121 35q57 43 75 149l186 1065h221l-186 -1065q-41 -229 -160 -321q-100 -77 -268 -77q-31 0 -64 3zM280 1319q11 57 58 99t106 42q57 0 93 -41q28 -32 28 -75q0 -12 -2 -25q-10 -57 -58 -99t-107.5 -42t-93.5 42q-26 32 -26 73 q0 13 2 26z" />
<glyph unicode="k" d="M39 0l252 1434h221l-150 -846l465 436h271l-535 -502l371 -522h-246l-342 492l-86 -492h-221z" />
<glyph unicode="l" horiz-adv-x="479" d="M41 0l111 633l151 862h221l-153 -868l-109 -627h-221z" />
<glyph unicode="m" horiz-adv-x="1738" d="M39 0l180 1024h221l-20 -113q127 139 309 140q199 0 266 -164q133 164 340 164q169 0 261 -115q67 -85 67 -207q0 -44 -8 -94l-111 -635h-221l109 621q5 31 5 58q0 65 -30 107q-43 58 -137 58q-96 0 -168 -63.5t-96 -192.5l-105 -588h-221l108 621q6 33 6 62 q0 63 -28 103q-40 58 -131.5 58t-164.5 -58.5t-103 -175.5l-107 -610h-221z" />
<glyph unicode="n" horiz-adv-x="1165" d="M39 0l180 1024h221l-22 -123q129 150 334 150q176 0 269 -114q69 -84 69 -212q0 -45 -9 -96l-110 -629h-221l106 606q6 33 6 62q0 72 -36 116q-50 60 -158 60q-111 0 -195 -66.5t-113 -202.5l-100 -575h-221z" />
<glyph unicode="o" horiz-adv-x="1226" d="M78 539q43 227 219 369.5t405 142.5q226 0 358 -164q100 -125 101 -289q0 -51 -10 -106q-41 -229 -216 -374t-394 -145q-242 0 -375 165q-99 123 -99 286q0 55 11 115zM299 512q-6 -37 -6 -70q0 -101 57 -167q76 -87 207 -87q133 0 240.5 88.5t134.5 239.5q7 37 7 71 q0 97 -58 161q-78 88 -209 88q-133 0 -239.5 -87t-133.5 -237z" />
<glyph unicode="p" horiz-adv-x="1292" d="M-35 -410l254 1434h221l-22 -129q150 156 375 156q215 0 337 -167q95 -129 95 -292q0 -49 -9 -100q-36 -226 -197 -372.5t-376 -146.5q-250 0 -352 197l-103 -580h-223zM346 487q-2 -21 -2 -40q0 -113 69 -182q81 -81 210 -81q133 0 239 86t133 238q6 35 6 68 q0 98 -57 170q-76 94 -215 94q-131 0 -235.5 -81t-137.5 -212z" />
<glyph unicode="q" horiz-adv-x="1292" d="M76 535q41 229 203.5 372.5t377.5 143.5q240 0 347 -193l28 166h221l-252 -1434h-221l94 531q-147 -147 -376 -148q-223 0 -342 169q-90 127 -90 286q0 52 10 107zM297 518q-6 -35 -6 -68q0 -99 57 -170q76 -96 215 -96q131 0 235.5 82t137.5 211l10 55q2 21 2 41 q0 113 -68 183q-79 84 -210 84q-133 0 -239.5 -86t-133.5 -236z" />
<glyph unicode="r" horiz-adv-x="702" d="M39 0l180 1024h221l-26 -154q119 172 332 172h14l-43 -239q-17 1 -33 1q-56 0 -110 -16q-70 -20 -132.5 -83.5t-85.5 -161.5l-96 -543h-221z" />
<glyph unicode="s" horiz-adv-x="966" d="M20 221l199 103q18 -68 75.5 -108t145.5 -40q166 0 185 109q1 7 1 13q0 42 -46 70q-52 32 -129.5 55t-154.5 55t-122 102q-32 50 -32 121q0 28 5 59q25 133 139.5 212t264.5 79q131 0 226 -56.5t143 -156.5l-199 -101q-37 115 -182 115q-61 0 -110.5 -27.5t-59.5 -83.5 q-2 -9 -1 -17q0 -42 43 -68q52 -32 131 -54t155.5 -53t121.5 -103q32 -51 32 -122q0 -28 -5 -60q-25 -141 -140.5 -216t-283.5 -75q-307 0 -402 248z" />
<glyph unicode="t" horiz-adv-x="784" d="M90 811l39 213h188l39 221l232 66l-51 -287h256l-39 -213h-254l-86 -492q-3 -18 -3 -34q-1 -37 17 -57q24 -28 81 -31q19 -1 40 -1q43 0 98 3l-35 -199q-70 -9 -129 -9q-146 0 -220 55q-79 58 -79 182q0 42 9 91l86 492h-189z" />
<glyph unicode="u" horiz-adv-x="1165" d="M84 395l111 629h221l-107 -606q-6 -33 -6 -62q0 -72 36 -116q50 -60 159 -60q111 0 194.5 66.5t112.5 202.5l100 575h221l-180 -1024h-221l23 123q-129 -150 -334 -150q-176 0 -270 114q-69 84 -69 212q0 45 9 96z" />
<glyph unicode="v" horiz-adv-x="1003" d="M100 1024h228l121 -762l389 762h245l-553 -1024h-235z" />
<glyph unicode="w" horiz-adv-x="1587" d="M131 1024h221l82 -707l332 707h217l-2 -4l94 -703l320 707h241l-501 -1024h-217l-93 690l-325 -690h-228z" />
<glyph unicode="x" horiz-adv-x="1064" d="M-70 0l480 535l-279 489h242l184 -324l291 324h268l-454 -508l292 -516h-241l-199 350l-315 -350h-269z" />
<glyph unicode="y" horiz-adv-x="1064" d="M0 -410l37 207q11 -1 22 -1q86 0 145 42q68 47 130 156l18 29l-252 1001h228l176 -752l395 752h246l-580 -1057q-204 -378 -529 -378q-18 0 -36 1z" />
<glyph unicode="z" horiz-adv-x="927" d="M-18 0l26 147l586 668h-449l37 209h758l-25 -147l-587 -668h489l-37 -209h-798z" />
<glyph unicode="{" horiz-adv-x="733" d="M121 612l39 215q92 -4 140 26t65 126l55 315q37 211 151.5 296t321.5 69l-37 -213q-96 12 -147.5 -20.5t-67.5 -131.5l-55 -315q-18 -111 -62.5 -171t-117.5 -93q121 -61 88 -254l-56 -316q-18 -98 22 -130.5t140 -22.5l-39 -213q-195 -16 -286 81t-58 285l55 316 q16 96 -20.5 125.5t-130.5 25.5z" />
<glyph unicode="|" horiz-adv-x="507" d="M-18 -410l331 1885h222l-332 -1885h-221z" />
<glyph unicode="}" horiz-adv-x="733" d="M-88 -221l37 213q96 -12 147 20.5t68 130.5l55 316q18 111 62.5 171t117.5 93q-121 61 -88 254l56 315q18 98 -22 131t-140 23l39 213q195 16 286 -81t58 -286l-56 -315q-16 -96 21 -126t131 -26l-39 -215q-92 4 -140 -25.5t-65 -125.5l-55 -316q-37 -211 -151.5 -296 t-321.5 -68z" />
<glyph unicode="~" horiz-adv-x="1222" d="M123 631q76 195 224.5 247t314.5 -49q143 -80 213.5 -66.5t128.5 124.5l167 -88q-76 -195 -223 -247t-313 48q-141 80 -214 68t-128 -125z" />
<glyph unicode="&#xa2;" horiz-adv-x="1116" d="M113 739q39 225 212 370.5t404 145.5q53 0 111 -10l94 189h119l-109 -222q150 -68 211 -223l-199 -102q-35 88 -112 123l-303 -611q37 -4 55 -4q90 0 167 43t126 117l178 -115q-78 -127 -209 -194.5t-285 -67.5q-68 0 -133 17l-96 -195h-119l115 233q-131 68 -192.5 204 t-34.5 302zM334 723q-14 -92 14.5 -168t93.5 -117l295 598q-8 2 -28 2q-137 0 -243.5 -88t-131.5 -227z" />
<glyph unicode="&#xa3;" horiz-adv-x="1193" d="M-18 0l41 227h163l62 344h-133l37 207h131l43 238q39 221 170 332.5t323 111.5q143 0 250 -76.5t150 -212.5l-207 -108q-59 168 -219 168q-86 0 -149.5 -54.5t-82.5 -160.5l-43 -238h436l-36 -207h-435l-61 -344h696l-41 -227h-1095z" />
<glyph unicode="&#xa5;" horiz-adv-x="1214" d="M115 330l26 149h342l19 103h-342l26 149h289l-303 703h252l231 -564l430 564h281l-551 -703h293l-27 -149h-344l-18 -103h344l-27 -149h-344l-57 -330h-236l58 330h-342z" />
<glyph unicode="&#xa8;" horiz-adv-x="686" d="M174 1265.5q8 51.5 51 87.5t94.5 36t81 -36t19.5 -87.5t-51 -87t-92.5 -35.5t-81 35.5t-21.5 87zM563 1265.5q8 51.5 51 87.5t94.5 36t81 -36t19.5 -87.5t-51 -87t-92.5 -35.5t-81 35.5t-21.5 87z" />
<glyph unicode="&#xa9;" horiz-adv-x="1626" d="M111 729q53 307 300.5 518t561.5 211q301 0 485 -223t131 -530q-55 -309 -302 -519.5t-558 -210.5q-303 0 -488.5 224.5t-129.5 529.5zM182 717q-51 -279 114 -477.5t439 -198.5q283 0 508 196.5t277 479.5q47 281 -117 478.5t-438 197.5q-283 0 -509.5 -197t-273.5 -479 zM454.5 733q28.5 166 156.5 274.5t296 108.5q104 0 191.5 -54t132.5 -144l-176 -91q-51 94 -170 95q-90 0 -155.5 -60.5t-80.5 -144.5q-14 -82 30 -143.5t130 -61.5q125 0 197 102l159 -102q-68 -90 -168 -141.5t-211 -51.5q-168 0 -264 124t-67.5 290z" />
<glyph unicode="&#xab;" horiz-adv-x="1085" d="M154 633l286 379h228l-293 -387l153 -371h-217zM524 629l289 383h227l-295 -394l152 -364h-217z" />
<glyph unicode="&#xad;" d="M145 516l37 213h758l-37 -213h-758z" />
<glyph unicode="&#xae;" horiz-adv-x="1626" d="M111 729q53 307 301 518t561 211q301 0 485 -223t131 -530q-55 -309 -302 -519.5t-558 -210.5q-303 0 -488.5 224.5t-129.5 529.5zM182 717q-51 -279 114 -477.5t439 -198.5q283 0 508.5 196.5t276.5 479.5q47 281 -117 478.5t-438 197.5q-283 0 -509.5 -197t-273.5 -479 zM522 338l133 758h285q123 0 192.5 -79t51.5 -190q-27 -154 -158 -215l104 -274h-196l-78 240h-6h-96l-43 -240h-189zM782 741h86q109 0 123 90q18 90 -90 91h-88z" />
<glyph unicode="&#xb4;" horiz-adv-x="512" d="M154 1157h219l258 277h-273z" />
<glyph unicode="&#xb8;" horiz-adv-x="522" d="M-127 -442l29 161q242 -20 256 52q12 57 -140 61l31 168h182l-16 -94q66 -14 104.5 -61.5t26.5 -114.5q-39 -205 -473 -172z" />
<glyph unicode="&#xbb;" horiz-adv-x="1087" d="M88 254l295 393l-152 365h218l155 -375l-289 -383h-227zM461 254l293 387l-154 371h217l158 -379l-287 -379h-227z" />
<glyph unicode="&#x2c6;" horiz-adv-x="747" d="M154 1147l266 287h231l168 -287h-223l-78 149l-137 -149h-227z" />
<glyph unicode="&#x2da;" horiz-adv-x="573" d="M182.5 1349.5q16.5 98.5 95 161t185.5 62.5q109 0 167 -69.5t41.5 -168t-93 -161t-185 -62.5t-168 69.5t-43 168zM340 1343q-6 -39 12.5 -62.5t59.5 -23.5q43 0 71.5 24t34.5 60.5t-14.5 61t-61.5 24.5q-86 0 -102 -84z" />
<glyph unicode="&#x2dc;" horiz-adv-x="735" d="M168 1161q12 106 53 175t95.5 91.5t115 12.5t115.5 -54q57 -53 91 -45.5t50 93.5h182q-12 -106 -54 -175t-96 -91.5t-113.5 -12.5t-114.5 53q-59 53 -93 46t-49 -93h-182z" />
<glyph unicode="&#x401;" horiz-adv-x="1085" d="M53 0l252 1434h860l-39 -226h-624l-66 -372h574l-39 -222h-574l-69 -389h637l-41 -225h-871zM461 1675q8 51 51 87t94 36t81 -36t19.5 -87t-51.5 -87t-92 -36t-80.5 36t-21.5 87zM850 1675q8 51 51 87t94.5 36t81 -36t19 -87t-51 -87t-92 -36t-81 36t-21.5 87z" />
<glyph unicode="&#x402;" horiz-adv-x="1417" d="M154 1208l39 226h1034l-39 -226h-424l-53 -303q151 53 286 53q182 0 274.5 -104t61.5 -291l-33 -186q-39 -219 -156.5 -314.5t-332.5 -80.5l39 219q98 -8 148.5 31.5t66.5 144.5l29 168q18 111 -25 155.5t-141 44.5q-117 0 -256 -57l-121 -688h-236l213 1208h-374z" />
<glyph unicode="&#x403;" horiz-adv-x="983" d="M53 0l252 1434h809l-39 -226h-573l-213 -1208h-236zM598 1565l205 276h272l-258 -276h-219z" />
<glyph unicode="&#x404;" horiz-adv-x="1503" d="M111 737q53 313 294.5 518t552.5 205q205 0 354.5 -92t223.5 -252l-213 -112q-106 227 -383 227q-195 0 -348.5 -111.5t-218.5 -292.5h690l-39 -221h-688q2 -180 116 -291.5t302 -111.5q293 0 460 237l193 -125q-115 -158 -292 -250t-378 -92q-326 0 -503 224.5 t-123 539.5z" />
<glyph unicode="&#x405;" horiz-adv-x="1198" d="M29 326l213 110q51 -236 325 -235q125 0 202 49t93 131q20 92 -49.5 142t-224.5 102q-49 16 -90 32.5t-86 41t-76 50t-61.5 60.5t-43 74t-20.5 90t6 108q33 186 179.5 282.5t330.5 96.5q176 0 296 -85t171 -228l-207 -109q-74 195 -278 195q-98 0 -168 -45t-86 -123 q-18 -92 48 -142.5t218 -103.5q213 -76 295 -153q123 -117 86 -308q-35 -186 -184.5 -285.5t-366.5 -99.5q-213 0 -347 94.5t-175 258.5z" />
<glyph unicode="&#x406;" horiz-adv-x="522" d="M53 0l252 1434h236l-252 -1434h-236z" />
<glyph unicode="&#x407;" horiz-adv-x="522" d="M53 0l252 1434h236l-252 -1434h-236zM147.5 1675q8.5 51 51.5 87t94 36t80.5 -36t19.5 -87t-51 -87t-92 -36t-81 36t-21.5 87zM536.5 1675q8.5 51 51.5 87t94 36t81 -36t19.5 -87t-51.5 -87t-92 -36t-81 36t-21.5 87z" />
<glyph unicode="&#x408;" horiz-adv-x="1150" d="M25 246l215 116q47 -160 237 -159q127 0 203 60.5t96 170.5l176 1000h236l-176 -1002q-41 -233 -189.5 -346t-363.5 -113q-336 0 -434 273z" />
<glyph unicode="&#x409;" horiz-adv-x="1992" d="M-66 -4l39 219q133 -18 214 67t124 322l146 830h919l-98 -564h250q188 0 304 -131t83 -319q-33 -190 -183.5 -305t-357.5 -115h-485l213 1208h-449l-106 -600q-35 -199 -97.5 -330t-147.5 -192t-171 -80.5t-197 -9.5zM1163 221h250q100 0 175 59.5t91 157.5 q18 98 -36 154.5t-154 56.5h-250z" />
<glyph unicode="&#x40a;" horiz-adv-x="1978" d="M53 0l252 1434h236l-99 -564h584l98 564h236l-98 -564h251q188 0 304 -131t84 -319q-33 -190 -183.5 -305t-357.5 -115h-488l115 649h-584l-114 -649h-236zM1147 221h252q98 0 173 58.5t93 158.5q16 98 -38 154.5t-152 56.5h-252z" />
<glyph unicode="&#x40b;" horiz-adv-x="1427" d="M154 1208l39 226h1034l-39 -226h-424l-53 -303q139 53 278 53q184 0 279.5 -102t64.5 -293l-98 -563h-236l95 545q18 111 -27 155.5t-147 44.5q-123 0 -248 -57l-121 -688h-236l213 1208h-374z" />
<glyph unicode="&#x40c;" horiz-adv-x="1232" d="M53 0l252 1434h236l-111 -633l660 633h288l-729 -705l484 -729h-254l-467 698l-123 -698h-236zM659 1565l205 276h273l-258 -276h-220z" />
<glyph unicode="&#x40e;" horiz-adv-x="1208" d="M143 0l39 217q119 -10 198 39t144 164l4 8l-315 1006h227l232 -756l434 756h244l-613 -1065q-119 -211 -261 -295t-333 -74zM514 1575l33 192h573l-33 -192h-573z" />
<glyph unicode="&#x40f;" horiz-adv-x="1341" d="M53 0l252 1434h236l-213 -1209h583l213 1209h236l-252 -1434h-410l-49 -274h-235l49 274h-410z" />
<glyph unicode="&#x410;" horiz-adv-x="1341" d="M-80 0l772 1434h283l266 -1434h-252l-47 289h-610l-154 -289h-258zM451 510h454l-106 655z" />
<glyph unicode="&#x411;" horiz-adv-x="1200" d="M53 0l252 1434h881l-39 -226h-645l-58 -327h308q188 0 300.5 -135.5t80.5 -325.5q-35 -190 -180.5 -305t-356.5 -115h-543zM328 221h307q98 0 174 60.5t92 158.5q18 102 -37 160.5t-151 58.5h-307z" />
<glyph unicode="&#x412;" horiz-adv-x="1249" d="M53 0l252 1434h545q180 0 290 -117t83 -291q-27 -184 -195 -289q172 -111 139 -338q-25 -174 -161 -286.5t-349 -112.5h-604zM328 221h366q90 0 159 58.5t83 142.5q16 86 -31 143.5t-133 57.5h-375zM436 836h328q82 0 144.5 54t78.5 134q14 80 -31 134t-131 54h-323z" />
<glyph unicode="&#x413;" horiz-adv-x="983" d="M53 0l252 1434h809l-39 -226h-573l-213 -1208h-236z" />
<glyph unicode="&#x414;" horiz-adv-x="1433" d="M-109 -274l89 499h133q152 160 213 494l125 715h929l-213 -1209h156l-88 -499h-236l48 274h-871l-47 -274h-238zM379 225h555l174 987h-459l-88 -497q-59 -330 -182 -490z" />
<glyph unicode="&#x415;" horiz-adv-x="1085" d="M53 0l252 1434h860l-39 -226h-624l-66 -372h574l-39 -222h-574l-69 -389h637l-41 -225h-871z" />
<glyph unicode="&#x416;" horiz-adv-x="1814" d="M-59 0l671 750l-405 684h248l385 -654l114 654h236l-115 -648l578 648h278l-645 -721l408 -713h-248l-389 672l-119 -672h-236l119 672l-604 -672h-276z" />
<glyph unicode="&#x417;" horiz-adv-x="1150" d="M16 305l213 111q29 -102 94.5 -161.5t202.5 -59.5q127 0 209 60t101 159q16 96 -42.5 152.5t-183.5 56.5h-174l37 213h127q121 0 199 57t94 149q16 90 -39 143.5t-168 53.5q-195 0 -309 -199l-193 123q180 297 541 297q203 0 320.5 -122t84.5 -304q-37 -203 -221 -301 q92 -55 135 -146t23 -206q-35 -190 -183.5 -299t-391.5 -109q-195 0 -314 91.5t-162 240.5z" />
<glyph unicode="&#x418;" horiz-adv-x="1382" d="M53 0l252 1434h236l-168 -955l844 955h184l-252 -1434h-236l168 956l-843 -956h-185z" />
<glyph unicode="&#x419;" horiz-adv-x="1382" d="M53 0l252 1434h236l-168 -955l844 955h184l-252 -1434h-236l168 956l-843 -956h-185zM584 1577l32 192h574l-33 -192h-573z" />
<glyph unicode="&#x41a;" horiz-adv-x="1232" d="M53 0l252 1434h236l-111 -633l660 633h288l-729 -705l484 -729h-254l-467 698l-123 -698h-236z" />
<glyph unicode="&#x41b;" horiz-adv-x="1398" d="M-66 -4l39 219q133 -18 214 67t124 322l146 830h960l-252 -1434h-235l213 1208h-490l-106 -600q-35 -199 -98.5 -331t-148.5 -192t-171 -79.5t-195 -9.5z" />
<glyph unicode="&#x41c;" horiz-adv-x="1658" d="M53 0l252 1434h248l295 -727l561 727h268l-252 -1434h-235l180 1020l-565 -719h-29l-305 739l-182 -1040h-236z" />
<glyph unicode="&#x41d;" horiz-adv-x="1372" d="M53 0l252 1434h236l-103 -588h615l102 588h236l-252 -1434h-236l109 621h-615l-108 -621h-236z" />
<glyph unicode="&#x41e;" horiz-adv-x="1634" d="M111 737q55 315 296.5 519t567.5 204q309 0 491.5 -227t128.5 -541q-57 -315 -297.5 -517t-568.5 -202q-309 0 -491.5 225.5t-126.5 538.5zM346 717q-39 -221 79 -367.5t335 -146.5q219 0 390 144.5t210 365.5t-82 369.5t-340 148.5q-217 0 -385 -146.5t-207 -367.5z" />
<glyph unicode="&#x41f;" horiz-adv-x="1341" d="M53 0l252 1434h1055l-252 -1434h-236l213 1208h-583l-213 -1208h-236z" />
<glyph unicode="&#x420;" horiz-adv-x="1208" d="M53 0l252 1434h510q213 0 326.5 -137.5t83.5 -344.5q-33 -203 -187.5 -331.5t-392.5 -128.5h-270l-86 -492h-236zM414 713h256q131 0 216 72.5t105 187.5q18 109 -36 174t-173 65h-280z" />
<glyph unicode="&#x421;" horiz-adv-x="1503" d="M111 737q53 313 294.5 518t552.5 205q205 0 354.5 -92t223.5 -252l-213 -112q-106 227 -383 227q-225 0 -391 -145.5t-205 -368.5t77 -368.5t333 -145.5q293 0 460 237l193 -125q-115 -158 -292 -250t-378 -92q-326 0 -503 224.5t-123 539.5z" />
<glyph unicode="&#x422;" horiz-adv-x="1105" d="M154 1208l39 226h1044l-39 -226h-403l-213 -1208h-236l213 1208h-405z" />
<glyph unicode="&#x423;" horiz-adv-x="1208" d="M143 0l39 217q119 -10 198 39t144 164l4 8l-315 1006h227l232 -756l434 756h244l-613 -1065q-119 -211 -261 -295t-333 -74z" />
<glyph unicode="&#x424;" horiz-adv-x="1669" d="M90 733q43 248 249 392.5t517 164.5l29 164h231l-29 -166q291 -31 450 -187.5t116 -398.5q-45 -248 -251 -393t-517 -166l-29 -163h-231l28 165q-293 31 -449.5 187.5t-113.5 400.5zM326 717q-29 -160 66 -250t300 -109l125 717q-434 -39 -491 -358zM924 358 q436 40 493 359q29 162 -67.5 251t-300.5 107z" />
<glyph unicode="&#x425;" horiz-adv-x="1228" d="M-59 0l583 750l-305 684h252l213 -480l373 480h278l-551 -707l324 -727h-252l-231 520l-406 -520h-278z" />
<glyph unicode="&#x426;" horiz-adv-x="1413" d="M53 0l252 1434h236l-211 -1209h583l211 1209h236l-211 -1209h154l-89 -499h-235l47 274h-973z" />
<glyph unicode="&#x427;" horiz-adv-x="1290" d="M184 922l90 512h236l-86 -488q-20 -121 37 -179t207 -58q139 0 288 55l117 670h236l-252 -1434h-236l92 526q-131 -43 -276 -43q-246 0 -366.5 119t-86.5 320z" />
<glyph unicode="&#x428;" horiz-adv-x="1935" d="M53 0l252 1434h236l-211 -1209h471l211 1209h235l-211 -1209h471l211 1209h236l-252 -1434h-1649z" />
<glyph unicode="&#x429;" horiz-adv-x="2007" d="M53 0l252 1434h236l-211 -1209h471l211 1209h235l-211 -1209h471l211 1209h236l-211 -1209h151l-88 -499h-235l49 274h-1567z" />
<glyph unicode="&#x42a;" horiz-adv-x="1425" d="M123 1208l39 226h594l-86 -492h284q193 0 312.5 -147.5t85.5 -343.5q-35 -207 -186.5 -329t-370.5 -122h-527l213 1208h-358zM543 221h288q106 0 186.5 70.5t98.5 179.5q20 109 -36 179.5t-165 70.5h-284z" />
<glyph unicode="&#x42b;" horiz-adv-x="1665" d="M53 0l252 1434h236l-86 -492h284q193 0 312.5 -147.5t85.5 -343.5q-35 -207 -186.5 -329t-370.5 -122h-527zM328 221h288q106 0 186.5 70.5t98.5 179.5q20 109 -36 179.5t-165 70.5h-284zM1196 0l252 1434h235l-251 -1434h-236z" />
<glyph unicode="&#x42c;" horiz-adv-x="1210" d="M53 0l252 1434h236l-86 -492h284q193 0 312.5 -147.5t85.5 -343.5q-35 -207 -186.5 -329t-370.5 -122h-527zM328 221h288q106 0 186.5 70.5t98.5 179.5q20 109 -36 179.5t-165 70.5h-284z" />
<glyph unicode="&#x42d;" horiz-adv-x="1495" d="M35 322l215 112q43 -109 143.5 -170t241.5 -61q193 0 342 110.5t215 292.5h-688l39 221h688q-2 184 -111.5 294t-300.5 110q-145 0 -264 -65.5t-195 -176.5l-192 125q111 160 291 253t383 93q324 0 494.5 -222t119.5 -540q-51 -311 -284.5 -518t-557.5 -207 q-207 0 -359.5 92.5t-219.5 256.5z" />
<glyph unicode="&#x42e;" horiz-adv-x="2152" d="M53 0l252 1434h236l-103 -584h228q86 272 312 441t515 169q309 0 491.5 -227t129.5 -541q-57 -313 -301 -516t-566 -203q-279 0 -454 187.5t-166 464.5h-228l-110 -625h-236zM864 717q-39 -221 79 -367.5t335 -146.5q219 0 390 144.5t210 365.5t-82 369.5t-340 148.5 q-217 0 -385 -146.5t-207 -367.5z" />
<glyph unicode="&#x42f;" horiz-adv-x="1275" d="M-35 0l467 547q-141 49 -208.5 174t-41.5 272q33 186 182.5 313.5t364.5 127.5h565l-252 -1434h-235l92 522h-211l-434 -522h-289zM414 977q-16 -100 42 -172t162 -72h318l84 479h-324q-102 0 -183 -67.5t-99 -167.5z" />
<glyph unicode="&#x430;" horiz-adv-x="1292" d="M76 535q41 229 203.5 372.5t377.5 143.5q240 0 347 -193l28 166h221l-180 -1024h-221l20 121q-143 -147 -374 -148q-223 0 -343 169t-79 393zM297 518q-25 -143 51 -238.5t215 -95.5q131 0 235.5 81t137.5 210l10 60q14 141 -65.5 223t-210.5 82q-133 0 -239.5 -86 t-133.5 -236z" />
<glyph unicode="&#x431;" horiz-adv-x="1161" d="M72 516q45 264 145 406.5t354 257.5q43 18 126 53t115 50t80 45t75.5 62.5t48.5 79.5l168 -104q-20 -55 -57 -100t-72 -75t-104.5 -63.5t-108.5 -50t-133 -51.5q-141 -53 -213 -106.5t-111 -133.5q139 129 344 129q174 0 292 -136t81 -341q-35 -209 -194 -337t-386 -128 q-229 0 -360 154t-90 389zM295 467q-23 -123 50 -205t198 -82q129 0 224 77t115.5 195.5t-47 197.5t-192.5 79q-119 0 -223.5 -70.5t-124.5 -191.5z" />
<glyph unicode="&#x432;" horiz-adv-x="1038" d="M39 0l180 1024h483q145 0 223.5 -86t55.5 -211q-25 -143 -143 -207q137 -78 108 -244q-23 -127 -120 -201.5t-263 -74.5h-524zM285 193h290q63 0 107.5 31.5t52.5 88.5q10 53 -21.5 83t-97.5 30h-290zM356 608h250q141 0 160 115q22 113 -113 113h-256z" />
<glyph unicode="&#x433;" horiz-adv-x="819" d="M39 0l180 1024h686l-37 -213h-465l-143 -811h-221z" />
<glyph unicode="&#x434;" horiz-adv-x="1218" d="M-109 -274l86 483h127q117 137 158 371l78 444h780l-143 -815h137l-86 -483h-217l49 274h-702l-49 -274h-218zM352 209h408l108 612h-346l-43 -241q-39 -232 -127 -371z" />
<glyph unicode="&#x435;" horiz-adv-x="1193" d="M76 532q39 225 211 372t399 147q229 0 357 -158t85 -383q-18 -74 -24 -92h-815q2 -119 77.5 -180.5t198.5 -61.5q182 0 289 129l162 -123q-168 -209 -469 -209q-248 0 -379 162t-92 397zM319 600h601q2 127 -67 188.5t-181 61.5q-121 0 -214.5 -66.5t-138.5 -183.5z" />
<glyph unicode="&#x436;" horiz-adv-x="1476" d="M-59 0l497 545l-297 479h228l272 -446l78 446h217l-80 -455l416 455h250l-475 -512l309 -512h-228l-288 481l-84 -481h-217l84 477l-439 -477h-243z" />
<glyph unicode="&#x437;" horiz-adv-x="921" d="M-6 219l192 98q35 -145 222 -145q88 0 142 36t64 95q10 53 -23.5 85t-103.5 32h-147l35 194h110q141 0 162 119q10 55 -27.5 88t-113.5 33q-152 0 -232 -137l-168 106q154 227 422 228q174 0 265.5 -96.5t68.5 -221.5q-25 -152 -155 -219q68 -41 99.5 -107.5t18.5 -144.5 q-25 -129 -137.5 -209t-306.5 -80q-160 0 -258 65.5t-129 180.5z" />
<glyph unicode="&#x438;" horiz-adv-x="1167" d="M39 0l180 1024h217l-112 -639l637 639h169l-180 -1024h-217l111 639l-635 -639h-170z" />
<glyph unicode="&#x439;" horiz-adv-x="1167" d="M39 0l180 1024h217l-112 -639l637 639h169l-180 -1024h-217l111 639l-635 -639h-170zM414 1167l32 193h574l-33 -193h-573z" />
<glyph unicode="&#x43a;" d="M39 0l180 1024h221l-78 -436l465 436h271l-535 -502l371 -522h-246l-342 492l-86 -492h-221z" />
<glyph unicode="&#x43b;" horiz-adv-x="1122" d="M-70 0l37 207q92 -12 148.5 41t81.5 192l102 584h784l-180 -1024h-221l143 811h-342l-67 -381q-45 -258 -166 -354t-320 -76z" />
<glyph unicode="&#x43c;" horiz-adv-x="1300" d="M39 0l180 1024h221l201 -479l381 479h242l-181 -1024h-215l119 674l-377 -469h-26l-211 467l-119 -672h-215z" />
<glyph unicode="&#x43d;" horiz-adv-x="1167" d="M39 0l180 1024h221l-71 -408h469l71 408h221l-180 -1024h-221l72 408h-469l-72 -408h-221z" />
<glyph unicode="&#x43e;" horiz-adv-x="1226" d="M78 539q43 227 219 369.5t405 142.5q227 0 358.5 -164t90.5 -395q-41 -229 -216 -374t-394 -145q-242 0 -375 165t-88 401zM299 512q-25 -150 51 -237t207 -87q133 0 240.5 88.5t134.5 239.5q27 145 -51 232.5t-209 87.5q-133 0 -239.5 -87t-133.5 -237z" />
<glyph unicode="&#x43f;" horiz-adv-x="1167" d="M39 0l180 1024h911l-180 -1024h-221l143 815h-469l-143 -815h-221z" />
<glyph unicode="&#x440;" horiz-adv-x="1292" d="M-35 -410l254 1434h221l-22 -129q150 156 375 156q215 0 337.5 -167t86 -392.5t-197.5 -372t-376 -146.5q-250 0 -352 197l-103 -580h-223zM346 487q-14 -141 67 -222t210 -81q133 0 239 86t133 238q25 143 -51 237.5t-215 94.5q-131 0 -235.5 -81t-137.5 -212z" />
<glyph unicode="&#x441;" horiz-adv-x="1114" d="M76 535q39 225 212 370.5t404 145.5q156 0 267.5 -72t158.5 -195l-198 -102q-59 152 -248 152q-137 0 -243.5 -88.5t-131.5 -227.5q-23 -139 51 -233.5t211 -94.5q90 0 167 43t126 117l178 -114q-78 -127 -208.5 -195t-284.5 -68q-233 0 -366.5 164t-94.5 398z" />
<glyph unicode="&#x442;" horiz-adv-x="931" d="M74 811l37 213h890l-36 -213h-334l-144 -811h-221l144 811h-336z" />
<glyph unicode="&#x443;" horiz-adv-x="1064" d="M0 -410l37 207q100 -6 167.5 41t129.5 156l18 29l-252 1001h228l176 -752l395 752h246l-580 -1057q-215 -399 -565 -377z" />
<glyph unicode="&#x444;" horiz-adv-x="1394" d="M76 528q37 209 199.5 348.5t408.5 165.5l68 392h217l-70 -394q223 -33 340 -186.5t82 -357.5q-37 -211 -198.5 -349.5t-409.5 -164.5l-68 -392h-217l70 394q-223 33 -340 186.5t-82 357.5zM292.5 512q-22.5 -123 41 -208t201.5 -111l110 638q-145 -27 -237.5 -111.5 t-115 -207.5zM752 193q145 27 237 111.5t114.5 207.5t-41 208t-200.5 111z" />
<glyph unicode="&#x445;" horiz-adv-x="1064" d="M-70 0l480 535l-279 489h242l184 -324l291 324h268l-454 -508l292 -516h-241l-199 350l-315 -350h-269z" />
<glyph unicode="&#x446;" horiz-adv-x="1228" d="M39 0l180 1024h221l-143 -815h438l144 815h221l-144 -815h168l-86 -483h-217l49 274h-831z" />
<glyph unicode="&#x447;" horiz-adv-x="1101" d="M111 672l61 352h221l-57 -332q-35 -184 176 -184q106 0 248 49l82 467h221l-180 -1024h-221l59 340q-133 -39 -258 -39q-188 0 -284.5 101.5t-67.5 269.5z" />
<glyph unicode="&#x448;" horiz-adv-x="1689" d="M39 0l180 1024h221l-143 -815h385l143 815h222l-144 -815h385l144 815h221l-180 -1024h-1434z" />
<glyph unicode="&#x449;" horiz-adv-x="1730" d="M39 0l180 1024h221l-143 -815h375l143 815h221l-143 -815h375l143 815h221l-143 -815h137l-86 -483h-217l49 274h-1333z" />
<glyph unicode="&#x44a;" horiz-adv-x="1153" d="M53 811l37 213h504l-62 -348h228q154 0 245 -101.5t64 -252.5q-27 -150 -141.5 -236t-288.5 -86h-446l143 811h-283zM449 199h227q66 0 116 39t62 100q10 63 -26.5 101t-102.5 38h-227z" />
<glyph unicode="&#x44b;" horiz-adv-x="1419" d="M39 0l180 1024h221l-61 -348h227q154 0 245 -101.5t64 -252.5q-27 -150 -141.5 -236t-288.5 -86h-446zM295 199h227q66 0 116 39t62 100q10 63 -26.5 101t-102.5 38h-227zM981 0l180 1024h221l-180 -1024h-221z" />
<glyph unicode="&#x44c;" horiz-adv-x="999" d="M39 0l180 1024h221l-61 -348h227q154 0 245 -101.5t64 -252.5q-27 -150 -141.5 -236t-288.5 -86h-446zM295 199h227q66 0 116 39t62 100q10 63 -26.5 101t-102.5 38h-227z" />
<glyph unicode="&#x44d;" horiz-adv-x="1114" d="M-6 240l194 100q59 -154 256 -154q113 0 207 61.5t142 164.5h-404l37 202h401q-12 102 -82.5 164t-185.5 62q-193 0 -299 -162l-176 110q80 123 213 193t289 70q231 0 362 -165t90 -394.5t-210 -374t-406 -144.5q-150 0 -265.5 72t-162.5 195z" />
<glyph unicode="&#x44e;" horiz-adv-x="1654" d="M39 0l180 1024h221l-71 -408h166q63 197 227 316t371 119q227 0 357 -163t89 -396q-41 -229 -215 -374t-393 -145q-205 0 -332 122t-135 313h-172l-72 -408h-221zM725 512q-25 -150 52 -237t208 -87q133 0 241.5 88t135.5 240q27 145 -52 232.5t-210 87.5 q-133 0 -240.5 -87t-134.5 -237z" />
<glyph unicode="&#x44f;" horiz-adv-x="1050" d="M-29 0l346 369q-100 41 -151 133t-33 198q25 141 139.5 232.5t282.5 91.5h457l-181 -1024h-217l62 344h-125l-318 -344h-262zM350 677.5q-10 -63.5 26.5 -103t104.5 -39.5h228l51 288h-228q-70 0 -121 -41t-61 -104.5z" />
<glyph unicode="&#x451;" horiz-adv-x="1193" d="M76 532q39 225 211 372t399 147q229 0 357 -158t85 -383q-18 -74 -24 -92h-815q2 -119 77.5 -180.5t198.5 -61.5q182 0 289 129l162 -123q-168 -209 -469 -209q-248 0 -379 162t-92 397zM319 600h601q2 127 -67 188.5t-181 61.5q-121 0 -214.5 -66.5t-138.5 -183.5z M432 1272q8 51 51 87t94.5 36t81 -36t19.5 -87t-51 -87t-92.5 -36t-81 36t-21.5 87zM821 1272q8 51 51 87t94.5 36t81 -36t19.5 -87t-51 -87t-92.5 -36t-81 36t-21.5 87z" />
<glyph unicode="&#x452;" horiz-adv-x="1181" d="M53 0l203 1149h-133l27 151h133l22 134h221l-22 -134h291l-27 -151h-291l-45 -250q127 152 334 152q178 0 270 -114t60 -308l-117 -670q-39 -221 -159 -315.5t-331 -79.5l37 213q197 -18 232 182l112 647q20 117 -28.5 177.5t-157.5 60.5q-113 0 -198 -68.5t-113 -212.5 l-99 -563h-221z" />
<glyph unicode="&#x453;" horiz-adv-x="819" d="M39 0l180 1024h686l-37 -213h-465l-143 -811h-221zM403 1157l205 277h273l-258 -277h-220z" />
<glyph unicode="&#x454;" horiz-adv-x="1114" d="M76 535q39 227 213 371.5t405 144.5q150 0 264.5 -72t161.5 -193l-194 -102q-61 156 -254 156q-113 0 -206 -61.5t-142 -164.5h401l-37 -202h-401q14 -100 85 -163t177 -63q201 0 307 162l174 -112q-80 -123 -213 -193t-287 -70q-227 0 -361 166t-93 396z" />
<glyph unicode="&#x455;" horiz-adv-x="966" d="M20 221l199 103q18 -68 75.5 -108t145.5 -40q166 0 185 109q8 51 -44.5 82.5t-130 55t-154.5 55.5t-122 102.5t-27 179.5q25 133 139.5 212t264.5 79q131 0 226 -56.5t143 -156.5l-199 -101q-37 115 -182 115q-61 0 -110.5 -27.5t-59.5 -83.5q-10 -53 42 -85.5t131 -54 t155.5 -52.5t121.5 -102.5t27 -182.5q-25 -141 -140.5 -216t-283.5 -75q-307 0 -402 248z" />
<glyph unicode="&#x456;" horiz-adv-x="477" d="M39 0l180 1024h221l-180 -1024h-221zM239.5 1319q10.5 57 57.5 99t106.5 42t94 -41t24.5 -100q-10 -57 -57.5 -99t-108.5 -42q-59 0 -93 42t-23.5 99z" />
<glyph unicode="&#x457;" horiz-adv-x="477" d="M39 0l180 1024h221l-180 -1024h-221zM53 1265.5q8 51.5 51 87.5t94.5 36t81 -36t19.5 -87.5t-51 -87t-92.5 -35.5t-81 35.5t-21.5 87zM442.5 1265.5q8.5 51.5 51.5 87.5t94 36t80.5 -36t19.5 -87.5t-51 -87t-92 -35.5t-81 35.5t-21.5 87z" />
<glyph unicode="&#x458;" horiz-adv-x="518" d="M-199 -436l39 213q100 -10 157 33t75 149l186 1065h221l-186 -1065q-41 -229 -160 -320.5t-332 -74.5zM280.5 1319q10.5 57 57.5 99t106 42q57 0 93 -41t26 -100q-10 -57 -58 -99t-107.5 -42t-93.5 42t-23.5 99z" />
<glyph unicode="&#x459;" horiz-adv-x="1593" d="M-70 0l37 207q92 -14 148.5 39t81.5 194l102 584h764l-68 -379h217q145 0 232.5 -95t60.5 -243q-27 -150 -134 -228.5t-271 -78.5h-438l143 811h-322l-67 -381q-43 -256 -165 -353t-321 -77zM918 199h217q57 0 101 32t54 93q12 59 -20.5 90.5t-89.5 31.5h-219z" />
<glyph unicode="&#x45a;" horiz-adv-x="1630" d="M39 0l180 1024h221l-67 -379h438l68 379h221l-68 -379h217q143 0 231.5 -95t61.5 -243q-27 -150 -135.5 -228.5t-271.5 -78.5h-437l76 436h-438l-76 -436h-221zM954 199h217q55 0 99.5 32t56.5 93q10 59 -22.5 90.5t-90.5 31.5h-217z" />
<glyph unicode="&#x45b;" horiz-adv-x="1181" d="M53 0l203 1149h-133l27 151h133l22 134h221l-22 -134h291l-27 -151h-291l-45 -250q127 152 334 152q178 0 270 -114t60 -308l-111 -629h-221l106 606q20 117 -28.5 177.5t-157.5 60.5q-113 0 -198 -68.5t-113 -212.5l-99 -563h-221z" />
<glyph unicode="&#x45c;" d="M39 0l180 1024h221l-78 -436l465 436h271l-535 -502l371 -522h-246l-342 492l-86 -492h-221zM506 1157l205 277h272l-258 -277h-219z" />
<glyph unicode="&#x45e;" horiz-adv-x="1064" d="M0 -410l37 207q100 -6 167.5 41t129.5 156l18 29l-252 1001h228l176 -752l395 752h246l-580 -1057q-215 -399 -565 -377zM332 1167l33 193h573l-33 -193h-573z" />
<glyph unicode="&#x45f;" horiz-adv-x="1167" d="M39 0l180 1024h221l-143 -815h469l143 815h221l-180 -1024h-348l-49 -274h-217l49 274h-346z" />
<glyph unicode="&#x490;" horiz-adv-x="983" d="M53 0l252 1434h576l43 245h235l-84 -471h-573l-213 -1208h-236z" />
<glyph unicode="&#x491;" horiz-adv-x="819" d="M39 0l180 1024h469l37 209h217l-74 -422h-465l-143 -811h-221z" />
<glyph unicode="&#x2000;" horiz-adv-x="920" />
<glyph unicode="&#x2001;" horiz-adv-x="1841" />
<glyph unicode="&#x2002;" horiz-adv-x="920" />
<glyph unicode="&#x2003;" horiz-adv-x="1841" />
<glyph unicode="&#x2004;" horiz-adv-x="613" />
<glyph unicode="&#x2005;" horiz-adv-x="460" />
<glyph unicode="&#x2006;" horiz-adv-x="306" />
<glyph unicode="&#x2007;" horiz-adv-x="306" />
<glyph unicode="&#x2008;" horiz-adv-x="230" />
<glyph unicode="&#x2009;" horiz-adv-x="368" />
<glyph unicode="&#x200a;" horiz-adv-x="102" />
<glyph unicode="&#x2010;" d="M145 516l37 213h758l-37 -213h-758z" />
<glyph unicode="&#x2011;" d="M145 516l37 213h758l-37 -213h-758z" />
<glyph unicode="&#x2012;" d="M145 516l37 213h758l-37 -213h-758z" />
<glyph unicode="&#x2013;" horiz-adv-x="1294" d="M145 516l37 213h1008l-37 -213h-1008z" />
<glyph unicode="&#x2014;" horiz-adv-x="1499" d="M145 516l37 213h1213l-37 -213h-1213z" />
<glyph unicode="&#x2018;" horiz-adv-x="544" d="M176 901l238 533h186l-178 -533h-246z" />
<glyph unicode="&#x2019;" horiz-adv-x="544" d="M176 901l178 533h246l-238 -533h-186z" />
<glyph unicode="&#x201a;" horiz-adv-x="542" d="M-35 -287l178 533h246l-237 -533h-187z" />
<glyph unicode="&#x201c;" horiz-adv-x="892" d="M176 901l238 533h186l-178 -533h-246zM524 901l238 533h186l-178 -533h-246z" />
<glyph unicode="&#x201d;" horiz-adv-x="892" d="M176 901l178 533h246l-238 -533h-186zM524 901l178 533h246l-237 -533h-187z" />
<glyph unicode="&#x201e;" horiz-adv-x="890" d="M-35 -287l178 533h246l-237 -533h-187zM313 -287l179 533h245l-237 -533h-187z" />
<glyph unicode="&#x2020;" horiz-adv-x="983" d="M176 924l37 213h279l51 297h221l-51 -297h278l-37 -213h-280l-162 -924h-221l162 924h-277z" />
<glyph unicode="&#x2021;" horiz-adv-x="983" d="M66 297l36 213h279l72 414h-277l37 213h279l51 297h221l-51 -297h278l-37 -213h-280l-72 -414h279l-37 -213h-281l-51 -297h-221l51 297h-276z" />
<glyph unicode="&#x2022;" horiz-adv-x="696" d="M131 729q20 104 105.5 174t195.5 70q104 0 165.5 -78t41.5 -182q-18 -109 -102 -180.5t-197 -71.5q-104 0 -165.5 80t-43.5 188z" />
<glyph unicode="&#x2026;" horiz-adv-x="1402" d="M41 133q10 63 61.5 106.5t118.5 43.5q63 0 100 -46.5t27 -109.5q-12 -66 -62 -109t-120 -43q-63 0 -99 46.5t-26 111.5zM481 133q10 63 61.5 106.5t119.5 43.5q63 0 100 -46.5t26 -109.5q-12 -66 -62 -109t-120 -43q-63 0 -99 46.5t-26 111.5zM922 133q10 63 61 106.5 t119 43.5q63 0 100 -46.5t27 -109.5q-12 -66 -62 -109t-120 -43q-63 0 -99.5 46.5t-25.5 111.5z" />
<glyph unicode="&#x202f;" horiz-adv-x="368" />
<glyph unicode="&#x2030;" horiz-adv-x="2283" d="M168 213l1126 1053l111 -70l-1129 -1053zM213 1135q20 135 128 230t261 95q145 0 225 -105.5t54 -240.5q-27 -131 -131 -220t-254 -89q-143 0 -223 99.5t-60 230.5zM403 1133q-12 -61 21 -104.5t96.5 -43.5t112.5 43t59 105q10 63 -21.5 106t-97.5 43q-63 0 -111 -43 t-59 -106zM723 311q23 135 128 227.5t259 92.5q145 0 224 -103.5t55 -238.5q-25 -131 -130.5 -222.5t-252.5 -91.5q-145 0 -225.5 101.5t-57.5 234.5zM911.5 303.5q-10.5 -63.5 22.5 -105.5t96.5 -42t112.5 43t59 104q10 63 -22.5 106.5t-96 43.5t-112.5 -43t-59.5 -106.5z M1477 311q23 135 128 227.5t259 92.5q143 0 223 -103.5t55 -238.5q-27 -131 -131 -222.5t-254 -91.5q-145 0 -224 101.5t-56 234.5zM1665 303.5q-10 -63.5 21.5 -105.5t95 -42t113 43t59.5 104q10 63 -21.5 106.5t-97.5 43.5q-63 0 -111.5 -43t-58.5 -106.5z" />
<glyph unicode="&#x2039;" horiz-adv-x="716" d="M154 633l290 379h228l-297 -387l155 -371h-217z" />
<glyph unicode="&#x203a;" horiz-adv-x="718" d="M88 254l297 387l-156 371h217l160 -379l-291 -379h-227z" />
<glyph unicode="&#x2044;" horiz-adv-x="409" d="M-377 0l1061 1434h174l-1061 -1434h-174z" />
<glyph unicode="&#x205f;" horiz-adv-x="460" />
<glyph unicode="&#x20ac;" horiz-adv-x="1247" d="M41 532l25 146h133q4 37 8 55q4 29 8 39h-133l27 146h143q82 256 249 399t394 143q150 0 256 -76.5t154 -212.5l-209 -108q-55 168 -236 168q-250 0 -364 -313h452l-26 -146h-469q-2 -10 -5.5 -28.5t-5.5 -26.5l-6 -39h469l-24 -146h-457q-2 -160 63.5 -244.5 t190.5 -84.5q180 0 297 182l184 -115q-178 -297 -514 -297q-221 0 -341 151.5t-116 407.5h-147z" />
<glyph unicode="&#x2122;" horiz-adv-x="964" d="M217 1333l19 101h339l-18 -101h-115l-53 -309h-110l53 309h-115zM547 1024l71 410h107l72 -174l137 174h121l-72 -410h-106l41 238l-138 -166h-10l-76 166l-41 -238h-106z" />
<glyph unicode="&#x25fc;" horiz-adv-x="1024" d="M0 0v1024h1024v-1024h-1024z" />
</font>
</defs>
</svg>
