<?xml version="1.0" standalone="no"?>
<!DOCTYPE svg PUBLIC "-//W3C//DTD SVG 1.1//EN" "http://www.w3.org/Graphics/SVG/1.1/DTD/svg11.dtd" >
<svg xmlns="http://www.w3.org/2000/svg" xmlns:xlink="http://www.w3.org/1999/xlink" version="1.1">
<metadata></metadata>
<defs>
<font id="gilroy-mediumitaluploadedfile" horiz-adv-x="1054" >
<font-face units-per-em="2048" ascent="1585" descent="-463" />
<missing-glyph horiz-adv-x="512" />
<glyph horiz-adv-x="0" />
<glyph unicode="&#xd;" horiz-adv-x="681" />
<glyph unicode=" "  horiz-adv-x="512" />
<glyph unicode="&#x09;" horiz-adv-x="512" />
<glyph unicode="&#xa0;" horiz-adv-x="512" />
<glyph unicode="!" horiz-adv-x="497" d="M45 113q10 57 53 94t103 37q55 0 88 -40t22 -95q-10 -57 -53 -94.5t-104 -37.5q-55 0 -87 40t-22 96zM164 420l67 604l72 410h215l-72 -410l-143 -604h-139z" />
<glyph unicode="&#x22;" horiz-adv-x="681" d="M209 1004l51 430h178l-100 -430h-129zM516 1004l51 430h178l-100 -430h-129z" />
<glyph unicode="#" horiz-adv-x="1239" d="M47 457l51 147h238l78 225h-242l51 150h242l121 352h157l-120 -352h249l121 352h156l-121 -352h236l-52 -150h-235l-78 -225h240l-52 -147h-239l-121 -355h-156l121 355h-250l-120 -355h-158l121 355h-238zM494 604h249l78 225h-250z" />
<glyph unicode="$" horiz-adv-x="1148" d="M33 291l172 86q55 -186 266 -215l86 491q-31 14 -53.5 24.5t-52 26t-51 30t-48 33.5t-44 38.5t-36 43t-29 50.5t-16.5 57.5t-6 65.5t8 74q35 174 172.5 268t298.5 96l31 178h129l-33 -190q223 -49 316 -266l-170 -84q-66 131 -178 166l-84 -476q37 -16 50 -21t50 -22.5 t53.5 -28.5t48 -31.5t47 -38t38 -43t31.5 -52.5t18.5 -58.5t8.5 -69.5t-9 -79q-33 -170 -165 -265t-317 -106l-30 -178h-129l32 185q-156 18 -260 99t-145 212zM420 1079q-16 -84 30 -137t140 -98l78 430q-88 -6 -159 -57.5t-89 -137.5zM600 162q100 12 169 66.5t87 138.5 q18 86 -30 138t-148 97z" />
<glyph unicode="%" horiz-adv-x="1492" d="M152 205l1138 1065l99 -60l-1141 -1067zM225 1147q23 133 128.5 223t250.5 90q139 0 216 -99t52 -233q-25 -129 -128 -216t-246 -87q-137 0 -216 96.5t-57 225.5zM385 1143q-12 -72 26 -120t109.5 -48t125.5 49t66.5 118.5t-24.5 118t-108.5 48.5t-127 -48.5 t-67.5 -117.5zM694.5 301q22.5 131 128 220t248.5 89q137 0 214 -98t54 -229q-25 -131 -128 -219.5t-246 -88.5q-139 0 -216 97.5t-54.5 228.5zM854 293q-12 -70 24.5 -118t108.5 -48t126 48t66.5 117.5t-24.5 118t-108 48.5q-74 0 -128.5 -48.5t-64.5 -117.5z" />
<glyph unicode="&#x26;" horiz-adv-x="1372" d="M96 414q47 258 344 395q-76 135 -51 281q29 168 158 269t309 101q154 0 262.5 -77.5t153.5 -215.5l-170 -90q-27 92 -94.5 145.5t-161.5 53.5q-98 0 -175 -55.5t-93 -155.5q-20 -123 84 -260l307 -402q74 107 127 259l151 -97q-68 -176 -170 -305l164 -215l-162 -84 l-129 170q-193 -158 -438 -158q-219 0 -336 123t-80 318zM287 408q-20 -115 48.5 -184.5t203.5 -69.5q170 0 307 114l-309 406q-215 -86 -250 -266z" />
<glyph unicode="'" horiz-adv-x="374" d="M209 1004l51 430h178l-100 -430h-129z" />
<glyph unicode="(" horiz-adv-x="573" d="M158 731q82 463 385 907h178q-305 -449 -387 -921.5t61 -921.5h-178q-145 449 -59 936z" />
<glyph unicode=")" horiz-adv-x="571" d="M-76 -205q305 449 387 922t-61 921h178q145 -449 59 -936q-82 -463 -385 -907h-178z" />
<glyph unicode="*" horiz-adv-x="808" d="M225 1118l23 131l184 -10l-82 152l123 69l62 -168l122 168l109 -69l-133 -152l186 10l-22 -131l-185 8l82 -149l-121 -70l-63 168l-121 -168l-110 70l133 149z" />
<glyph unicode="+" horiz-adv-x="1116" d="M139 633l29 170h356l64 354h170l-64 -354h355l-29 -170h-354l-64 -357h-170l64 357h-357z" />
<glyph unicode="," horiz-adv-x="518" d="M-27 -287l170 498h205l-221 -498h-154z" />
<glyph unicode="-" d="M160 543l28 172h748l-29 -172h-747z" />
<glyph unicode="." horiz-adv-x="497" d="M45 113q10 57 53 94t103 37q55 0 88 -40t22 -95q-10 -57 -53 -94.5t-104 -37.5q-55 0 -87 40t-22 96z" />
<glyph unicode="/" horiz-adv-x="1081" d="M-51 -205l1138 1843h115l-1136 -1843h-117z" />
<glyph unicode="0" horiz-adv-x="1294" d="M131 735q59 338 234.5 531.5t443.5 193.5q256 0 370.5 -212t55.5 -548q-59 -340 -234.5 -533.5t-443.5 -193.5q-254 0 -369.5 213t-56.5 549zM322 717q-47 -268 21.5 -412.5t242.5 -144.5t293.5 144.5t167.5 412.5q47 266 -22 412.5t-243 146.5t-294.5 -146.5 t-165.5 -412.5z" />
<glyph unicode="1" horiz-adv-x="729" d="M168 1303l401 131h164l-252 -1434h-190l215 1227v-4l-320 -90z" />
<glyph unicode="2" horiz-adv-x="1079" d="M-16 0l26 156l598 516q236 197 264 348q23 121 -39.5 188.5t-168.5 67.5q-190 0 -322 -195l-152 97q188 283 496 282q180 0 296 -126t79 -328q-20 -125 -101 -229.5t-225 -227.5l-432 -365h639l-31 -184h-927z" />
<glyph unicode="3" horiz-adv-x="1095" d="M12 264l168 92q49 -197 285 -196q133 0 229.5 69.5t118.5 194.5q20 125 -50.5 195.5t-203.5 70.5h-49l-57 121l397 444h-621l29 179h860l-26 -168l-381 -424q150 -37 234.5 -150.5t55.5 -281.5q-37 -209 -195.5 -323t-363.5 -114q-162 0 -276.5 75t-153.5 216z" />
<glyph unicode="4" horiz-adv-x="1173" d="M8 272l29 179l684 983h215l-684 -983h516l72 405h190l-72 -405h175l-29 -179h-176l-47 -272h-191l47 272h-729z" />
<glyph unicode="5" horiz-adv-x="1118" d="M31 281l172 90q20 -104 96 -157.5t193 -53.5q133 0 228 69.5t118 194.5q20 125 -49.5 195.5t-202.5 70.5h-404l183 744h784l-31 -179h-606l-94 -381h205q188 0 314 -128t89 -336.5t-192.5 -322.5t-362.5 -114q-164 0 -282.5 79t-157.5 229z" />
<glyph unicode="6" horiz-adv-x="1101" d="M49 471q35 188 160 307l553 656h229l-422 -498q17 2 52 2q211 0 330.5 -142.5t80.5 -353.5q-39 -213 -193.5 -341t-377.5 -128q-213 0 -332 142.5t-80 355.5zM240 457q-25 -137 42.5 -219t205 -82t234.5 82t122 219q23 135 -45 217t-205 82q-139 0 -235.5 -81 t-118.5 -218z" />
<glyph unicode="7" horiz-adv-x="1003" d="M121 0l729 1253h-682l31 181h895l-29 -170l-735 -1264h-209z" />
<glyph unicode="8" horiz-adv-x="1138" d="M57 408q20 115 95 202.5t190 139.5q-158 117 -123 317q35 195 180.5 294t333.5 99q176 0 292 -111.5t81 -306.5q-35 -205 -232 -307q94 -57 139.5 -150t24.5 -206q-37 -197 -188.5 -301.5t-372.5 -104.5q-207 0 -330.5 120t-89.5 315zM247.5 405.5 q-20.5 -118.5 53.5 -184t205 -65.5q135 0 229 64.5t117 185.5q18 119 -56.5 183t-201.5 64q-133 0 -229.5 -64.5t-117 -183zM408 1051q-18 -109 47 -169.5t168 -60.5q111 0 192.5 60.5t99.5 169.5q20 113 -42 170t-168 57q-109 0 -193 -57.5t-104 -169.5z" />
<glyph unicode="9" horiz-adv-x="1105" d="M141 995q37 213 194 339t380 126q213 0 331.5 -143t81.5 -356q-29 -172 -147 -293l-563 -668h-230l422 500q-18 -2 -55 -2q-211 0 -331 142t-83 355zM332 979q-25 -137 43.5 -219t206 -82t235.5 82t121 219q25 137 -44 218t-206 81t-235 -82t-121 -217z" />
<glyph unicode=":" horiz-adv-x="497" d="M45 113q10 57 53 94t103 37q55 0 88 -40t22 -95q-10 -57 -53 -94.5t-104 -37.5q-55 0 -87 40t-22 96zM186 918q10 57 53.5 94t102.5 37q55 0 88 -40t23 -96q-10 -57 -53.5 -94t-104.5 -37q-55 0 -87 40t-22 96z" />
<glyph unicode=";" horiz-adv-x="526" d="M-27 -287l170 498h205l-221 -498h-154zM217 918q10 57 53 94t103 37q55 0 88 -40t22 -96q-10 -57 -53 -94t-104 -37q-55 0 -87 40t-22 96z" />
<glyph unicode="&#x3c;" horiz-adv-x="1071" d="M135 631l15 86l14 88l911 369l-37 -203l-686 -264l594 -263l-33 -182z" />
<glyph unicode="=" horiz-adv-x="1095" d="M96 424l33 170h868l-30 -170h-871zM172 840l29 170h870l-31 -170h-868z" />
<glyph unicode="&#x3e;" horiz-adv-x="1071" d="M70 262l36 203l687 262l-594 264l30 183l779 -369l-15 -88l-16 -86z" />
<glyph unicode="?" horiz-adv-x="1101" d="M207 1167q74 143 209 218t293 75q176 0 290.5 -109.5t81.5 -291.5q-14 -86 -66 -161t-116.5 -127t-129 -102.5t-115 -113.5t-62.5 -135h-189q16 94 68.5 173t117 132t128 103.5t113 110.5t61.5 126q18 102 -41 156.5t-170 54.5q-215 0 -315 -205zM311 113q10 57 53.5 94 t102.5 37q55 0 88 -40t23 -95q-10 -57 -53.5 -94.5t-104.5 -37.5q-55 0 -87 40t-22 96z" />
<glyph unicode="@" horiz-adv-x="1617" d="M80 532q53 307 303 514t569 207q160 0 287 -63.5t198.5 -165.5t100.5 -229t6 -254q-37 -217 -142.5 -321.5t-236.5 -104.5q-84 0 -141 44t-70 124q-100 -100 -237 -101q-135 0 -212 100.5t-52.5 240t129 229.5t243.5 90q125 0 197 -103l14 86h158l-80 -452 q-31 -180 96 -180q90 0 164 89t105 271q47 272 -106.5 455.5t-428.5 183.5q-287 0 -516 -191.5t-281 -482.5q-53 -295 116 -490.5t478 -195.5q205 0 359 57l-13 -65q-154 -53 -356 -53q-334 0 -521 219t-130 542zM610.5 512q-14.5 -82 30.5 -132t123 -50t140.5 50t76.5 132 t-30 132t-121.5 50t-141 -50t-78 -132z" />
<glyph unicode="A" horiz-adv-x="1316" d="M-76 0l789 1434h215l282 -1434h-200l-58 322h-645l-176 -322h-207zM403 500h517l-129 710z" />
<glyph unicode="B" horiz-adv-x="1259" d="M63 0l252 1434h545q176 0 282 -117q84 -93 85 -219q0 -32 -6 -66q-31 -193 -205 -293q86 -51 127 -140q29 -63 29 -139q0 -31 -5 -65q-25 -168 -159 -281.5t-330 -113.5h-615zM285 178h417q102 0 182 68q81 68 97 166q4 23 4 43q0 69 -42 121q-54 66 -150 67h-426z M397 817h381q90 0 164 63.5t90 155.5q4 21 4 41q0 63 -40 113q-52 64 -148 65h-373z" />
<glyph unicode="C" horiz-adv-x="1515" d="M117 737q53 311 294.5 517t549.5 206q209 0 359 -94t224 -258l-170 -90q-121 258 -424 258q-244 0 -425 -160t-222 -399q-10 -59 -10 -114q0 -167 95 -285q126 -158 366 -158q156 0 286.5 69.5t216.5 194.5l158 -100q-117 -162 -296 -256.5t-382 -94.5q-326 -1 -501 225 q-133 171 -133 392q0 71 14 147z" />
<glyph unicode="D" horiz-adv-x="1474" d="M63 0l252 1434h559q283 0 446 -218q123 -165 123 -376q1 -69 -13 -144q-54 -301 -279 -498.5t-528 -197.5h-560zM285 180h364q223 0 390 155t208 384q10 59 10 114q-1 155 -83 267q-112 152 -330 153h-369z" />
<glyph unicode="E" horiz-adv-x="1085" d="M63 0l252 1434h846l-31 -181h-655l-78 -440h604l-32 -178h-604l-80 -455h665l-30 -180h-857z" />
<glyph unicode="F" horiz-adv-x="1056" d="M63 0l252 1434h826l-33 -181h-633l-82 -465h608l-32 -180h-609l-106 -608h-191z" />
<glyph unicode="G" horiz-adv-x="1615" d="M117 745q55 309 295.5 512t556.5 203q209 0 360.5 -94t231.5 -260l-170 -90q-133 260 -435 260q-248 0 -430 -156.5t-223 -398.5q-10 -59 -10 -113q0 -168 96 -288q127 -160 383 -160q215 0 365.5 105.5t208.5 273.5h-523l31 172h719l-14 -84q-49 -283 -268.5 -468.5 t-530.5 -185.5q-336 0 -518 227q-139 171 -139 397q0 71 14 148z" />
<glyph unicode="H" horiz-adv-x="1382" d="M63 0l252 1434h191l-107 -609h697l106 609h189l-252 -1434h-189l113 645h-696l-113 -645h-191z" />
<glyph unicode="I" horiz-adv-x="497" d="M63 0l252 1434h191l-252 -1434h-191z" />
<glyph unicode="J" horiz-adv-x="1140" d="M29 238l172 92q51 -170 264 -170q137 0 225 65.5t111 194.5l178 1014h190l-178 -1018q-41 -225 -189 -334t-353 -109q-328 0 -420 265z" />
<glyph unicode="K" horiz-adv-x="1208" d="M63 0l252 1434h191l-113 -646l711 646h242l-771 -707l529 -727h-213l-512 705l-125 -705h-191z" />
<glyph unicode="L" horiz-adv-x="999" d="M63 0l252 1434h191l-221 -1254h620l-33 -180h-809z" />
<glyph unicode="M" horiz-adv-x="1648" d="M63 0l252 1434h209l316 -766l594 766h223l-252 -1434h-188l196 1114l-604 -774h-25l-331 793l-199 -1133h-191z" />
<glyph unicode="N" horiz-adv-x="1388" d="M63 0l252 1434h146l559 -1076l186 1076h191l-252 -1434h-146l-557 1075l-188 -1075h-191z" />
<glyph unicode="O" horiz-adv-x="1644" d="M117 737q53 311 296.5 517t565.5 206q309 0 491 -230q141 -178 142 -404q0 -67 -13 -138q-55 -311 -297.5 -513t-568.5 -202q-309 -1 -491 227q-138 173 -139 393q0 69 14 144zM305 717q-10 -57 -10 -109q0 -166 98 -288q129 -160 367 -160q242 0 425 156 q183 154 224 392q10 57 10 110q0 168 -100 293q-131 165 -370.5 165t-421 -160t-222.5 -399z" />
<glyph unicode="P" horiz-adv-x="1206" d="M63 0l252 1434h506q209 0 319 -134q85 -103 84 -245q0 -41 -7 -86q-33 -201 -185.5 -329t-390.5 -128h-297l-90 -512h-191zM375 690h287q150 0 247.5 84t120.5 215q6 33 6 62q0 81 -46 133q-64 72 -193 71h-322z" />
<glyph unicode="Q" horiz-adv-x="1654" d="M117 737q53 311 297.5 517t564.5 206q309 0 491 -230q141 -179 141 -406q0 -66 -12 -136q-51 -299 -284 -500l115 -141l-140 -115l-125 152q-201 -111 -432 -111q-307 0 -491 227q-139 173 -139 393q0 70 14 144zM305 717q-10 -57 -10 -109q0 -166 98 -288 q129 -160 367 -160h4q152 0 285 67l-240 293l141 113l250 -305q168 156 209 381q10 57 10 109q0 168 -100 294q-131 164 -370.5 164t-421 -160t-222.5 -399z" />
<glyph unicode="R" horiz-adv-x="1251" d="M63 0l252 1434h570q179 0 291 -140q87 -109 87 -244q0 -39 -8 -81q-27 -145 -125 -251t-239 -147l233 -571h-196l-221 549h-357l-96 -549h-191zM381 721h383q111 0 199 78.5t106 189.5q5 27 5 52q0 79 -48 137q-63 78 -172 77h-379z" />
<glyph unicode="S" horiz-adv-x="1198" d="M39 326l168 88q55 -256 352 -256q139 0 228.5 56t109.5 153q5 23 5 44q0 31 -10 57q-18 44 -69 77t-96 52t-127 46q-90 31 -152.5 62.5t-126 84t-87.5 128.5q-13 43 -13 94q0 39 8 82q35 178 178.5 272t319.5 94t292 -86t165 -225l-168 -86q-78 213 -303 213 q-106 0 -189.5 -52.5t-103.5 -144.5q-5 -21 -5 -41q0 -23 7 -44q12 -38 34.5 -64.5t68.5 -52t83 -41t101 -37.5q74 -27 116.5 -44.5t108 -57.5t99.5 -83q35 -42 53 -112q10 -36 9 -77q0 -37 -8 -79q-35 -180 -183 -276.5t-355 -96.5q-205 0 -337 93.5t-173 259.5z" />
<glyph unicode="T" horiz-adv-x="1105" d="M168 1253l31 181h1034l-31 -181h-424l-221 -1253h-188l221 1253h-422z" />
<glyph unicode="U" horiz-adv-x="1341" d="M129 481l166 953h190l-166 -945q-7 -40 -7 -77q0 -98 53 -162q73 -90 241 -90q170 0 276.5 91t133.5 238l166 945h188l-166 -953q-43 -240 -207 -374t-397 -134q-246 -1 -378 141q-102 109 -102 269q0 47 9 98z" />
<glyph unicode="V" horiz-adv-x="1261" d="M178 1434h193l200 -1203l623 1203h215l-760 -1434h-215z" />
<glyph unicode="W" horiz-adv-x="2048" d="M213 1434h188l123 -1184l557 1184h193l141 -1184l541 1184h203l-664 -1434h-221l-139 1145l-541 -1145h-221z" />
<glyph unicode="X" horiz-adv-x="1208" d="M-55 0l594 750l-314 684h201l240 -525l417 525h224l-557 -705l333 -729h-200l-262 569l-451 -569h-225z" />
<glyph unicode="Y" horiz-adv-x="1196" d="M178 1434h199l266 -600l475 600h223l-624 -779l-115 -655h-190l116 659z" />
<glyph unicode="Z" horiz-adv-x="1075" d="M-10 0l28 166l881 1087h-670l31 181h901l-28 -164l-881 -1090h706l-32 -180h-936z" />
<glyph unicode="[" horiz-adv-x="593" d="M-10 -205l327 1843h435l-29 -172h-258l-264 -1499h258l-33 -172h-436z" />
<glyph unicode="\" horiz-adv-x="1081" d="M276 1638h107l494 -1843h-107z" />
<glyph unicode="]" horiz-adv-x="593" d="M-86 -205l31 172h258l264 1499h-256l29 172h436l-326 -1843h-436z" />
<glyph unicode="^" horiz-adv-x="1064" d="M131 799l481 635h160l260 -635h-190l-172 434l-328 -434h-211z" />
<glyph unicode="_" horiz-adv-x="1064" d="M-68 -309l29 172h911l-28 -172h-912z" />
<glyph unicode="`" horiz-adv-x="462" d="M203 1434l162 -271h172l-123 271h-211z" />
<glyph unicode="a" horiz-adv-x="1298" d="M82 535q41 236 207 376t375 140q127 0 226 -56.5t152 -160.5l33 190h178l-180 -1024h-178l27 145q-160 -172 -410 -172q-219 0 -345 168q-95 127 -95 287q0 52 10 107zM260 520q-7 -39 -7 -76q-1 -108 65 -190q88 -108 243.5 -108.5t275 101t146.5 257.5q9 45 9 86 q0 114 -70 188q-94 100 -246 101q-145 0 -266 -95.5t-150 -263.5z" />
<glyph unicode="b" horiz-adv-x="1296" d="M45 0l252 1434h178l-100 -572q161 189 413 189q215 0 342 -161q97 -124 98 -285q0 -49 -10 -101q-38 -225 -206 -378t-400 -153q-125 0 -216 58.5t-140 158.5l-33 -190h-178zM313 512q-6 -37 -6 -71q1 -111 67 -191q88 -106 240 -105q158 0 277.5 107.5t148.5 267.5 q7 38 7 72q0 108 -65 186q-85 102 -241 101q-154 0 -276.5 -104.5t-151.5 -262.5z" />
<glyph unicode="c" horiz-adv-x="1124" d="M82 535q39 225 213 370.5t403 145.5q154 0 266.5 -73t157.5 -194l-157 -82q-68 174 -281 175q-156 0 -275.5 -101.5t-148.5 -255.5q-7 -41 -8 -78q0 -108 63 -186q84 -106 240 -106q104 0 191.5 49t142.5 133l143 -94q-78 -125 -210 -195t-290 -70q-229 0 -360 165 q-100 126 -100 290q0 52 10 107z" />
<glyph unicode="d" horiz-adv-x="1300" d="M82 535q41 236 207 376t375 140q127 0 227 -57.5t151 -162.5l107 603h178l-252 -1434h-178l27 147q-162 -174 -412 -174q-219 0 -345 168q-95 127 -95 287q0 52 10 107zM260 520q-7 -39 -7 -76q-1 -108 65 -190q88 -108 243.5 -108.5t276 101t147.5 257.5q8 43 8 82 q-1 116 -71 192q-94 100 -244 101q-147 0 -268 -95.5t-150 -263.5z" />
<glyph unicode="e" horiz-adv-x="1196" d="M82 532q39 223 211 371t397 148q231 0 355 -159q92 -118 92 -271q0 -53 -11 -111q-4 -33 -20 -80h-856q0 -137 85 -213t226 -76q207 0 326 152l133 -96q-78 -106 -206 -165t-273 -59q-242 0 -371 162q-98 123 -98 288q0 52 10 109zM276 588h682v20q0 130 -72 200 q-78 75 -206 75q-143 0 -251 -79t-153 -216z" />
<glyph unicode="f" horiz-adv-x="663" d="M109 852l30 172h164l6 31q39 211 171 315q115 92 296 92q26 0 53 -2l-32 -172q-22 2 -42 2q-224 0 -268 -235l-6 -31h271l-31 -172h-268l-152 -852h-178l151 852h-165z" />
<glyph unicode="g" horiz-adv-x="1300" d="M37 -186l158 82q70 -166 309 -166q168 0 271.5 82t129.5 231l21 121q-154 -180 -400 -180q-233 0 -357 162q-96 126 -96 291q0 49 9 102q35 225 203 368.5t377 143.5q127 0 228 -56.5t152 -163.5l35 193h176l-172 -981q-41 -233 -201.5 -356t-385.5 -123 q-164 0 -284 65.5t-173 184.5zM260 524q-6 -37 -6 -72q0 -111 66 -191q87 -105 247 -105q147 0 264 91t152 240l10 54q3 25 3 48q0 123 -81 200q-96 92 -237 92q-147 0 -270 -97.5t-148 -259.5z" />
<glyph unicode="h" horiz-adv-x="1155" d="M45 0l252 1434h178l-96 -545q133 162 350 162q179 0 273 -115q69 -85 70 -212q0 -45 -9 -95l-111 -629h-178l109 618q7 38 7 71q0 76 -38 124q-54 68 -176 68q-131 0 -229.5 -83t-127.5 -255v2l-96 -545h-178z" />
<glyph unicode="i" horiz-adv-x="450" d="M45 0l180 1024h178l-180 -1024h-178zM250 1329q8 51 47 86t92 35q49 0 79 -36q23 -28 23 -63q0 -11 -2 -22q-10 -51 -49 -85t-92 -34q-50 0 -78 35q-22 27 -22 63q0 10 2 21z" />
<glyph unicode="j" horiz-adv-x="493" d="M-203 -436l31 172q19 -2 37 -2q83 0 133 39q62 47 82 166l190 1085h179l-191 -1085q-37 -215 -150 -303q-97 -74 -255 -74q-27 0 -56 2zM293 1329q8 49 48 85t91 36t81 -36q22 -26 22 -60q0 -12 -3 -25q-8 -51 -48 -85t-93 -34q-49 0 -77 35q-23 27 -23 63q0 10 2 21z " />
<glyph unicode="k" horiz-adv-x="1028" d="M45 0l252 1434h178l-149 -854l514 444h229l-577 -496l415 -528h-205l-391 504l-88 -504h-178z" />
<glyph unicode="l" horiz-adv-x="452" d="M47 0l109 623l153 872h178l-262 -1495h-178z" />
<glyph unicode="m" horiz-adv-x="1738" d="M45 0l180 1024h178l-22 -123q131 150 324 150q207 0 274 -179q139 179 352 179q164 0 256 -113q69 -85 70 -213q0 -42 -8 -88l-113 -637h-178l110 631q6 35 6 66q0 73 -34 119q-48 64 -154 65q-113 0 -194.5 -75t-110.5 -231l-100 -575h-179l111 631q6 37 6 68 q0 71 -32 117q-46 64 -146 65q-113 0 -201 -76t-114 -230v3l-103 -578h-178z" />
<glyph unicode="n" horiz-adv-x="1155" d="M45 0l180 1024h178l-24 -135q133 162 350 162q179 0 273 -115q69 -85 70 -212q0 -45 -9 -95l-111 -629h-178l109 618q7 38 7 71q0 76 -38 124q-54 68 -176 68q-131 0 -229.5 -83t-127.5 -255v2l-96 -545h-178z" />
<glyph unicode="o" horiz-adv-x="1234" d="M80 530q43 238 225 379.5t406 141.5q219 0 352 -158q102 -121 102 -288q0 -51 -10 -107q-41 -242 -219 -383.5t-397 -141.5q-227 0 -365 158q-105 120 -104 289q0 53 10 110zM258 512q-7 -42 -7 -80q-1 -116 67 -190q88 -96 229 -95h6q150 0 273.5 98.5t152.5 270.5 q7 41 7 77q0 113 -68 187q-90 98 -236 97q-145 -2 -268 -98.5t-156 -266.5z" />
<glyph unicode="p" horiz-adv-x="1298" d="M-27 -410l252 1434h178l-26 -152q159 179 409 179q217 0 344 -167q98 -129 98 -291q0 -49 -9 -101q-41 -236 -206 -377.5t-374 -141.5q-127 0 -228.5 57.5t-152.5 164.5l-106 -605h-179zM315 522q-8 -44 -8 -83q0 -118 71 -193q93 -101 247 -101q145 0 265.5 95.5 t149.5 263.5q6 38 6 73q0 111 -65 193q-86 109 -241.5 109t-276.5 -100.5t-148 -256.5z" />
<glyph unicode="q" horiz-adv-x="1298" d="M82 535q41 236 207 376t375 140q127 0 226 -56.5t152 -160.5l33 190h178l-252 -1434h-178l99 555q-160 -172 -410 -172q-219 0 -345 168q-95 127 -95 287q0 52 10 107zM260 520q-7 -39 -7 -76q0 -109 65 -190q88 -109 243.5 -109t275 100.5t146.5 256.5q9 45 9 86 q0 114 -70 190q-93 101 -246 101q-145 0 -266 -95.5t-150 -263.5z" />
<glyph unicode="r" horiz-adv-x="673" d="M45 0l180 1024h178l-26 -150q125 168 335 168h15l-33 -186h-13q-123 0 -225 -70q-108 -74 -137 -243v2l-96 -545h-178z" />
<glyph unicode="s" horiz-adv-x="968" d="M37 221l160 82q16 -72 78.5 -117t158.5 -45q90 0 150.5 35t72.5 100q2 10 2 20q-1 32 -21 56q-26 31 -74 50.5t-106.5 38t-115.5 43t-102 56.5q-46 34 -68 92q-14 36 -13 79q0 27 5 57q23 125 132.5 204t256.5 79q262 0 356 -213l-157 -82q-41 129 -207 129 q-72 0 -131.5 -34t-71.5 -101q-2 -10 -1 -19q0 -47 43 -79q52 -38 133 -62.5t161 -55t127 -100.5q34 -50 34 -121q0 -27 -5 -57q-25 -135 -135.5 -209t-278.5 -74q-152 0 -249 66.5t-134 181.5z" />
<glyph unicode="t" horiz-adv-x="776" d="M98 852l33 172h201l41 233l188 54l-51 -287h274l-30 -172h-273l-98 -555q-5 -26 -5 -46q0 -39 18 -61q26 -32 86 -33h26q53 0 125 3l-29 -160q-69 -9 -126 -9q-132 0 -204 49q-78 54 -77 173q0 38 8 84l96 555h-203z" />
<glyph unicode="u" horiz-adv-x="1155" d="M92 395l111 629h178l-109 -618q-7 -38 -7 -71q-1 -76 37 -124q54 -68 177 -68q131 0 229.5 83t127.5 255v-2l96 545h178l-180 -1024h-178l24 135q-133 -162 -350 -162q-180 0 -274 115q-69 85 -69 212q0 45 9 95z" />
<glyph unicode="v" horiz-adv-x="983" d="M106 1024h181l143 -821l430 821h199l-557 -1024h-201z" />
<glyph unicode="w" horiz-adv-x="1583" d="M141 1024h176l95 -778l372 778h179l-2 -4l106 -776l360 780h195l-500 -1024h-182l-104 760l-369 -760h-186z" />
<glyph unicode="x" d="M-59 0l485 535l-283 489h197l207 -356l323 356h222l-459 -506l301 -518h-197l-225 387l-350 -387h-221z" />
<glyph unicode="y" d="M6 -410l29 166q13 -1 26 -1q80 0 141 44q70 51 136 162l31 49l-263 1014h181l202 -809l443 809h198l-608 -1087q-193 -348 -481 -348q-18 0 -35 1z" />
<glyph unicode="z" horiz-adv-x="923" d="M-14 0l22 119l645 735h-495l30 170h748l-23 -119l-645 -735h537l-29 -170h-790z" />
<glyph unicode="{" horiz-adv-x="731" d="M123 633l33 172q102 -2 154 32.5t71 143.5l57 330q37 203 147.5 283.5t305.5 64.5l-31 -172q-111 12 -167 -26t-77 -150l-57 -330q-20 -119 -66.5 -180.5t-125.5 -87.5q135 -57 100 -256l-57 -330q-20 -113 22.5 -150.5t155.5 -25.5l-29 -172q-188 -16 -274 75t-54 273 l58 330q18 111 -22 144.5t-144 31.5z" />
<glyph unicode="|" horiz-adv-x="485" d="M-8 -410l332 1885h178l-332 -1885h-178z" />
<glyph unicode="}" horiz-adv-x="729" d="M-88 -221l31 172q111 -12 167 25.5t76 150.5l58 330q20 119 66 180t126 88q-135 57 -100 256l57 330q20 113 -22.5 150.5t-155.5 25.5l29 172q188 16 274 -75t53 -273l-57 -330q-18 -111 21.5 -144.5t144.5 -31.5l-33 -172q-102 2 -154.5 -33t-70.5 -143l-57 -330 q-37 -203 -148 -284t-305 -64z" />
<glyph unicode="~" horiz-adv-x="1220" d="M135 637q74 186 219.5 231t319.5 -65q143 -86 215 -68.5t127 133.5l141 -73q-74 -186 -217 -231.5t-322 67.5q-141 84 -215 66.5t-129 -132.5z" />
<glyph unicode="&#xa2;" horiz-adv-x="1124" d="M119 739q39 225 213 370.5t403 145.5q49 0 107 -10l92 189h115l-109 -220q162 -70 219 -225l-158 -82q-37 100 -139 148l-342 -695q33 -6 72 -6q104 0 191 49.5t143 133.5l143 -95q-78 -125 -210 -194.5t-290 -69.5q-66 0 -131 17l-96 -195h-115l115 233 q-129 68 -190.5 205t-32.5 301zM297 725q-18 -106 15.5 -193.5t111.5 -134.5l336 682q-12 2 -39 2q-156 0 -275.5 -101t-148.5 -255z" />
<glyph unicode="&#xa3;" horiz-adv-x="1196" d="M-14 0l32 184h181l69 398h-143l31 168h143l47 272q39 217 167 327.5t314 110.5q137 0 239.5 -75.5t143.5 -206.5l-161 -86q-35 92 -92.5 138t-151.5 46q-100 0 -174 -63.5t-96 -190.5l-48 -272h455l-31 -168h-454l-70 -398h723l-33 -184h-1091z" />
<glyph unicode="&#xa5;" horiz-adv-x="1196" d="M119 340l22 135h355l20 113h-354l22 133h316l-322 713h199l266 -600l475 600h223l-571 -713h315l-22 -133h-358l-19 -113h356l-22 -135h-358l-60 -340h-190l59 340h-352z" />
<glyph unicode="&#xa8;" horiz-adv-x="671" d="M176 1268q6 45 43 75.5t82 30.5t70.5 -30.5t19.5 -75.5q-10 -45 -46 -77t-81 -32t-70.5 32t-17.5 77zM565 1268q6 45 43 75.5t82 30.5t70.5 -30.5t19.5 -75.5q-10 -45 -46 -77t-81 -32t-70.5 32t-17.5 77z" />
<glyph unicode="&#xa9;" horiz-adv-x="1636" d="M117 729q53 307 303 518t561 211q303 0 485.5 -223t128.5 -530q-55 -307 -305 -518.5t-561 -211.5q-303 0 -485.5 223.5t-126.5 530.5zM182 717q-51 -281 112.5 -480.5t442.5 -199.5q283 0 512.5 197.5t278.5 482.5q49 283 -115 481.5t-440 198.5q-283 0 -512.5 -198 t-278.5 -482zM460.5 731q28.5 166 158 273.5t299.5 107.5q104 0 189 -53t128 -141l-145 -74q-61 109 -195 108q-104 0 -178 -69.5t-90 -165.5q-18 -94 33 -165t149 -71q68 0 128 31t97 86l133 -84q-66 -90 -164.5 -141t-211.5 -51q-164 0 -261.5 121.5t-69 287.5z" />
<glyph unicode="&#xab;" horiz-adv-x="1050" d="M160 633l286 375h203l-293 -385l154 -363h-193zM508 631l289 377h202l-294 -387l153 -361h-192z" />
<glyph unicode="&#xad;" d="M160 543l28 172h748l-29 -172h-747z" />
<glyph unicode="&#xae;" horiz-adv-x="1636" d="M117 729q53 307 303 518t561 211q303 0 485.5 -223t128.5 -530q-55 -307 -305 -518.5t-561 -211.5q-303 0 -485.5 223.5t-126.5 530.5zM182 717q-51 -281 113 -480.5t442 -199.5q283 0 512.5 197.5t278.5 482.5q49 283 -115 481.5t-440 198.5q-283 0 -512.5 -198 t-278.5 -482zM545 338l133 758h264q127 0 191.5 -77t46.5 -183q-27 -160 -168 -215l106 -283h-164l-88 256h-14h-104l-46 -256h-157zM772 737h107q123 1 143 105q18 106 -107 106h-106z" />
<glyph unicode="&#xb4;" horiz-adv-x="458" d="M156 1163h176l248 271h-220z" />
<glyph unicode="&#xb8;" horiz-adv-x="512" d="M-127 -442l25 135q268 -20 284 63q6 37 -37 55.5t-120 18.5l28 170h154l-17 -92q74 -16 115 -64.5t29 -111.5q-35 -205 -461 -174z" />
<glyph unicode="&#xbb;" horiz-adv-x="1052" d="M94 258l295 387l-153 361h192l158 -371l-289 -377h-203zM444 258l293 385l-153 363h192l158 -373l-287 -375h-203z" />
<glyph unicode="&#x2c6;" horiz-adv-x="712" d="M154 1157l264 277h196l170 -277h-184l-96 166l-156 -166h-194z" />
<glyph unicode="&#x2da;" horiz-adv-x="544" d="M186 1343q16 92 89 151.5t174 59.5q104 0 158.5 -66.5t39.5 -158.5q-16 -92 -89 -151.5t-175 -59.5t-157.5 65.5t-39.5 159.5zM319 1337q-6 -41 14.5 -67.5t65.5 -26.5t77 26.5t38 65.5q8 43 -14.5 69t-65.5 26q-94 0 -115 -93z" />
<glyph unicode="&#x2dc;" horiz-adv-x="696" d="M162 1174q18 133 77.5 198.5t132 62.5t142.5 -59q63 -61 101 -56t55 103h151q-18 -131 -77.5 -197.5t-131 -62.5t-141.5 60q-63 61 -102 56t-56 -105h-151z" />
<glyph unicode="&#x401;" horiz-adv-x="1085" d="M63 0l252 1434h846l-31 -181h-655l-78 -440h604l-32 -178h-604l-80 -455h665l-30 -180h-857zM481 1677q6 45 43 76t82 31t70.5 -31t19.5 -76q-10 -45 -46 -76.5t-81 -31.5t-70.5 31.5t-17.5 76.5zM870 1677q6 45 43 76t82 31t71 -31t19 -76q-10 -45 -45.5 -76.5 t-81 -31.5t-71 31.5t-17.5 76.5z" />
<glyph unicode="&#x402;" horiz-adv-x="1413" d="M168 1253l31 181h1018l-31 -181h-443l-63 -352q155 62 305 62q178 0 272.5 -101.5t63.5 -292.5l-37 -213q-37 -203 -148.5 -296t-312.5 -78l31 176q109 -10 164 36t76 162l36 205q20 125 -28.5 177.5t-159.5 52.5q-145 0 -293 -68l-127 -723h-190l221 1253h-385z" />
<glyph unicode="&#x403;" horiz-adv-x="993" d="M63 0l252 1434h805l-30 -181h-615l-221 -1253h-191zM627 1571l204 270h220l-248 -270h-176z" />
<glyph unicode="&#x404;" horiz-adv-x="1515" d="M117 737q53 311 294.5 517t549.5 206q209 0 359 -94t224 -258l-170 -90q-121 258 -424 258q-217 0 -389 -131t-235 -338h739l-33 -178h-739q-6 -207 120 -338t341 -131q156 0 286.5 69.5t216.5 194.5l158 -100q-117 -162 -296 -256.5t-382 -94.5q-326 0 -501 225.5 t-119 538.5z" />
<glyph unicode="&#x405;" horiz-adv-x="1198" d="M39 326l168 88q55 -256 352 -256q139 0 228.5 56t109.5 153q12 57 -5.5 101t-68.5 77t-96 52t-127 46q-90 31 -152.5 62.5t-126 84t-87 129t-5.5 175.5q35 178 178.5 272t319.5 94t292 -86t165 -225l-168 -86q-78 213 -303 213q-106 0 -189.5 -52.5t-103.5 -144.5 q-10 -47 2 -85t34.5 -64.5t68.5 -52t83 -41t101 -37.5q74 -27 116.5 -44.5t108 -57.5t99.5 -83t52.5 -112.5t1.5 -155.5q-35 -180 -183 -276.5t-355 -96.5q-205 0 -337 93.5t-173 259.5z" />
<glyph unicode="&#x406;" horiz-adv-x="497" d="M63 0l252 1434h191l-252 -1434h-191z" />
<glyph unicode="&#x407;" horiz-adv-x="497" d="M63 0l252 1434h191l-252 -1434h-191zM152 1677q6 45 42.5 76t82 31t71 -31t19.5 -76q-10 -45 -46 -76.5t-81 -31.5t-71 31.5t-17 76.5zM541 1677q6 45 43 76t82 31t70.5 -31t19.5 -76q-10 -45 -46 -76.5t-81 -31.5t-71 31.5t-17 76.5z" />
<glyph unicode="&#x408;" horiz-adv-x="1140" d="M29 238l172 92q51 -170 264 -170q137 0 225 65.5t111 194.5l178 1014h190l-178 -1018q-41 -225 -189 -334t-353 -109q-328 0 -420 265z" />
<glyph unicode="&#x409;" horiz-adv-x="2017" d="M-61 -2l28 172q141 -18 228.5 81t136.5 370l141 813h895l-102 -588h288q182 0 294 -128t79 -310.5t-179 -295t-343 -112.5h-479l221 1253h-514l-113 -632q-35 -199 -92 -331t-136 -195.5t-162 -85t-191 -11.5zM1147 178h291q109 0 194 68.5t105 179.5q20 109 -41.5 175.5 t-171.5 66.5h-291z" />
<glyph unicode="&#x40a;" horiz-adv-x="1992" d="M63 0l252 1434h191l-103 -588h650l102 588h191l-103 -588h289q182 0 292.5 -128t78 -310.5t-179 -295t-341.5 -112.5h-479l117 668h-649l-117 -668h-191zM1124 178h289q111 0 196 68.5t105 179.5q20 109 -42 175.5t-173 66.5h-289z" />
<glyph unicode="&#x40b;" horiz-adv-x="1423" d="M168 1253l31 181h1018l-31 -181h-443l-63 -350q152 60 299 60q182 0 277.5 -101.5t64.5 -292.5l-100 -569h-191l100 561q20 125 -30.5 177.5t-161.5 52.5q-147 0 -289 -68l-127 -723h-190l221 1253h-385z" />
<glyph unicode="&#x40c;" horiz-adv-x="1208" d="M63 0l252 1434h191l-113 -646l711 646h242l-771 -707l529 -727h-213l-512 705l-125 -705h-191zM668 1571l204 270h220l-248 -270h-176z" />
<glyph unicode="&#x40e;" horiz-adv-x="1187" d="M143 0l31 172q117 -8 197 39t147 162l23 39l-322 1022h182l256 -822l478 822h194l-633 -1094q-113 -193 -243.5 -271.5t-309.5 -68.5zM518 1585l27 156h553l-27 -156h-553z" />
<glyph unicode="&#x40f;" horiz-adv-x="1347" d="M63 0l252 1434h191l-221 -1254h659l221 1254h191l-252 -1434h-426l-49 -274h-189l49 274h-426z" />
<glyph unicode="&#x410;" horiz-adv-x="1316" d="M-76 0l789 1434h215l282 -1434h-200l-58 322h-645l-176 -322h-207zM403 500h517l-129 710z" />
<glyph unicode="&#x411;" horiz-adv-x="1202" d="M63 0l252 1434h861l-31 -181h-670l-67 -383h348q178 0 288.5 -135t78 -319.5t-177 -300t-343.5 -115.5h-539zM285 178h348q109 0 197 74t108 184q20 115 -43 185.5t-172 70.5h-348z" />
<glyph unicode="&#x412;" horiz-adv-x="1259" d="M63 0l252 1434h545q176 0 282 -117t79 -285q-31 -193 -205 -293q86 -51 127 -140t24 -204q-25 -168 -159 -281.5t-330 -113.5h-615zM285 178h417q102 0 182.5 67.5t96.5 166t-38 165t-150 66.5h-426zM397 817h381q90 0 164 63.5t90 155.5q16 90 -36 154.5t-148 64.5h-373 z" />
<glyph unicode="&#x413;" horiz-adv-x="993" d="M63 0l252 1434h805l-30 -181h-615l-221 -1253h-191z" />
<glyph unicode="&#x414;" horiz-adv-x="1423" d="M-106 -274l79 454h123q164 168 223 504l132 750h915l-221 -1254h153l-79 -454h-189l49 274h-948l-49 -274h-188zM319 180h637l189 1075h-535l-102 -575q-60 -334 -189 -500z" />
<glyph unicode="&#x415;" horiz-adv-x="1085" d="M63 0l252 1434h846l-31 -181h-655l-78 -440h604l-32 -178h-604l-80 -455h665l-30 -180h-857z" />
<glyph unicode="&#x416;" horiz-adv-x="1777" d="M-55 0l710 752l-440 682h201l426 -656l114 656h191l-115 -654l625 654h229l-684 -715l451 -719h-201l-436 688l-121 -688h-190l120 686l-649 -686h-231z" />
<glyph unicode="&#x417;" horiz-adv-x="1157" d="M31 303l172 88q29 -113 98.5 -175t220.5 -62q145 0 238.5 69.5t113.5 179.5q18 111 -46 175.5t-203 64.5h-168l30 174h119q133 0 222.5 67.5t107.5 172.5q18 100 -46.5 162.5t-191.5 62.5q-213 0 -344 -217l-151 100q176 295 528 295q201 0 312.5 -121t80.5 -297 q-35 -211 -233 -307q100 -51 145 -144t25 -212q-33 -186 -179.5 -296t-389.5 -110q-193 0 -306.5 92.5t-154.5 237.5z" />
<glyph unicode="&#x418;" horiz-adv-x="1388" d="M63 0l252 1434h191l-189 -1055l926 1055h154l-252 -1434h-191l187 1055l-924 -1055h-154z" />
<glyph unicode="&#x419;" horiz-adv-x="1388" d="M63 0l252 1434h191l-189 -1055l926 1055h154l-252 -1434h-191l187 1055l-924 -1055h-154zM600 1587l27 156h553l-27 -156h-553z" />
<glyph unicode="&#x41a;" horiz-adv-x="1208" d="M63 0l252 1434h191l-113 -646l711 646h242l-771 -707l529 -727h-213l-512 705l-125 -705h-191z" />
<glyph unicode="&#x41b;" horiz-adv-x="1411" d="M-61 -2l28 172q141 -18 228.5 81t136.5 370l141 813h946l-252 -1434h-190l221 1253h-565l-113 -632q-35 -201 -94 -333t-138 -195.5t-161 -84t-188 -10.5z" />
<glyph unicode="&#x41c;" horiz-adv-x="1648" d="M63 0l252 1434h209l316 -766l594 766h223l-252 -1434h-188l196 1114l-604 -774h-25l-331 793l-199 -1133h-191z" />
<glyph unicode="&#x41d;" horiz-adv-x="1382" d="M63 0l252 1434h191l-107 -609h697l106 609h189l-252 -1434h-189l113 645h-696l-113 -645h-191z" />
<glyph unicode="&#x41e;" horiz-adv-x="1644" d="M117 737q53 311 296.5 517t565.5 206q309 0 491.5 -230.5t128.5 -541.5q-55 -311 -297.5 -513t-568.5 -202q-309 0 -491.5 227.5t-124.5 536.5zM305 717q-41 -236 88 -396.5t367 -160.5q242 0 425 155.5t224 393t-90 402.5t-370.5 165t-421 -160t-222.5 -399z" />
<glyph unicode="&#x41f;" horiz-adv-x="1347" d="M63 0l252 1434h1041l-252 -1434h-191l222 1253h-660l-221 -1253h-191z" />
<glyph unicode="&#x420;" horiz-adv-x="1206" d="M63 0l252 1434h506q209 0 318.5 -133.5t77.5 -331.5q-33 -201 -185.5 -329t-390.5 -128h-297l-90 -512h-191zM375 690h287q150 0 247.5 84t120.5 215q23 123 -40.5 194.5t-192.5 71.5h-322z" />
<glyph unicode="&#x421;" horiz-adv-x="1515" d="M117 737q53 311 294.5 517t549.5 206q209 0 359 -94t224 -258l-170 -90q-121 258 -424 258q-244 0 -425 -160t-222 -399q-41 -242 85 -399.5t366 -157.5q156 0 286.5 69.5t216.5 194.5l158 -100q-117 -162 -296 -256.5t-382 -94.5q-326 0 -501 225.5t-119 538.5z" />
<glyph unicode="&#x422;" horiz-adv-x="1105" d="M168 1253l31 181h1034l-31 -181h-424l-221 -1253h-188l221 1253h-422z" />
<glyph unicode="&#x423;" horiz-adv-x="1187" d="M143 0l31 172q117 -8 197 39t147 162l23 39l-322 1022h182l256 -822l478 822h194l-633 -1094q-113 -193 -243.5 -271.5t-309.5 -68.5z" />
<glyph unicode="&#x424;" horiz-adv-x="1660" d="M96 729q43 250 253 393.5t523 159.5l29 162h186l-28 -164q293 -25 457.5 -177.5t121.5 -397.5q-45 -250 -253.5 -393.5t-524.5 -159.5l-29 -162h-186l29 164q-297 25 -459 177t-119 398zM285 717q-33 -178 78.5 -275.5t341.5 -113.5l137 780q-233 -16 -379.5 -113.5 t-177.5 -277.5zM891 328q233 16 378.5 112.5t178.5 276.5q31 180 -81 277.5t-339 113.5z" />
<glyph unicode="&#x425;" horiz-adv-x="1208" d="M-55 0l594 750l-314 684h201l240 -525l417 525h224l-557 -705l333 -729h-200l-262 569l-451 -569h-225z" />
<glyph unicode="&#x426;" horiz-adv-x="1413" d="M63 0l252 1434h191l-221 -1254h661l219 1254h191l-221 -1254h153l-80 -454h-188l47 274h-1004z" />
<glyph unicode="&#x427;" horiz-adv-x="1286" d="M195 922l90 512h190l-88 -500q-23 -125 41 -190.5t229.5 -65.5t325.5 63l121 693h190l-252 -1434h-190l96 551q-150 -53 -315 -53q-242 0 -356.5 116.5t-81.5 307.5z" />
<glyph unicode="&#x428;" horiz-adv-x="1941" d="M63 0l252 1434h191l-221 -1254h532l221 1254h189l-219 -1254h532l219 1254h191l-252 -1434h-1635z" />
<glyph unicode="&#x429;" horiz-adv-x="2007" d="M63 0l252 1434h191l-221 -1254h532l221 1254h189l-219 -1254h532l219 1254h191l-221 -1254h153l-80 -454h-190l49 274h-1598z" />
<glyph unicode="&#x42a;" horiz-adv-x="1429" d="M131 1253l31 181h563l-90 -512h321q190 0 306 -143.5t84 -338.5q-35 -199 -183.5 -319.5t-359.5 -120.5h-518l219 1253h-373zM506 178h328q119 0 210 80t113.5 203t-43 202.5t-188.5 79.5h-322z" />
<glyph unicode="&#x42b;" horiz-adv-x="1626" d="M63 0l252 1434h191l-92 -512h321q190 0 307 -143.5t84 -338.5q-35 -201 -184 -320.5t-360 -119.5h-519zM285 178h327q121 0 211 80t112.5 203t-42 202.5t-186.5 79.5h-322zM1192 0l252 1434h190l-252 -1434h-190z" />
<glyph unicode="&#x42c;" horiz-adv-x="1210" d="M63 0l252 1434h191l-90 -512h319q190 0 307 -143.5t84 -338.5q-35 -201 -184 -320.5t-360 -119.5h-519zM285 178h327q121 0 211 80t112.5 203t-42 202.5t-186.5 79.5h-322z" />
<glyph unicode="&#x42d;" horiz-adv-x="1503" d="M39 328l174 92q45 -123 153.5 -191.5t266.5 -68.5q219 0 385 131t231 338h-737l33 178h735q10 209 -111.5 339t-337.5 130q-160 0 -290.5 -74t-212.5 -196l-158 98q113 162 295 259t387 97q322 0 490.5 -223t117.5 -537q-51 -309 -284.5 -518t-559.5 -209 q-211 0 -361.5 94.5t-215.5 260.5z" />
<glyph unicode="&#x42e;" horiz-adv-x="2144" d="M63 0l252 1434h191l-107 -607h246q80 279 309.5 456t524.5 177q309 0 491 -230.5t127 -541.5q-55 -309 -299 -512t-565 -203q-285 0 -460 196t-159 478h-245l-115 -647h-191zM805 717q-43 -236 87 -396.5t368 -160.5q242 0 425 156.5t224 392.5q41 238 -91 402.5 t-370 164.5q-240 0 -421 -160t-222 -399z" />
<glyph unicode="&#x42f;" horiz-adv-x="1271" d="M-31 0l484 565q-145 39 -220 165t-49 278q33 180 180.5 303t352.5 123h563l-252 -1434h-188l96 549h-270l-467 -549h-230zM373 993q-20 -113 45 -192.5t184 -79.5h365l94 534h-373q-113 0 -203 -74.5t-112 -187.5z" />
<glyph unicode="&#x430;" horiz-adv-x="1298" d="M82 535q41 236 207 376t375 140q127 0 226 -56.5t152 -160.5l33 190h178l-180 -1024h-178l27 145q-160 -172 -410 -172q-219 0 -345 168t-85 394zM260 520q-29 -158 58.5 -266.5t243 -108.5t275 101.5t146.5 257.5q33 174 -60.5 274.5t-246.5 100.5q-145 0 -266 -95.5 t-150 -263.5z" />
<glyph unicode="&#x431;" horiz-adv-x="1163" d="M76 508q45 264 145.5 406.5t356.5 256.5q49 23 127.5 54.5t116.5 48t86 45.5t76 64.5t48 82.5l135 -82q-12 -33 -27.5 -60.5t-39 -53t-42 -44t-54 -39t-55 -32.5t-65.5 -31.5t-64.5 -26.5t-73 -28.5t-70.5 -28.5q-143 -55 -219 -113.5t-119 -146.5q152 143 375 144 q182 0 299.5 -139.5t83.5 -344.5q-37 -209 -195 -338t-383 -129q-221 0 -352 151.5t-90 383.5zM254 471q-25 -139 56 -232.5t224.5 -93.5t252 87t133.5 223q23 135 -53 223t-216 88q-135 0 -253.5 -80t-143.5 -215z" />
<glyph unicode="&#x432;" horiz-adv-x="1030" d="M45 0l180 1024h471q141 0 217.5 -85t53.5 -208q-27 -147 -150 -211q70 -35 100.5 -100.5t16.5 -145.5q-23 -125 -118 -199.5t-259 -74.5h-512zM248 162h327q74 0 124.5 37.5t62.5 103.5q10 63 -26 99t-113 36h-326zM324 596h280q166 0 189 137q12 61 -23 96t-111 35h-288 z" />
<glyph unicode="&#x433;" horiz-adv-x="815" d="M45 0l180 1024h672l-31 -172h-493l-150 -852h-178z" />
<glyph unicode="&#x434;" horiz-adv-x="1214" d="M-104 -274l79 444h127q123 135 166 379l82 475h756l-150 -854h142l-80 -444h-176l49 274h-768l-49 -274h-178zM311 170h469l121 688h-403l-54 -309q-43 -234 -133 -379z" />
<glyph unicode="&#x435;" horiz-adv-x="1196" d="M82 532q39 223 211 371t397 148q231 0 355 -159t81 -382q-4 -33 -20 -80h-856q0 -137 85 -213t226 -76q207 0 326 152l133 -96q-78 -106 -206 -165t-273 -59q-242 0 -371 162t-88 397zM276 588h682q6 145 -71.5 220t-206.5 75q-143 0 -251 -79t-153 -216z" />
<glyph unicode="&#x436;" horiz-adv-x="1427" d="M-55 0l524 545l-324 479h191l297 -449l80 449h176l-80 -459l446 459h207l-495 -508l333 -516h-188l-317 492l-86 -492h-177l86 487l-471 -487h-202z" />
<glyph unicode="&#x437;" horiz-adv-x="917" d="M2 219l156 82q31 -162 243 -162q102 0 167 44t75 114q12 61 -26.5 100t-118.5 39h-150l31 162h108q78 0 128.5 38t62.5 103q10 66 -34 107t-136 41q-172 0 -256 -148l-137 88q150 223 409 224q172 0 260 -96.5t68 -221.5q-29 -156 -160 -217q72 -39 104.5 -106.5 t18.5 -149.5q-23 -127 -134.5 -207t-299.5 -80q-162 0 -256 68t-123 178z" />
<glyph unicode="&#x438;" horiz-adv-x="1157" d="M45 0l180 1024h176l-125 -709l693 709h143l-180 -1024h-176l123 709l-691 -709h-143z" />
<glyph unicode="&#x439;" horiz-adv-x="1157" d="M45 0l180 1024h176l-125 -709l693 709h143l-180 -1024h-176l123 709l-691 -709h-143zM420 1178l26 155h553l-26 -155h-553z" />
<glyph unicode="&#x43a;" horiz-adv-x="1028" d="M45 0l180 1024h178l-77 -444l514 444h229l-577 -496l415 -528h-205l-391 504l-88 -504h-178z" />
<glyph unicode="&#x43b;" horiz-adv-x="1124" d="M-70 0l29 168q104 -12 166.5 47t91.5 223l102 586h760l-180 -1024h-178l149 852h-403l-72 -418q-47 -264 -161.5 -357t-303.5 -77z" />
<glyph unicode="&#x43c;" horiz-adv-x="1296" d="M45 0l180 1024h185l225 -520l414 520h200l-180 -1024h-174l131 741l-418 -522h-22l-234 526l-131 -745h-176z" />
<glyph unicode="&#x43d;" horiz-adv-x="1157" d="M45 0l180 1024h178l-75 -426h530l76 426h178l-180 -1024h-178l75 428h-530l-76 -428h-178z" />
<glyph unicode="&#x43e;" horiz-adv-x="1234" d="M80 530q43 238 225 379.5t406 141.5q219 0 352 -158t92 -395q-41 -242 -219 -383.5t-397 -141.5q-227 0 -364.5 158t-94.5 399zM258 512q-29 -172 60.5 -269.5t234.5 -95.5q150 0 273.5 98.5t152.5 270.5q29 166 -60.5 263.5t-236.5 97.5q-145 -2 -268 -98.5t-156 -266.5 z" />
<glyph unicode="&#x43f;" horiz-adv-x="1157" d="M45 0l180 1024h887l-180 -1024h-178l149 854h-530l-150 -854h-178z" />
<glyph unicode="&#x440;" horiz-adv-x="1298" d="M-27 -410l252 1434h178l-26 -152q159 179 409 179q217 0 344 -167t89 -392q-41 -236 -206 -377.5t-374 -141.5q-127 0 -228.5 57.5t-152.5 164.5l-106 -605h-179zM315 522q-31 -176 62.5 -276.5t247.5 -100.5q145 0 265.5 95.5t149.5 263.5q27 158 -59 266.5 t-241.5 108.5t-276.5 -100.5t-148 -256.5z" />
<glyph unicode="&#x441;" horiz-adv-x="1124" d="M82 535q39 225 213 370.5t403 145.5q154 0 266.5 -73t157.5 -194l-157 -82q-68 174 -281 175q-156 0 -275.5 -101.5t-148.5 -255.5q-29 -158 55 -264t240 -106q104 0 191.5 49t142.5 133l143 -94q-78 -125 -210 -195t-290 -70q-229 0 -360 165t-90 397z" />
<glyph unicode="&#x442;" horiz-adv-x="917" d="M82 852l29 172h876l-31 -172h-348l-149 -852h-178l149 852h-348z" />
<glyph unicode="&#x443;" d="M6 -410l29 166q96 -8 166.5 43t136.5 162l31 49l-263 1014h181l202 -809l443 809h198l-608 -1087q-205 -369 -516 -347z" />
<glyph unicode="&#x444;" horiz-adv-x="1386" d="M80 526q37 211 205 353.5t413 164.5l68 390h176l-68 -392q229 -27 349 -181t84 -363q-37 -213 -204 -355.5t-417 -162.5l-68 -390h-176l68 392q-227 27 -347 181t-83 363zM256 512q-25 -141 50 -239.5t235 -120.5l127 720q-168 -23 -277.5 -121t-134.5 -239zM717 152 q168 20 278.5 119.5t135 240.5t-51 240.5t-235.5 119.5z" />
<glyph unicode="&#x445;" d="M-59 0l485 535l-283 489h197l207 -356l323 356h222l-459 -506l301 -518h-197l-225 387l-350 -387h-221z" />
<glyph unicode="&#x446;" horiz-adv-x="1218" d="M45 0l180 1024h178l-149 -854h504l149 854h178l-149 -854h166l-78 -444h-176l49 274h-852z" />
<glyph unicode="&#x447;" horiz-adv-x="1093" d="M123 684l59 340h178l-57 -330q-37 -213 199 -213q119 0 282 54l86 489h179l-181 -1024h-178l64 362q-147 -47 -281 -47q-195 0 -287 100.5t-63 268.5z" />
<glyph unicode="&#x448;" horiz-adv-x="1675" d="M45 0l180 1024h178l-149 -854h434l150 854h178l-150 -854h434l150 854h178l-180 -1024h-1403z" />
<glyph unicode="&#x449;" horiz-adv-x="1726" d="M45 0l180 1024h178l-149 -854h430l150 854h178l-150 -854h428l150 854h178l-150 -854h142l-80 -444h-176l49 274h-1358z" />
<glyph unicode="&#x44a;" horiz-adv-x="1130" d="M61 852l29 172h463l-66 -369h254q145 0 234.5 -99t62.5 -243q-25 -145 -137.5 -229t-273.5 -84h-432l149 852h-283zM401 166h254q76 0 135.5 44t73.5 118q12 74 -32 119t-119 45h-254z" />
<glyph unicode="&#x44b;" horiz-adv-x="1372" d="M45 0l180 1024h178l-65 -369h256q145 0 234.5 -99t62.5 -243q-27 -145 -139.5 -229t-274.5 -84h-432zM252 166h254q76 0 136.5 44t72.5 118q14 74 -31 119t-121 45h-254zM967 0l180 1024h178l-180 -1024h-178z" />
<glyph unicode="&#x44c;" horiz-adv-x="983" d="M45 0l180 1024h178l-65 -369h256q145 0 234.5 -99t62.5 -243q-27 -145 -139.5 -229t-274.5 -84h-432zM252 166h254q76 0 136.5 44t72.5 118q14 74 -31 119t-121 45h-254z" />
<glyph unicode="&#x44d;" horiz-adv-x="1124" d="M2 240l156 82q61 -176 284 -177q135 0 247 78t159 205h-459l31 168h454q-4 127 -84.5 205t-218.5 78q-106 0 -195 -50.5t-143 -134.5l-141 92q78 123 211 194t291 71q231 0 360 -165t88 -397q-41 -227 -213 -371.5t-405 -144.5q-150 0 -263.5 73t-158.5 194z" />
<glyph unicode="&#x44e;" horiz-adv-x="1646" d="M45 0l180 1024h178l-75 -426h190q61 211 230 332t374 121q219 0 352.5 -158t92.5 -395q-41 -242 -218.5 -383.5t-396.5 -141.5q-203 0 -333 125t-127 330h-193l-76 -428h-178zM670 512q-29 -170 60 -268.5t235 -96.5q150 0 273.5 98.5t152.5 270.5q31 166 -59.5 263.5 t-237.5 97.5q-147 -2 -270.5 -98.5t-153.5 -266.5z" />
<glyph unicode="&#x44f;" horiz-adv-x="1036" d="M-18 0l366 383q-104 33 -163.5 124t-39.5 202q25 139 138.5 227t271.5 88h436l-180 -1024h-176l65 369h-155l-348 -369h-215zM322 692q-14 -74 30.5 -119t122.5 -45h252l59 330h-254q-78 0 -138 -46t-72 -120z" />
<glyph unicode="&#x451;" horiz-adv-x="1196" d="M82 532q39 223 211 371t397 148q231 0 355 -159t81 -382q-4 -33 -20 -80h-856q0 -137 85 -213t226 -76q207 0 326 152l133 -96q-78 -106 -206 -165t-273 -59q-242 0 -371 162t-88 397zM276 588h682q6 145 -71.5 220t-206.5 75q-143 0 -251 -79t-153 -216zM451 1270 q6 45 42.5 75.5t82 30.5t71 -30.5t19.5 -75.5q-10 -45 -46 -77t-81 -32t-71 32t-17 77zM840 1270q6 45 43 75.5t82 30.5t70.5 -30.5t19.5 -75.5q-10 -45 -46 -77t-81 -32t-71 32t-17 77z" />
<glyph unicode="&#x452;" horiz-adv-x="1171" d="M63 0l205 1165h-137l23 131h137l24 138h179l-25 -138h295l-23 -131h-295l-49 -274q134 160 351 160q180 0 273 -115t60 -307l-123 -690q-70 -399 -458 -375l30 172q211 -18 250 203l121 679q23 127 -31.5 195t-177.5 68q-131 0 -228 -83t-126 -255v2l-96 -545h-179z" />
<glyph unicode="&#x453;" horiz-adv-x="815" d="M45 0l180 1024h672l-31 -172h-493l-150 -852h-178zM422 1163l205 271h219l-248 -271h-176z" />
<glyph unicode="&#x454;" horiz-adv-x="1124" d="M82 535q39 227 213 371.5t405 144.5q150 0 263.5 -72t158.5 -195l-155 -79q-31 80 -103.5 127t-179.5 47q-135 0 -246.5 -79t-158.5 -204h456l-30 -168h-455q6 -123 88 -203t213 -80q106 0 195.5 50.5t144.5 134.5l141 -92q-78 -123 -211 -194t-293 -71q-225 0 -356 166 t-90 396z" />
<glyph unicode="&#x455;" horiz-adv-x="968" d="M37 221l160 82q16 -72 78.5 -117t158.5 -45q90 0 150.5 35t72.5 100q8 45 -18.5 76t-74.5 50.5t-106.5 38t-115.5 43t-102 57t-67.5 91t-8.5 136.5q23 125 132.5 204t256.5 79q262 0 356 -213l-157 -82q-41 129 -207 129q-72 0 -131.5 -34t-71.5 -101q-10 -61 42 -98.5 t133 -62t161 -55t127 -100t29 -178.5q-25 -135 -135.5 -209t-278.5 -74q-152 0 -249 66.5t-134 181.5z" />
<glyph unicode="&#x456;" horiz-adv-x="450" d="M45 0l180 1024h178l-180 -1024h-178zM250 1329q8 51 47 86t92 35q49 0 79 -36t21 -85q-10 -51 -49 -85t-92 -34q-49 0 -77.5 35t-20.5 84z" />
<glyph unicode="&#x457;" horiz-adv-x="450" d="M45 0l180 1024h178l-180 -1024h-178zM57 1268q6 45 43 75.5t82 30.5t71 -30.5t19 -75.5q-10 -45 -46 -77t-81 -32t-70.5 32t-17.5 77zM446 1268q6 45 43 75.5t82 30.5t71 -30.5t20 -75.5q-10 -45 -46 -77t-81.5 -32t-71 32t-17.5 77z" />
<glyph unicode="&#x458;" horiz-adv-x="493" d="M-203 -436l31 172q109 -10 170.5 37t81.5 166l190 1085h179l-191 -1085q-37 -215 -150.5 -302.5t-310.5 -72.5zM293 1329q8 49 48 85t91 36t81 -36t19 -85q-8 -51 -48 -85t-93 -34q-49 0 -77.5 35t-20.5 84z" />
<glyph unicode="&#x459;" horiz-adv-x="1607" d="M-70 0l29 168q104 -16 165.5 44t92.5 226l102 586h740l-72 -403h244q137 0 222 -91.5t58 -234.5q-25 -141 -131 -218t-260 -77h-420l150 852h-383l-72 -418q-47 -260 -162.5 -355t-302.5 -79zM907 166h244q68 0 121 35.5t65 107.5q12 74 -26.5 110t-108.5 36h-244z" />
<glyph unicode="&#x45a;" horiz-adv-x="1624" d="M45 0l180 1024h178l-71 -403h493l72 403h178l-71 -403h243q139 0 223 -91.5t60 -234.5q-27 -143 -132.5 -219t-258.5 -76h-422l80 451h-494l-80 -451h-178zM924 166h243q70 0 122 36t64.5 107.5t-26.5 108.5t-106 37h-246z" />
<glyph unicode="&#x45b;" horiz-adv-x="1171" d="M63 0l205 1165h-137l23 131h137l24 138h179l-25 -138h295l-23 -131h-295l-49 -274q134 160 351 160q180 0 273 -115t60 -307l-110 -629h-178l108 618q23 127 -31.5 195t-177.5 68q-131 0 -228 -83t-126 -255v2l-96 -545h-179z" />
<glyph unicode="&#x45c;" horiz-adv-x="1028" d="M45 0l180 1024h178l-77 -444l514 444h229l-577 -496l415 -528h-205l-391 504l-88 -504h-178zM514 1163l205 271h219l-248 -271h-176z" />
<glyph unicode="&#x45e;" d="M6 -410l29 166q96 -8 166.5 43t136.5 162l31 49l-263 1014h181l202 -809l443 809h198l-608 -1087q-205 -369 -516 -347zM334 1178l26 155h553l-26 -155h-553z" />
<glyph unicode="&#x45f;" horiz-adv-x="1157" d="M45 0l180 1024h178l-149 -854h530l150 854h178l-180 -1024h-357l-47 -274h-176l47 274h-354z" />
<glyph unicode="&#x490;" horiz-adv-x="993" d="M63 0l252 1434h617l43 245h190l-75 -426h-615l-221 -1253h-191z" />
<glyph unicode="&#x491;" horiz-adv-x="815" d="M45 0l180 1024h496l37 211h176l-68 -383h-493l-150 -852h-178z" />
<glyph unicode="&#x2000;" horiz-adv-x="920" />
<glyph unicode="&#x2001;" horiz-adv-x="1841" />
<glyph unicode="&#x2002;" horiz-adv-x="920" />
<glyph unicode="&#x2003;" horiz-adv-x="1841" />
<glyph unicode="&#x2004;" horiz-adv-x="613" />
<glyph unicode="&#x2005;" horiz-adv-x="460" />
<glyph unicode="&#x2006;" horiz-adv-x="306" />
<glyph unicode="&#x2007;" horiz-adv-x="306" />
<glyph unicode="&#x2008;" horiz-adv-x="230" />
<glyph unicode="&#x2009;" horiz-adv-x="368" />
<glyph unicode="&#x200a;" horiz-adv-x="102" />
<glyph unicode="&#x2010;" d="M160 543l28 172h748l-29 -172h-747z" />
<glyph unicode="&#x2011;" d="M160 543l28 172h748l-29 -172h-747z" />
<glyph unicode="&#x2012;" d="M160 543l28 172h748l-29 -172h-747z" />
<glyph unicode="&#x2013;" horiz-adv-x="1312" d="M160 543l28 172h1006l-31 -172h-1003z" />
<glyph unicode="&#x2014;" horiz-adv-x="1517" d="M160 543l28 172h1211l-31 -172h-1208z" />
<glyph unicode="&#x2018;" horiz-adv-x="518" d="M190 936l222 498h153l-170 -498h-205z" />
<glyph unicode="&#x2019;" horiz-adv-x="518" d="M190 938l170 498h205l-221 -498h-154z" />
<glyph unicode="&#x201a;" horiz-adv-x="518" d="M-27 -287l170 498h205l-221 -498h-154z" />
<glyph unicode="&#x201c;" horiz-adv-x="835" d="M190 936l222 498h153l-170 -498h-205zM508 936l221 498h154l-170 -498h-205z" />
<glyph unicode="&#x201d;" horiz-adv-x="835" d="M190 938l170 498h205l-221 -498h-154zM508 938l170 498h205l-221 -498h-154z" />
<glyph unicode="&#x201e;" horiz-adv-x="835" d="M-27 -287l170 498h205l-221 -498h-154zM291 -287l170 498h205l-222 -498h-153z" />
<glyph unicode="&#x2020;" horiz-adv-x="983" d="M188 944l31 172h291l55 318h178l-55 -318h289l-31 -172h-289l-165 -944h-179l166 944h-291z" />
<glyph unicode="&#x2021;" horiz-adv-x="983" d="M78 317l31 172h290l80 455h-291l31 172h291l55 318h178l-55 -318h289l-31 -172h-289l-79 -455h288l-30 -172h-289l-55 -317h-179l56 317h-291z" />
<glyph unicode="&#x2022;" horiz-adv-x="655" d="M137 727q16 96 93 158.5t178 62.5q94 0 148 -70.5t38 -166.5q-18 -96 -93 -160t-175 -64q-96 0 -151.5 71t-37.5 169z" />
<glyph unicode="&#x2026;" horiz-adv-x="1327" d="M45 113q10 57 53 94t103 37q55 0 88 -40t22 -95q-10 -57 -53 -94.5t-104 -37.5q-55 0 -87 40t-22 96zM461 113q10 57 53 94t102 37q55 0 88 -40t23 -95q-10 -57 -53.5 -94.5t-104.5 -37.5q-55 0 -86.5 40t-21.5 96zM874 113q10 57 53.5 94t102.5 37q55 0 88 -40t23 -95 q-10 -57 -53.5 -94.5t-104.5 -37.5q-55 0 -87 40t-22 96z" />
<glyph unicode="&#x202f;" horiz-adv-x="368" />
<glyph unicode="&#x2030;" horiz-adv-x="2232" d="M152 205l1138 1065l99 -60l-1141 -1067zM225 1147q23 133 128.5 223t250.5 90q139 0 216 -99t52 -233q-25 -129 -128 -216t-246 -87q-137 0 -216 96.5t-57 225.5zM385 1143q-12 -72 26 -120t109.5 -48t125.5 49t66.5 118.5t-24.5 118t-108.5 48.5t-127 -48.5 t-67.5 -117.5zM694.5 301q22.5 131 128 220t248.5 89q137 0 214 -98t54 -229q-25 -131 -128 -219.5t-246 -88.5q-139 0 -216 97.5t-54.5 228.5zM854 293q-12 -70 24.5 -118t108.5 -48t126 48t66.5 117.5t-24.5 118t-108 48.5q-74 0 -128.5 -48.5t-64.5 -117.5zM1433.5 301 q22.5 131 128 220t248.5 89q139 0 216 -98t53 -229q-23 -131 -127.5 -219.5t-247.5 -88.5q-137 0 -215 97.5t-55.5 228.5zM1593 293q-12 -70 25 -118t108.5 -48t127 48t67.5 117.5t-25.5 118t-109.5 48.5t-127 -48.5t-66 -117.5z" />
<glyph unicode="&#x2039;" horiz-adv-x="702" d="M160 633l289 375h202l-295 -385l156 -363h-193z" />
<glyph unicode="&#x203a;" horiz-adv-x="704" d="M94 258l295 385l-156 363h193l160 -373l-289 -375h-203z" />
<glyph unicode="&#x2044;" horiz-adv-x="430" d="M-356 0l1061 1434h153l-1061 -1434h-153z" />
<glyph unicode="&#x205f;" horiz-adv-x="460" />
<glyph unicode="&#x20ac;" horiz-adv-x="1232" d="M43 539l25 133h137q4 37 8 59q2 16 10 49h-137l23 131h147q82 258 248 403.5t391 145.5q145 0 248.5 -74.5t148.5 -207.5l-168 -88q-59 186 -260 186q-137 0 -242.5 -93t-168.5 -272h485l-23 -131h-499l-13 -63q-2 -8 -4 -23.5t-4 -21.5h502l-25 -133h-487 q-4 -184 68 -281.5t215 -97.5q201 0 323 194l150 -94q-178 -287 -502 -287q-215 0 -332 154t-112 412h-152z" />
<glyph unicode="&#x2122;" horiz-adv-x="960" d="M223 1346l17 88h329l-16 -88h-117l-55 -322h-94l55 322h-119zM545 1024l71 410h95l77 -193l150 193h106l-71 -410h-94l45 256l-152 -184h-8l-80 182l-45 -254h-94z" />
<glyph unicode="&#x25fc;" horiz-adv-x="1024" d="M0 0v1024h1024v-1024h-1024z" />
</font>
</defs>
</svg>
