<?xml version="1.0" standalone="no"?>
<!DOCTYPE svg PUBLIC "-//W3C//DTD SVG 1.1//EN" "http://www.w3.org/Graphics/SVG/1.1/DTD/svg11.dtd" >
<svg xmlns="http://www.w3.org/2000/svg" xmlns:xlink="http://www.w3.org/1999/xlink" version="1.1">
<metadata></metadata>
<defs>
<font id="gilroy-regularitauploadedfile" horiz-adv-x="1064" >
<font-face units-per-em="2048" ascent="1587" descent="-461" />
<missing-glyph horiz-adv-x="512" />
<glyph horiz-adv-x="0" />
<glyph unicode="&#xd;" horiz-adv-x="681" />
<glyph unicode=" "  horiz-adv-x="512" />
<glyph unicode="&#x09;" horiz-adv-x="512" />
<glyph unicode="&#xa0;" horiz-adv-x="512" />
<glyph unicode="!" horiz-adv-x="471" d="M49 94q8 47 44 79t87 32q47 0 75 -34t19 -81q-10 -49 -45 -79.5t-88 -30.5q-47 0 -73.5 33.5t-18.5 80.5zM164 389l80 635l71 410h164l-71 -410l-142 -635h-102z" />
<glyph unicode="&#x22;" horiz-adv-x="634" d="M213 1024l51 410h144l-93 -410h-102zM500 1024l51 410h143l-92 -410h-102z" />
<glyph unicode="#" horiz-adv-x="1226" d="M55 471l41 123h246l86 246h-250l43 123h248l127 368h131l-127 -368h270l127 368h131l-127 -368h244l-43 -123h-241l-87 -246h246l-41 -123h-245l-127 -369h-132l127 369h-270l-127 -369h-131l127 369h-246zM473 594h270l86 246h-270z" />
<glyph unicode="$" horiz-adv-x="1148" d="M43 287l129 63q59 -205 295 -231l98 557q-29 12 -50 22.5t-50 24.5t-50.5 28.5t-47 33t-43 38t-36 42t-28.5 49t-16 56t-6 64.5t8 72q35 168 170 259t286 93l33 180h123l-33 -190q221 -45 312 -258l-129 -64q-74 150 -207 183l-96 -539q176 -78 241 -139 q125 -115 90 -295q-33 -166 -164 -258t-307 -103l-33 -180h-122l32 185q-152 18 -254 98t-145 209zM389 1092q-20 -102 34 -161t167 -110l88 498q-100 -8 -183 -67.5t-106 -159.5zM590 117q119 12 201 74.5t102 160.5q23 104 -35.5 163.5t-177.5 111.5z" />
<glyph unicode="%" horiz-adv-x="1454" d="M135 197l1151 1079l88 -53l-1153 -1080zM237.5 1159q22.5 129 127 214t241.5 85q131 0 206 -93t52.5 -222t-125 -214t-241.5 -85q-131 0 -207 93t-53.5 222zM368.5 1151q-14.5 -78 27.5 -131t122 -53t140.5 53t75 131t-27.5 131t-122 53t-140.5 -53t-75 -131zM663.5 291 q22.5 129 127 214t241.5 85q131 0 206 -93.5t52.5 -222.5t-126 -214t-240.5 -85q-131 0 -207 93.5t-53.5 222.5zM794.5 282.5q-12.5 -77.5 28.5 -131t121 -53.5t140.5 53.5t75 131t-27.5 131t-122 53.5t-141.5 -53.5t-74 -131z" />
<glyph unicode="&#x26;" horiz-adv-x="1357" d="M104 408q49 264 357 397q-82 137 -58 289q27 164 153 264t300 100q150 0 255.5 -76.5t148.5 -207.5l-125 -68q-27 100 -104 156.5t-179 56.5q-111 0 -199 -62.5t-106 -175.5q-23 -137 86 -280l338 -439q84 113 135 269l111 -74q-61 -172 -164 -301l170 -219l-125 -62 l-137 179q-197 -178 -449 -179q-213 0 -327.5 119t-80.5 314zM248 395q-23 -129 52 -204.5t222 -75.5q201 0 357 143l-336 436q-256 -96 -295 -299z" />
<glyph unicode="'" horiz-adv-x="348" d="M213 1024l51 410h144l-93 -410h-102z" />
<glyph unicode="(" horiz-adv-x="546" d="M162 729q80 457 387 909h135q-305 -449 -387 -921.5t61 -921.5h-135q-145 453 -61 934z" />
<glyph unicode=")" horiz-adv-x="544" d="M-66 -205q305 449 387 922t-61 921h135q145 -453 62 -933q-80 -457 -387 -910h-136z" />
<glyph unicode="*" horiz-adv-x="804" d="M233 1135l21 114l184 -6l-80 154l111 61l63 -166l125 166l99 -61l-133 -154l188 6l-20 -114l-187 6l80 -154l-109 -61l-65 166l-123 -166l-100 61l133 154z" />
<glyph unicode="+" horiz-adv-x="1105" d="M147 651l23 131h367l63 365h131l-63 -365h362l-22 -131h-365l-63 -364h-131l63 364h-365z" />
<glyph unicode="," horiz-adv-x="491" d="M-18 -287l163 461h164l-205 -461h-122z" />
<glyph unicode="-" d="M174 567l23 131h737l-23 -131h-737z" />
<glyph unicode="." horiz-adv-x="471" d="M49 94q8 47 44 79t87 32q47 0 75 -34t19 -81q-10 -49 -45 -79.5t-88 -30.5q-47 0 -73.5 33.5t-18.5 80.5z" />
<glyph unicode="/" horiz-adv-x="1085" d="M-45 -205l1139 1843h108l-1139 -1843h-108z" />
<glyph unicode="0" horiz-adv-x="1296" d="M141 733q59 340 232.5 532.5t441.5 192.5q248 0 359.5 -211t52.5 -547q-59 -340 -232.5 -532.5t-441.5 -192.5q-248 0 -359.5 211t-52.5 547zM284.5 717q-51.5 -287 26.5 -444.5t266.5 -157.5t321.5 157.5t184.5 444.5t-26.5 444.5t-266.5 157.5t-321.5 -157.5 t-184.5 -444.5z" />
<glyph unicode="1" horiz-adv-x="696" d="M170 1303l401 131h123l-252 -1434h-143l223 1274v-2l-338 -96z" />
<glyph unicode="2" horiz-adv-x="1075" d="M-8 0l22 129l609 520q256 217 286 379q27 137 -45.5 214t-191.5 77q-209 0 -353 -205l-112 74q184 270 481 270q176 0 289 -123t76 -323q-23 -125 -108 -232.5t-234 -232.5l-484 -408h701l-25 -139h-911z" />
<glyph unicode="3" horiz-adv-x="1085" d="M16 260l123 68q51 -213 312 -213q147 0 256.5 78.5t134 222t-56 222.5t-228.5 79h-41l-47 98l430 483h-659l22 136h840l-23 -136l-409 -462q162 -27 254 -140.5t61 -292.5q-37 -203 -193.5 -315.5t-357.5 -112.5q-160 0 -271.5 74t-146.5 211z" />
<glyph unicode="4" horiz-adv-x="1167" d="M12 287l23 135l710 1012h164l-710 -1012h594l77 438h144l-78 -438h184l-22 -135h-185l-51 -287h-143l51 287h-758z" />
<glyph unicode="5" horiz-adv-x="1116" d="M41 281l127 67q18 -115 102 -174t211 -59q147 0 257 78.5t134.5 222t-56.5 222.5t-228 79h-389l176 717h768l-23 -136h-637l-110 -442h239q184 0 311.5 -125t92.5 -328q-37 -205 -191.5 -316.5t-359.5 -111.5q-160 0 -275.5 79t-148.5 227z" />
<glyph unicode="6" horiz-adv-x="1087" d="M53 461q31 176 150 295l571 678h174l-440 -521q47 9 106 9q207 0 321 -138.5t77 -347.5q-39 -211 -191.5 -336t-371.5 -125q-207 0 -321 138.5t-75 347.5zM197 449q-29 -152 46.5 -243t229.5 -91t260 91t135 243q27 152 -49 242.5t-229.5 90.5t-260 -91t-132.5 -242z" />
<glyph unicode="7" horiz-adv-x="1003" d="M141 0l762 1298h-723l23 136h880l-22 -136l-762 -1298h-158z" />
<glyph unicode="8" horiz-adv-x="1126" d="M61 401q18 119 99.5 208t201.5 136q-174 119 -137 328q35 190 179.5 287.5t324.5 97.5q168 0 282 -109.5t79 -299.5q-37 -209 -246 -316q98 -53 146 -146t30 -210q-35 -195 -188.5 -298.5t-364.5 -103.5q-195 0 -317.5 117t-88.5 309zM205 389q-25 -133 57 -203.5 t230 -70.5q152 0 256 70.5t129 203.5q23 131 -61.5 203t-227.5 72q-147 0 -254 -71t-129 -204zM369 1061q-23 -123 53 -190.5t190 -67.5q125 0 218 66.5t116 191.5q23 131 -49 194.5t-192.5 63.5t-217 -64.5t-118.5 -193.5z" />
<glyph unicode="9" horiz-adv-x="1091" d="M147 1001q37 209 192 333t374 124q207 0 320.5 -139t76.5 -350q-31 -174 -147 -291l-572 -678h-174l438 520q-74 -8 -110 -8q-207 0 -320.5 139.5t-77.5 349.5zM290.5 985.5q-26.5 -151.5 49.5 -243t229 -91.5q156 0 263.5 91.5t134 243t-49 242.5t-229.5 91 q-156 0 -263.5 -91t-134 -242.5z" />
<glyph unicode=":" horiz-adv-x="471" d="M49 94q8 47 44 79t87 32q47 0 75 -34t19 -81q-10 -49 -45 -79.5t-88 -30.5q-47 0 -73.5 33.5t-18.5 80.5zM196.5 934q8.5 47 44 78.5t87.5 31.5q47 0 74.5 -33.5t19.5 -80.5q-10 -49 -45 -80t-88 -31q-47 0 -74 34t-18.5 81z" />
<glyph unicode=";" horiz-adv-x="503" d="M-18 -287l163 461h164l-205 -461h-122zM229.5 934q8.5 47 44 78.5t86.5 31.5q47 0 75 -33.5t20 -80.5q-10 -49 -45 -80t-88 -31q-47 0 -74 34t-18.5 81z" />
<glyph unicode="&#x3c;" d="M147 645l25 143l883 359l-29 -160l-713 -278l615 -279l-25 -143z" />
<glyph unicode="=" horiz-adv-x="1105" d="M111 446l24 132h860l-24 -132h-860zM184 856l23 131h860l-23 -131h-860z" />
<glyph unicode="&#x3e;" d="M84 287l29 159l710 279l-612 279l25 143l753 -359l-24 -143z" />
<glyph unicode="?" horiz-adv-x="1087" d="M219 1180q72 137 202 207.5t279 70.5q170 0 283 -106.5t80 -284.5q-14 -88 -68.5 -163t-122 -129t-135 -108.5t-120 -125t-66.5 -152.5h-143q18 100 72.5 183t122 140.5t134 111t118.5 118t65 137.5q20 119 -49.5 179.5t-194.5 60.5q-104 0 -194.5 -52.5t-141.5 -158.5z M315.5 94q8.5 47 44 79t86.5 32q47 0 75 -34t20 -81q-10 -49 -45 -79.5t-88 -30.5q-47 0 -74 33.5t-18.5 80.5z" />
<glyph unicode="@" horiz-adv-x="1628" d="M86 532q53 307 304.5 514t570.5 207q209 0 357 -108.5t205.5 -270t26.5 -333.5q-39 -217 -141 -319.5t-227 -102.5q-80 0 -134.5 43t-62.5 129q-106 -106 -248 -107q-137 0 -218 99.5t-56 236.5q25 139 133.5 229.5t255.5 90.5q129 0 199 -107l16 92h127l-78 -442 q-33 -197 98 -197q90 0 166 89.5t109 277.5q47 274 -107.5 458.5t-431.5 184.5q-289 0 -520 -191.5t-283 -484.5q-53 -297 118 -494.5t480 -197.5q207 0 367 59l-10 -61q-162 -55 -367 -55q-332 0 -519 219t-130 542zM589.5 512q-16.5 -92 36 -148.5t140.5 -56.5t158.5 56.5 t87 148.5t-33.5 148.5t-138 56.5t-161 -56.5t-89.5 -148.5z" />
<glyph unicode="A" horiz-adv-x="1290" d="M-70 0l803 1434h148l299 -1434h-148l-69 352h-680l-197 -352h-156zM356 487h580l-152 768z" />
<glyph unicode="B" horiz-adv-x="1269" d="M74 0l252 1434h546q168 0 270 -117q82 -94 82 -217q0 -30 -5 -62q-31 -199 -220 -299q93 -47 139 -140q33 -66 32 -144q0 -32 -5 -66q-25 -162 -155.5 -275.5t-311.5 -113.5h-624zM242 135h469q115 0 205 78q90 79 108 187q4 25 4 48q0 78 -46 138q-60 78 -167 78h-481z M358 799h433q100 0 184 73q85 72 103 176q4 24 4 48q0 74 -46 130q-60 72 -168 72h-424z" />
<glyph unicode="C" horiz-adv-x="1525" d="M121 737q55 309 296.5 515t547.5 206q209 0 360.5 -95t226.5 -261l-127 -68q-129 285 -462 285q-262 0 -461 -174t-242 -428q-10 -61 -10 -117q0 -182 106 -313q140 -172 398 -172q166 0 310 77.5t236 215.5l121 -76q-115 -164 -297 -260.5t-387 -96.5q-323 -1 -497 225 q-132 171 -132 392q0 70 13 145z" />
<glyph unicode="D" horiz-adv-x="1478" d="M74 0l252 1434h553q285 0 445 -218q120 -164 119 -375q0 -70 -13 -145q-53 -299 -277.5 -497.5t-525.5 -198.5h-553zM242 135h409q236 0 416 168t223 414q11 65 11 124q-1 165 -89 289q-120 168 -356 168h-412z" />
<glyph unicode="E" horiz-adv-x="1085" d="M74 0l252 1434h829l-22 -136h-689l-88 -507h635l-24 -136h-635l-90 -520h696l-25 -135h-839z" />
<glyph unicode="F" horiz-adv-x="1054" d="M74 0l252 1434h809l-25 -136h-666l-92 -528h635l-24 -135h-635l-111 -635h-143z" />
<glyph unicode="G" horiz-adv-x="1617" d="M123 748q55 307 297 508.5t555 201.5q207 0 357.5 -94t232.5 -262l-127 -68q-143 285 -467 285q-268 0 -467 -170t-242 -426q-11 -63 -11 -121q0 -180 105 -312q140 -175 416 -175q233 0 400 122.5t223 309.5h-572l25 135h717l-13 -72q-47 -268 -263 -451.5t-523 -183.5 q-340 0 -520 227q-137 172 -137 397q0 72 14 149z" />
<glyph unicode="H" horiz-adv-x="1392" d="M74 0l252 1434h143l-111 -629h779l110 629h144l-252 -1434h-144l117 670h-778l-117 -670h-143z" />
<glyph unicode="I" horiz-adv-x="471" d="M74 0l252 1434h143l-252 -1434h-143z" />
<glyph unicode="J" horiz-adv-x="1132" d="M33 229l129 70q55 -184 289 -184q147 0 247.5 71.5t126.5 219.5l181 1028h143l-180 -1033q-39 -219 -186.5 -322.5t-342.5 -103.5q-322 0 -407 254z" />
<glyph unicode="K" horiz-adv-x="1183" d="M74 0l252 1434h143l-115 -660l766 660h193l-813 -707l573 -727h-170l-561 709l-125 -709h-143z" />
<glyph unicode="L" horiz-adv-x="1003" d="M74 0l252 1434h143l-227 -1299h655l-25 -135h-798z" />
<glyph unicode="M" horiz-adv-x="1638" d="M74 0l252 1434h168l340 -807l622 807h180l-252 -1434h-143l211 1206l-639 -829h-20l-361 852l-215 -1229h-143z" />
<glyph unicode="N" horiz-adv-x="1392" d="M74 0l252 1434h110l608 -1166l203 1166h144l-252 -1434h-111l-606 1165l-205 -1165h-143z" />
<glyph unicode="O" horiz-adv-x="1654" d="M121 737q53 309 298 515t564 206q205 0 361 -108q154 -107 224 -284q47 -119 47 -249q0 -64 -11 -131q-55 -309 -299 -510t-568 -201q-309 1 -490 227q-139 174 -139 395q0 68 13 140zM264 717q-11 -60 -11 -117q1 -177 109 -310q142 -175 400 -175q262 0 457.5 169 t240.5 423q10 59 10 114q0 182 -109 319q-142 179 -403 179q-258 0 -454.5 -174t-239.5 -428z" />
<glyph unicode="P" horiz-adv-x="1206" d="M74 0l252 1434h501q203 0 309 -129q80 -98 80 -234q0 -42 -8 -88q-33 -195 -184.5 -323t-386.5 -128h-326l-94 -532h-143zM334 668h319q170 0 280.5 95.5t135.5 240.5q6 33 6 63q0 91 -53 151q-70 80 -209 80h-369z" />
<glyph unicode="Q" horiz-adv-x="1665" d="M121 737q53 309 298 515t564 206q205 0 360.5 -107.5t225.5 -284.5q47 -118 47 -248q0 -64 -12 -132q-55 -309 -299 -510l118 -143l-102 -88l-129 153q-211 -123 -455 -123q-309 0 -490 227q-139 173 -139 395q0 68 13 140zM264 717q-11 -60 -11 -117q0 -177 109 -310 q142 -175 400 -175q182 0 342 88l-262 313l104 88l271 -323q197 168 243 426q10 59 10 114q0 182 -109 319q-142 179 -403 179q-258 0 -454.5 -174t-239.5 -428z" />
<glyph unicode="R" horiz-adv-x="1249" d="M74 0l252 1434h573q171 0 279 -136q83 -105 83 -234q0 -39 -8 -81q-25 -143 -129 -250.5t-250 -142.5l244 -590h-149l-236 573h-416l-100 -573h-143zM342 709h430q121 0 220 87t122 208q6 30 6 58q0 86 -54 150q-71 86 -189 86h-433z" />
<glyph unicode="S" horiz-adv-x="1196" d="M49 326l125 65q25 -129 120 -202.5t257 -73.5q152 0 254 63.5t127 173.5q5 24 5 46q0 121 -151 196q-55 27 -172 68q-88 31 -148 60.5t-127 81.5t-93 128q-14 42 -13 90q0 40 9 84q35 172 175 262t310 90q178 0 287.5 -86t156.5 -219l-127 -66q-76 231 -325 232 q-119 0 -215 -59.5t-119 -167.5q-6 -28 -6 -54q1 -34 11 -62q18 -50 73 -87t102 -58.5t131 -50.5q211 -76 293 -153q92 -89 92 -214q0 -37 -8 -77q-35 -176 -180 -268.5t-346 -92.5q-199 0 -328 92.5t-170 258.5z" />
<glyph unicode="T" horiz-adv-x="1105" d="M180 1298l23 136h1024l-23 -136h-442l-227 -1298h-144l227 1298h-438z" />
<glyph unicode="U" horiz-adv-x="1351" d="M139 487l166 947h144l-166 -947q-8 -46 -8 -87q0 -111 61 -184q84 -101 266 -101q186 0 308 103.5t151 268.5l166 947h143l-166 -947q-43 -240 -207 -376t-395 -136q-242 1 -372 143q-100 110 -100 269q0 48 9 100z" />
<glyph unicode="V" horiz-adv-x="1245" d="M182 1434h144l229 -1252l672 1252h159l-780 -1434h-147z" />
<glyph unicode="W" horiz-adv-x="2048" d="M223 1434h142l139 -1246l592 1246h168l155 -1246l578 1246h151l-667 -1434h-172l-156 1245l-594 -1245h-172z" />
<glyph unicode="X" horiz-adv-x="1187" d="M-49 0l606 750l-324 684h148l268 -570l461 570h168l-567 -701l346 -733h-148l-291 618l-499 -618h-168z" />
<glyph unicode="Y" horiz-adv-x="1177" d="M182 1434h148l299 -633l522 633h168l-633 -766l-117 -668h-143l117 670z" />
<glyph unicode="Z" d="M-8 0l24 135l942 1163h-716l22 136h881l-23 -136l-944 -1163h760l-25 -135h-921z" />
<glyph unicode="[" horiz-adv-x="573" d="M-4 -205l326 1843h409l-22 -131h-275l-280 -1581h276l-24 -131h-410z" />
<glyph unicode="\" horiz-adv-x="1085" d="M281 1638h102l494 -1843h-103z" />
<glyph unicode="]" horiz-adv-x="573" d="M-86 -205l25 131h272l281 1581h-275l23 131h409l-325 -1843h-410z" />
<glyph unicode="^" horiz-adv-x="1024" d="M135 819l467 615h139l254 -615h-147l-191 465l-354 -465h-168z" />
<glyph unicode="_" d="M-59 -289l22 131h901l-22 -131h-901z" />
<glyph unicode="`" horiz-adv-x="411" d="M203 1434l151 -267h131l-118 267h-164z" />
<glyph unicode="a" horiz-adv-x="1306" d="M86 532q43 246 212 381.5t374 135.5q133 0 243.5 -62.5t163.5 -179.5l39 217h135l-180 -1024h-135l31 174q-166 -199 -445 -199q-215 0 -346 166q-101 128 -101 291q0 48 9 100zM221 522q-7 -40 -7 -77q0 -123 74 -217q96 -122 269 -122q168 0 301 108t166 273l4 25 q6 41 6 77q0 134 -82 220q-106 109 -270 109q-160 0 -294 -104.5t-167 -291.5z" />
<glyph unicode="b" horiz-adv-x="1302" d="M53 0l252 1434h135l-104 -596q174 211 450 211q214 0 344 -159q100 -122 100 -283q0 -48 -9 -99q-41 -229 -214 -381t-409 -152q-129 0 -226.5 64.5t-146.5 175.5l-37 -215h-135zM279 512q-7 -40 -7 -77q0 -121 73 -211q95 -118 265 -118q176 0 310 121t165 295 q8 42 8 80q0 118 -72 203q-95 113 -267 113q-170 0 -307.5 -118t-167.5 -288z" />
<glyph unicode="c" horiz-adv-x="1132" d="M86 535q39 225 215 369.5t406 144.5q150 0 262 -72t155 -195l-116 -59q-33 90 -115 142.5t-199 52.5q-174 0 -308 -114t-165 -284q-7 -42 -7 -80q0 -123 70 -214q92 -120 267 -120q117 0 216 55.5t159 149.5l108 -71q-78 -125 -211 -195t-295 -70q-223 0 -353 165 q-99 125 -99 288q0 52 10 107z" />
<glyph unicode="d" horiz-adv-x="1306" d="M86 532q43 246 212 381.5t374 135.5q133 0 243.5 -62.5t163.5 -179.5l111 627h135l-252 -1434h-135l31 174q-166 -199 -445 -199q-215 0 -346 166q-101 128 -101 291q0 48 9 100zM221 522q-7 -40 -7 -77q0 -123 74 -217q96 -122 269 -122q168 0 300 108t167 271l4 33 q6 38 6 73q0 135 -84 220q-104 107 -268 107q-160 0 -294 -104.5t-167 -291.5z" />
<glyph unicode="e" horiz-adv-x="1196" d="M86 532q39 225 212 371t396 146q231 0 353 -160q89 -117 89 -266q0 -55 -12 -115q-6 -37 -16 -64h-895v-19q0 -143 87 -228q93 -91 255 -91q236 0 363 177l106 -70q-74 -113 -208 -175.5t-279 -62.5q-238 0 -365 160q-96 121 -96 286q0 53 10 111zM233 575h762q1 21 1 40 q0 139 -74 215q-86 88 -236 88q-162 0 -284 -93.5t-169 -249.5z" />
<glyph unicode="f" horiz-adv-x="657" d="M119 893l22 131h174l9 41q37 207 164 309q110 86 277 86q28 0 58 -2l-24 -131q-25 2 -48 2q-245 0 -292 -264l-8 -41h294l-22 -131h-295l-158 -893h-135l158 893h-174z" />
<glyph unicode="g" horiz-adv-x="1308" d="M43 -184l121 61q74 -180 336 -180q186 0 302 90t144 254l25 137q-168 -203 -432 -203q-231 0 -359 162q-101 127 -101 298q0 47 7 97q35 236 208 376.5t378 140.5q131 0 242.5 -62.5t164.5 -179.5l39 217h135l-172 -983q-41 -227 -200.5 -351t-386.5 -124 q-162 0 -279 65.5t-172 184.5zM221 522q-7 -41 -7 -79q0 -126 76 -218q97 -119 273 -119q166 0 297 108t166 284v4l2 10q7 41 7 79q0 131 -85 217q-108 110 -268 110t-296 -108t-165 -288z" />
<glyph unicode="h" horiz-adv-x="1142" d="M53 0l252 1434h135l-96 -553q142 168 363 168q186 0 278 -115q68 -85 68 -210q0 -45 -9 -95l-110 -629h-135l110 629q7 40 7 75q0 86 -40 139q-56 75 -194 75q-145 0 -252.5 -90.5t-144.5 -276.5l-97 -551h-135z" />
<glyph unicode="i" horiz-adv-x="421" d="M53 0l180 1024h136l-181 -1024h-135zM258 1339q6 41 39 70t76 29q41 0 65 -29q18 -22 19 -50q-1 -10 -3 -20q-8 -41 -39.5 -69.5t-76.5 -28.5q-42 1 -64 29q-18 22 -17 52q0 8 1 17z" />
<glyph unicode="j" horiz-adv-x="471" d="M-207 -434l23 131q22 -2 42 -2q87 0 141 42q66 52 89 181l195 1106h135l-195 -1106q-35 -205 -143 -287q-89 -68 -227 -68q-29 0 -60 3zM307 1339q6 41 39 70t76 29q41 0 66 -29q18 -22 18 -51q0 -9 -2 -19q-8 -41 -40 -69.5t-77 -28.5q-41 0 -63 29q-18 22 -18 52 q0 8 1 17z" />
<glyph unicode="k" horiz-adv-x="1011" d="M53 0l252 1434h135l-149 -856l561 446h188l-618 -492l459 -532h-164l-438 510l-91 -510h-135z" />
<glyph unicode="l" horiz-adv-x="423" d="M55 0l107 612l155 883h136l-156 -883l-107 -612h-135z" />
<glyph unicode="m" horiz-adv-x="1736" d="M53 0l180 1024h136l-23 -133q137 158 334 158q102 0 176 -49.5t105 -141.5q143 191 366 191q162 0 254 -111q68 -82 68 -205q0 -44 -9 -94l-112 -639h-135l112 639q7 39 7 73q0 82 -40 133q-56 73 -172 73q-121 0 -212 -78t-125 -246l-105 -594h-135l113 639q7 42 7 77 q1 80 -35 130q-52 72 -163 72q-123 0 -221 -81t-133 -249l-103 -588h-135z" />
<glyph unicode="n" horiz-adv-x="1142" d="M53 0l180 1024h136l-25 -143q140 168 363 168q186 0 278 -115q68 -85 68 -210q0 -45 -9 -95l-110 -629h-135l110 629q7 40 7 75q0 86 -40 139q-56 75 -194 75q-143 0 -250.5 -88.5t-144.5 -272.5l-99 -557h-135z" />
<glyph unicode="o" horiz-adv-x="1243" d="M84 522q43 248 230.5 387.5t404.5 139.5q211 -1 347 -151q103 -114 103 -282q0 -53 -10 -112q-29 -172 -129 -295t-226 -178.5t-265 -55.5q-217 -1 -357 149q-108 114 -108 287q0 53 10 111zM219 512q-8 -47 -8 -90q1 -130 77 -210q100 -106 257 -106h6q164 0 303 109 t172 303q8 46 8 87q0 126 -76 206q-102 107 -264 107q-164 -2 -302 -109t-173 -297z" />
<glyph unicode="p" horiz-adv-x="1306" d="M-18 -410l251 1434h136l-31 -174q165 199 444 199q215 0 346 -166q102 -128 102 -291q0 -49 -9 -100q-43 -246 -212 -381.5t-374 -135.5q-133 0 -243.5 62.5t-164.5 179.5l-110 -627h-135zM279 506q-6 -38 -6 -73q0 -135 83 -220q105 -107 269 -107q160 0 293.5 105 t166.5 291q7 40 7 77q0 123 -74 217q-96 122 -268 122q-168 0 -300.5 -108t-166.5 -271z" />
<glyph unicode="q" horiz-adv-x="1306" d="M86 532q43 246 212 381.5t374 135.5q133 0 244.5 -62.5t162.5 -179.5l39 217h135l-252 -1434h-135l103 586q-168 -201 -445 -201q-215 0 -346 166q-101 128 -101 291q0 48 9 100zM221 522q-7 -40 -7 -77q0 -123 74 -217q97 -122 269 -122q166 0 298 105.5t167 267.5l8 39 q5 35 5 68q0 137 -85 224q-106 108 -268 108q-160 0 -294 -104.5t-167 -291.5z" />
<glyph unicode="r" horiz-adv-x="645" d="M53 0l180 1024h136l-25 -143q126 160 318 160q17 0 34 -1l-24 -131q-139 0 -246 -82t-137 -258l-101 -569h-135z" />
<glyph unicode="s" horiz-adv-x="972" d="M51 219l121 64q16 -78 85 -127.5t173.5 -49.5t174 43.5t83.5 118.5q2 12 2 24q0 42 -28 74q-36 42 -100 61t-137 47t-133 58q-60 28 -94 92q-23 43 -23 98q0 26 5 54q20 115 125 194t250 79q256 0 346 -209l-119 -64q-23 72 -86 107t-145 35t-151.5 -40t-84.5 -120 q-2 -12 -2 -24q1 -52 45 -86q54 -42 137 -67.5t165 -56.5q82 -32 132 -101q37 -50 36 -119q0 -26 -5 -54q-23 -129 -130 -202t-273 -73q-150 0 -244 68t-125 176z" />
<glyph unicode="t" horiz-adv-x="770" d="M109 893l24 131h215l43 246l141 41l-51 -287h297l-24 -131h-295l-109 -621q-5 -28 -5 -51q1 -45 19 -69q28 -36 93 -36.5t161 3.5l-20 -119q-74 -11 -133 -11q-257 0 -257 209q0 34 7 74l111 621h-217z" />
<glyph unicode="u" horiz-adv-x="1142" d="M98 395l111 629h135l-111 -629q-7 -40 -6 -75q0 -86 40 -139q57 -75 194 -75q143 0 250.5 88.5t144.5 272.5l98 557h136l-181 -1024h-135l25 143q-139 -168 -363 -168q-186 0 -278 115q-68 85 -68 212q0 44 8 93z" />
<glyph unicode="v" horiz-adv-x="962" d="M111 1024h137l162 -877l471 877h151l-559 -1024h-164z" />
<glyph unicode="w" horiz-adv-x="1576" d="M152 1024h133l102 -850l418 850h137l-2 -4l119 -846l401 850h146l-496 -1024h-147l-119 825l-410 -825h-147z" />
<glyph unicode="x" horiz-adv-x="1044" d="M-49 0l493 537l-286 487h151l228 -387l356 387h174l-461 -502l307 -522h-151l-250 422l-387 -422h-174z" />
<glyph unicode="y" horiz-adv-x="1044" d="M10 -410l23 127q12 -1 24 -1q156 0 285 214l43 72l-274 1022h137l227 -870l488 870h151l-635 -1118q-92 -162 -213 -244q-108 -73 -227 -73q-14 0 -29 1z" />
<glyph unicode="z" horiz-adv-x="921" d="M-8 0l16 90l705 803h-543l23 131h737l-17 -90l-704 -803h584l-23 -131h-778z" />
<glyph unicode="{" horiz-adv-x="727" d="M127 653l25 131q115 0 170 39t77 162l60 342q35 193 141.5 270.5t286.5 61.5l-23 -131q-123 12 -185.5 -31t-84.5 -170l-59 -342q-23 -125 -73 -188.5t-134 -87.5q150 -47 112 -256l-59 -342q-25 -127 23.5 -170t173.5 -31l-23 -131q-180 -16 -260 69.5t-49 262.5l59 342 q23 123 -20 161.5t-158 38.5z" />
<glyph unicode="|" horiz-adv-x="462" d="M2 -410l332 1885h135l-332 -1885h-135z" />
<glyph unicode="}" horiz-adv-x="727" d="M-88 -221l22 131q123 -12 185.5 31t85.5 170l59 342q23 125 73 188.5t134 87.5q-150 47 -113 256l60 342q25 127 -23.5 170t-173.5 31l23 131q180 16 260 -70t49 -262l-59 -342q-23 -123 20 -162t158 -39l-25 -131q-115 0 -170 -39t-78 -161l-59 -342 q-35 -193 -141.5 -271t-286.5 -61z" />
<glyph unicode="~" horiz-adv-x="1216" d="M145 643q74 178 217.5 216t323.5 -85q90 -63 156.5 -70.5t108.5 28.5t79 116l113 -57q-74 -178 -214.5 -216t-324.5 84q-90 63 -156.5 70.5t-110.5 -29t-79 -114.5z" />
<glyph unicode="&#xa2;" horiz-adv-x="1134" d="M123 739q39 225 215 369.5t405 144.5q57 0 99 -8l94 189h111l-107 -217q166 -72 221 -230l-117 -59q-45 123 -163 168l-383 -774q47 -11 90 -11q117 0 216 55.5t159 149.5l108 -72q-78 -125 -211 -194.5t-295 -69.5q-63 0 -129 17l-96 -197h-111l115 233 q-127 70 -188.5 207.5t-32.5 298.5zM258 725q-20 -119 19.5 -217t128.5 -150l374 762q-14 2 -49 2q-174 0 -308 -113.5t-165 -283.5z" />
<glyph unicode="&#xa3;" horiz-adv-x="1198" d="M-8 0l24 139h193l80 453h-152l23 127h151l56 309q37 213 161.5 321.5t305.5 108.5q131 0 229 -73.5t139 -200.5l-119 -62q-74 197 -266 197q-115 0 -198.5 -71.5t-108.5 -219.5l-55 -309h473l-23 -127h-473l-80 -453h750l-25 -139h-1085z" />
<glyph unicode="&#xa5;" horiz-adv-x="1177" d="M121 350l20 119h367l22 123h-366l20 119h340l-342 723h148l299 -633l522 633h168l-598 -723h344l-21 -119h-370l-23 -123h371l-21 -119h-370l-62 -350h-143l61 350h-366z" />
<glyph unicode="&#xa8;" horiz-adv-x="655" d="M176 1270q6 39 38 65.5t71 26.5t60.5 -26.5t14.5 -65.5q-8 -39 -38.5 -65.5t-69.5 -26.5t-61.5 26.5t-14.5 65.5zM565 1270q6 39 38 65.5t71 26.5t60.5 -26.5t15.5 -65.5q-8 -39 -39 -65.5t-70 -26.5t-61.5 26.5t-14.5 65.5z" />
<glyph unicode="&#xa9;" horiz-adv-x="1646" d="M121 729q53 307 306 518t564 211q303 0 482.5 -223t125.5 -530q-55 -307 -307 -518.5t-563 -211.5q-303 0 -483 223.5t-125 530.5zM182 717q-51 -285 112.5 -484.5t444.5 -199.5q285 0 516.5 199.5t282.5 484.5q49 285 -113.5 484.5t-443.5 199.5q-285 0 -517.5 -200 t-281.5 -484zM469 729q29 166 158 273.5t301 107.5q102 0 185 -53t126 -139l-113 -58q-72 123 -221 123q-117 0 -199.5 -79t-103.5 -187q-18 -106 39 -186t170 -80q74 0 142.5 33.5t111.5 99.5l104 -70q-63 -88 -161 -139t-211 -51q-162 0 -259.5 120.5t-68.5 284.5z" />
<glyph unicode="&#xab;" horiz-adv-x="1017" d="M164 633l291 368h178l-297 -378l158 -359h-168zM492 633l290 368h179l-297 -378l157 -359h-168z" />
<glyph unicode="&#xad;" d="M174 567l23 131h737l-23 -131h-737z" />
<glyph unicode="&#xae;" horiz-adv-x="1646" d="M121 729q53 307 306 518t564 211q303 0 482.5 -223t125.5 -530q-55 -307 -307 -518.5t-563 -211.5q-303 0 -483 223.5t-125 530.5zM182 717q-51 -285 113 -484.5t444 -199.5q285 0 516.5 199.5t282.5 484.5q49 285 -113.5 484.5t-443.5 199.5q-285 0 -517.5 -200 t-281.5 -484zM567 338l133 758h242q129 0 191.5 -75t44.5 -177q-29 -166 -181 -215l111 -291h-133l-98 270h-21h-115l-47 -270h-127zM764 731h123q144 0 164 121q23 121 -121 121h-125z" />
<glyph unicode="&#xb4;" horiz-adv-x="407" d="M156 1167h135l237 267h-168z" />
<glyph unicode="&#xb8;" horiz-adv-x="501" d="M-127 -442l21 110q295 -25 311 74q8 43 -40 64.5t-136 19.5l30 174h121l-16 -92q82 -16 126 -64.5t34 -111.5q-16 -92 -114.5 -141.5t-336.5 -32.5z" />
<glyph unicode="&#xbb;" horiz-adv-x="1019" d="M100 264l297 379l-157 358h168l161 -368l-290 -369h-179zM428 264l297 379l-158 358h168l162 -368l-291 -369h-178z" />
<glyph unicode="&#x2c6;" horiz-adv-x="675" d="M156 1167l262 267h160l172 -267h-148l-113 179l-174 -179h-159z" />
<glyph unicode="&#x2da;" horiz-adv-x="518" d="M186.5 1337q14.5 88 84 143.5t163.5 55.5q100 0 149.5 -62.5t37.5 -148.5q-14 -88 -83 -143.5t-165 -55.5q-100 0 -150.5 61.5t-36 149.5zM299 1331q-8 -45 15.5 -72.5t70.5 -27.5q49 0 83 28.5t42 71.5q8 45 -16.5 73t-71.5 28q-45 0 -80 -27t-43 -74z" />
<glyph unicode="&#x2dc;" horiz-adv-x="655" d="M160 1188q20 123 74.5 182.5t119 55t127.5 -59.5q33 -29 52.5 -43t41 -22.5t35 2t25.5 37t20 73.5h119q-20 -123 -73.5 -182.5t-118 -55t-127.5 59.5q-41 35 -64.5 50t-47.5 17.5t-39 -26.5t-25 -88h-119z" />
<glyph unicode="&#x401;" horiz-adv-x="1085" d="M74 0l252 1434h829l-22 -136h-689l-88 -507h635l-24 -136h-635l-90 -520h696l-25 -135h-839zM498 1679q6 39 37.5 66t70.5 27t60.5 -27t15.5 -66q-8 -39 -39 -65.5t-69.5 -26.5t-61.5 26.5t-14 65.5zM887 1679q6 39 37.5 66t70.5 27t60.5 -27t15.5 -66q-8 -39 -39 -65.5 t-69.5 -26.5t-61 26.5t-14.5 65.5z" />
<glyph unicode="&#x402;" horiz-adv-x="1409" d="M180 1298l23 136h1003l-22 -136h-463l-70 -401q164 70 320 70q178 0 273 -98.5t65 -290.5l-43 -242q-68 -381 -430 -352l22 131q117 -12 179.5 39t84.5 182l43 242q23 139 -31.5 198.5t-177.5 59.5q-158 0 -329 -78l-133 -758h-144l228 1298h-398z" />
<glyph unicode="&#x403;" horiz-adv-x="1003" d="M74 0l252 1434h798l-22 -136h-658l-227 -1298h-143zM651 1575l205 266h168l-238 -266h-135z" />
<glyph unicode="&#x404;" horiz-adv-x="1525" d="M121 737q55 309 296.5 515t547.5 206q209 0 360.5 -95t226.5 -261l-127 -68q-128 285 -462 285q-244 0 -434.5 -151.5t-254.5 -383.5h791l-25 -135h-788q-16 -233 122 -383.5t380 -150.5q166 0 310 77.5t236 215.5l121 -76q-115 -164 -297 -260.5t-387 -96.5 q-324 0 -497.5 225.5t-118.5 536.5z" />
<glyph unicode="&#x405;" horiz-adv-x="1196" d="M49 326l125 65q25 -129 120 -202.5t257 -73.5q152 0 254 63.5t127 173.5q33 154 -146 242q-55 27 -172 68q-88 31 -148 60.5t-127 81.5t-92.5 128t-4.5 174q35 172 175 262t310 90q178 0 287.5 -86t156.5 -219l-127 -66q-76 231 -325 232q-119 0 -215 -59.5t-119 -167.5 q-14 -66 4.5 -116t73.5 -87t102 -58.5t131 -50.5q211 -76 293 -153q119 -115 84 -291t-180 -268.5t-346 -92.5q-199 0 -328 92.5t-170 258.5z" />
<glyph unicode="&#x406;" horiz-adv-x="471" d="M74 0l252 1434h143l-252 -1434h-143z" />
<glyph unicode="&#x407;" horiz-adv-x="471" d="M74 0l252 1434h143l-252 -1434h-143zM154 1679q6 39 37.5 66t70.5 27t60.5 -27t15.5 -66q-8 -39 -39 -65.5t-70 -26.5t-61.5 26.5t-13.5 65.5zM543 1679q6 39 37.5 66t70.5 27t60.5 -27t15.5 -66q-8 -39 -39 -65.5t-69.5 -26.5t-61 26.5t-14.5 65.5z" />
<glyph unicode="&#x408;" horiz-adv-x="1132" d="M33 229l129 70q55 -184 289 -184q147 0 247.5 71.5t126.5 219.5l181 1028h143l-180 -1033q-39 -219 -186.5 -322.5t-342.5 -103.5q-322 0 -407 254z" />
<glyph unicode="&#x409;" horiz-adv-x="2039" d="M-59 -2l22 127q145 -20 239.5 93.5t149.5 418.5l140 797h868l-109 -615h330q176 0 281.5 -123t75 -299t-174 -286.5t-327.5 -110.5h-471l229 1298h-582l-118 -665q-35 -201 -88.5 -332t-125 -198.5t-152.5 -90t-187 -14.5zM1133 135h327q121 0 217.5 79t116.5 200 q20 119 -48.5 194.5t-189.5 75.5h-327z" />
<glyph unicode="&#x40a;" horiz-adv-x="2009" d="M74 0l252 1434h143l-109 -615h717l109 615h143l-108 -615h329q176 0 281.5 -123t75 -299t-174 -286.5t-327.5 -110.5h-471l121 684h-717l-121 -684h-143zM1102 135h328q121 0 217 79t116 200q20 119 -48 194.5t-189 75.5h-328z" />
<glyph unicode="&#x40b;" horiz-adv-x="1419" d="M180 1298l23 136h1003l-22 -136h-463l-70 -401q164 70 320 70q178 0 273 -98.5t65 -290.5l-103 -578h-143l102 578q23 139 -31.5 198.5t-177.5 59.5q-158 0 -329 -78l-133 -758h-144l228 1298h-398z" />
<glyph unicode="&#x40c;" horiz-adv-x="1183" d="M74 0l252 1434h143l-115 -660l766 660h193l-813 -707l573 -727h-170l-561 709l-125 -709h-143zM672 1575l205 266h167l-237 -266h-135z" />
<glyph unicode="&#x40e;" horiz-adv-x="1167" d="M143 0l23 127q115 -10 195.5 37t148.5 162l43 71l-330 1037h139l281 -883l518 883h148l-654 -1121q-102 -176 -223 -249.5t-289 -63.5zM522 1595l21 119h532l-20 -119h-533z" />
<glyph unicode="&#x40f;" horiz-adv-x="1351" d="M74 0l252 1434h143l-227 -1299h737l227 1299h144l-252 -1434h-441l-49 -274h-143l49 274h-440z" />
<glyph unicode="&#x410;" horiz-adv-x="1290" d="M-70 0l803 1434h148l299 -1434h-148l-69 352h-680l-197 -352h-156zM356 487h580l-152 768z" />
<glyph unicode="&#x411;" horiz-adv-x="1202" d="M74 0l252 1434h839l-22 -136h-699l-75 -438h389q170 0 278.5 -136t75.5 -314q-31 -176 -175 -293t-331 -117h-532zM242 135h389q121 0 220 87t122 208q25 129 -47 212t-193 83h-389z" />
<glyph unicode="&#x412;" horiz-adv-x="1269" d="M74 0l252 1434h546q168 0 270 -117t77 -279q-31 -199 -220 -299q92 -47 138.5 -140t27.5 -210q-25 -162 -155.5 -275.5t-311.5 -113.5h-624zM242 135h469q115 0 205 78t108 186.5t-42 186.5t-167 78h-481zM358 799h433q100 0 184 72.5t102.5 177t-42 177t-167.5 72.5 h-424z" />
<glyph unicode="&#x413;" horiz-adv-x="1003" d="M74 0l252 1434h798l-22 -136h-658l-227 -1298h-143z" />
<glyph unicode="&#x414;" horiz-adv-x="1413" d="M-106 -274l71 409h115q172 166 233 512l138 787h899l-228 -1299h154l-72 -409h-143l47 274h-1024l-47 -274h-143zM258 135h721l205 1163h-613l-116 -655q-60 -336 -197 -508z" />
<glyph unicode="&#x415;" horiz-adv-x="1085" d="M74 0l252 1434h829l-22 -136h-689l-88 -507h635l-24 -136h-635l-90 -520h696l-25 -135h-839z" />
<glyph unicode="&#x416;" horiz-adv-x="1740" d="M-49 0l751 752l-479 682h152l469 -662l117 662h143l-117 -660l676 660h178l-725 -711l494 -723h-152l-483 700l-123 -700h-143l122 700l-698 -700h-182z" />
<glyph unicode="&#x417;" horiz-adv-x="1161" d="M45 299l129 66q33 -119 105.5 -186.5t238.5 -67.5t269.5 79.5t125.5 204.5q20 121 -51 195t-221 74h-164l23 135h112q145 0 245.5 77.5t121.5 194.5q20 111 -53.5 181.5t-212.5 70.5q-240 0 -379 -231l-115 75q174 291 518 291q199 0 306.5 -118.5t76.5 -288.5 q-37 -217 -252 -314q109 -47 158 -142t29 -218q-33 -182 -175.5 -292t-385.5 -110q-193 0 -302.5 92.5t-146.5 231.5z" />
<glyph unicode="&#x418;" horiz-adv-x="1392" d="M74 0l252 1434h143l-205 -1155l1004 1155h123l-252 -1434h-144l203 1155l-1001 -1155h-123z" />
<glyph unicode="&#x419;" horiz-adv-x="1392" d="M74 0l252 1434h143l-205 -1155l1004 1155h123l-252 -1434h-144l203 1155l-1001 -1155h-123zM621 1597l20 119h533l-21 -119h-532z" />
<glyph unicode="&#x41a;" horiz-adv-x="1183" d="M74 0l252 1434h143l-115 -660l766 660h193l-813 -707l573 -727h-170l-561 709l-125 -709h-143z" />
<glyph unicode="&#x41b;" horiz-adv-x="1423" d="M-59 -2l22 127q145 -20 239.5 93.5t149.5 418.5l140 797h929l-252 -1434h-143l229 1298h-643l-118 -665q-37 -203 -90.5 -335t-127 -198.5t-152.5 -88t-183 -13.5z" />
<glyph unicode="&#x41c;" horiz-adv-x="1638" d="M74 0l252 1434h168l340 -807l622 807h180l-252 -1434h-143l211 1206l-639 -829h-20l-361 852l-215 -1229h-143z" />
<glyph unicode="&#x41d;" horiz-adv-x="1392" d="M74 0l252 1434h143l-111 -629h779l110 629h144l-252 -1434h-144l117 670h-778l-117 -670h-143z" />
<glyph unicode="&#x41e;" horiz-adv-x="1654" d="M121 737q53 309 298 515t564 206q205 0 360.5 -107.5t225 -284.5t35.5 -380q-55 -309 -299 -510t-568 -201q-309 0 -490 226.5t-126 535.5zM264 717q-45 -252 97.5 -427t400.5 -175q262 0 457.5 169t240.5 423q43 254 -99 433t-403 179q-258 0 -454.5 -174t-239.5 -428z " />
<glyph unicode="&#x41f;" horiz-adv-x="1351" d="M74 0l252 1434h1024l-252 -1434h-144l228 1298h-738l-227 -1298h-143z" />
<glyph unicode="&#x420;" horiz-adv-x="1206" d="M74 0l252 1434h501q203 0 308.5 -129t72.5 -322q-33 -195 -184.5 -323t-386.5 -128h-326l-94 -532h-143zM334 668h319q170 0 280.5 95.5t135.5 240.5q23 135 -47 214.5t-209 79.5h-369z" />
<glyph unicode="&#x421;" horiz-adv-x="1525" d="M121 737q55 309 296.5 515t547.5 206q209 0 360.5 -95t226.5 -261l-127 -68q-129 285 -462 285q-262 0 -461 -174t-242 -428q-43 -258 96.5 -430t397.5 -172q166 0 310 77.5t236 215.5l121 -76q-115 -164 -297 -260.5t-387 -96.5q-324 0 -497.5 225.5t-118.5 536.5z" />
<glyph unicode="&#x422;" horiz-adv-x="1105" d="M180 1298l23 136h1024l-23 -136h-442l-227 -1298h-144l227 1298h-438z" />
<glyph unicode="&#x423;" horiz-adv-x="1167" d="M143 0l23 127q115 -10 195.5 37t148.5 162l43 71l-330 1037h139l281 -883l518 883h148l-654 -1121q-102 -176 -223 -249.5t-289 -63.5z" />
<glyph unicode="&#x424;" horiz-adv-x="1650" d="M100 727q43 250 257 391.5t530 153.5l28 162h144l-29 -162q299 -18 469 -168t125 -397q-45 -252 -258 -392.5t-530 -152.5l-29 -162h-143l28 162q-195 12 -337 79.5t-213.5 193.5t-41.5 292zM244 716.5q-35 -196.5 93 -304t378 -119.5l149 848q-254 -12 -419.5 -120 t-200.5 -304.5zM858 293q254 12 421 119.5t202 304t-94.5 304t-378.5 120.5z" />
<glyph unicode="&#x425;" horiz-adv-x="1187" d="M-49 0l606 750l-324 684h148l268 -570l461 570h168l-567 -701l346 -733h-148l-291 618l-499 -618h-168z" />
<glyph unicode="&#x426;" horiz-adv-x="1413" d="M74 0l252 1434h143l-227 -1299h737l227 1299h144l-228 -1299h154l-72 -409h-143l47 274h-1034z" />
<glyph unicode="&#x427;" horiz-adv-x="1280" d="M205 922l90 512h143l-90 -512q-23 -131 48 -203t253 -72q176 0 361 72l125 715h143l-252 -1434h-143l102 578q-174 -66 -356 -66q-238 0 -347.5 114.5t-76.5 295.5z" />
<glyph unicode="&#x428;" horiz-adv-x="1945" d="M74 0l252 1434h143l-227 -1299h594l227 1299h143l-227 -1299h594l227 1299h144l-252 -1434h-1618z" />
<glyph unicode="&#x429;" horiz-adv-x="2007" d="M74 0l252 1434h143l-227 -1299h594l227 1299h143l-227 -1299h594l227 1299h144l-228 -1299h152l-72 -409h-143l49 274h-1628z" />
<glyph unicode="&#x42a;" horiz-adv-x="1435" d="M139 1298l23 136h532l-94 -533h358q186 0 300 -140t81 -331q-33 -193 -179 -311.5t-349 -118.5h-512l227 1298h-387zM467 135h367q133 0 235 89t127 226.5t-47 226.5t-213 89h-358z" />
<glyph unicode="&#x42b;" horiz-adv-x="1587" d="M74 0l252 1434h143l-94 -533h358q186 0 300 -140t81 -331q-33 -193 -179.5 -311.5t-348.5 -118.5h-512zM242 135h366q133 0 235.5 89t127 226.5t-47 226.5t-212.5 89h-359zM1190 0l252 1434h143l-252 -1434h-143z" />
<glyph unicode="&#x42c;" horiz-adv-x="1210" d="M74 0l252 1434h143l-94 -533h358q186 0 300 -140t81 -331q-33 -193 -179.5 -311.5t-348.5 -118.5h-512zM242 135h366q133 0 235.5 89t127 226.5t-47 226.5t-212.5 89h-359z" />
<glyph unicode="&#x42d;" horiz-adv-x="1513" d="M43 336l131 70q49 -135 167 -213t290 -78q244 0 428 150.5t248 383.5h-787l25 135h784q20 236 -111 385.5t-372 149.5q-174 0 -318.5 -81t-232.5 -218l-121 76q111 164 295 263t393 99q213 0 364.5 -106.5t212 -278.5t25.5 -373q-51 -305 -283.5 -515t-559.5 -210 q-215 0 -365 96.5t-213 264.5z" />
<glyph unicode="&#x42e;" horiz-adv-x="2134" d="M74 0l252 1434h143l-111 -629h267q74 285 306 469t531 184q205 0 360.5 -107.5t225.5 -284.5t35 -380q-55 -309 -299 -510t-567 -201q-291 0 -466.5 203t-148.5 492h-268l-117 -670h-143zM743 717q-45 -252 97.5 -427t400.5 -175q262 0 457.5 169t240.5 423 q43 254 -99 433t-402 179q-258 0 -455 -174t-240 -428z" />
<glyph unicode="&#x42f;" horiz-adv-x="1269" d="M-29 0l504 584q-150 33 -231.5 156.5t-55.5 279.5q33 178 177.5 296t336.5 118h566l-252 -1434h-144l101 573h-334l-494 -573h-174zM332 1010q-23 -125 50 -213t206 -88h409l103 589h-420q-125 0 -225.5 -82.5t-122.5 -205.5z" />
<glyph unicode="&#x430;" horiz-adv-x="1306" d="M86 532q43 246 212 381.5t374 135.5q133 0 243.5 -62.5t163.5 -179.5l39 217h135l-180 -1024h-135l31 174q-166 -199 -445 -199q-215 0 -346 166t-92 391zM221 522q-29 -172 67.5 -294t268.5 -122q168 0 301 108t166 273l4 25q29 188 -76.5 297t-269.5 109 q-160 0 -294 -104.5t-167 -291.5z" />
<glyph unicode="&#x431;" horiz-adv-x="1163" d="M80 502q45 264 146.5 405.5t357.5 255.5q49 23 128 53.5t119.5 48t90 46t79 65.5t46.5 88l102 -61q-16 -49 -49 -92t-62.5 -70t-89 -58.5t-91.5 -45t-110.5 -44t-105.5 -40.5q-147 -59 -225 -121t-125 -160q160 160 405 160q190 0 310 -141.5t84 -346.5 q-37 -209 -197 -339t-381 -130q-211 0 -342 148.5t-90 378.5zM215 475q-27 -156 63 -260t248 -104q162 0 282 97t146.5 246.5t-57.5 248t-238 98.5q-152 0 -284.5 -87t-159.5 -239z" />
<glyph unicode="&#x432;" horiz-adv-x="1021" d="M53 0l180 1024h457q135 0 210 -84t52 -203q-27 -152 -157 -215q74 -33 107.5 -98.5t17.5 -149.5q-20 -125 -114.5 -199.5t-254.5 -74.5h-498zM211 131h362q86 0 143.5 44t71.5 120q12 72 -28.5 114t-130.5 42h-361zM291 582h309q90 0 147.5 41.5t69.5 117.5 q14 72 -25.5 112t-125.5 40h-320z" />
<glyph unicode="&#x433;" horiz-adv-x="808" d="M53 0l180 1024h656l-23 -131h-520l-158 -893h-135z" />
<glyph unicode="&#x434;" horiz-adv-x="1208" d="M-98 -274l71 405h125q127 133 174 387l88 506h734l-158 -893h143l-71 -405h-136l50 274h-836l-49 -274h-135zM268 131h533l135 762h-463l-65 -375q-40 -231 -140 -387z" />
<glyph unicode="&#x435;" horiz-adv-x="1196" d="M86 532q39 225 212 371t396 146q231 0 353 -160t77 -381q-6 -37 -16 -64h-895q-6 -156 87 -247t255 -91q236 0 363 177l106 -70q-74 -113 -208 -175.5t-279 -62.5q-238 0 -365 160t-86 397zM233 575h762q12 168 -73.5 255.5t-235.5 87.5q-162 0 -284 -93.5t-169 -249.5z " />
<glyph unicode="&#x436;" horiz-adv-x="1376" d="M-49 0l551 545l-355 479h154l328 -455l80 455h135l-82 -463l479 463h164l-520 -504l360 -520h-147l-346 500l-88 -500h-136l88 498l-505 -498h-160z" />
<glyph unicode="&#x437;" horiz-adv-x="913" d="M10 221l119 64q33 -178 266 -179q119 0 193 51.5t86 131.5q14 72 -32 117t-136 45h-150l25 131h108q88 0 145.5 44t72.5 122q12 74 -40.5 122t-158.5 48q-193 0 -279 -158l-106 69q141 219 399 220q168 0 254 -94.5t66 -219.5q-29 -158 -166 -217q74 -39 109.5 -107.5 t21.5 -150.5q-23 -125 -133.5 -205t-294.5 -80q-166 0 -256 69t-113 177z" />
<glyph unicode="&#x438;" horiz-adv-x="1146" d="M53 0l180 1024h136l-138 -778l748 778h115l-181 -1024h-135l135 778l-745 -778h-115z" />
<glyph unicode="&#x439;" horiz-adv-x="1146" d="M53 0l180 1024h136l-138 -778l748 778h115l-181 -1024h-135l135 778l-745 -778h-115zM426 1188l20 119h533l-21 -119h-532z" />
<glyph unicode="&#x43a;" horiz-adv-x="1011" d="M53 0l180 1024h136l-78 -446l561 446h188l-618 -492l459 -532h-164l-438 510l-91 -510h-135z" />
<glyph unicode="&#x43b;" horiz-adv-x="1126" d="M-70 0l23 127q115 -12 183.5 55.5t101.5 253.5l102 588h733l-180 -1024h-135l157 893h-462l-80 -457q-47 -268 -157 -358t-286 -78z" />
<glyph unicode="&#x43c;" horiz-adv-x="1290" d="M53 0l180 1024h148l246 -561l446 561h164l-180 -1024h-135l143 813l-459 -577h-16l-258 583l-144 -819h-135z" />
<glyph unicode="&#x43d;" horiz-adv-x="1146" d="M53 0l180 1024h136l-78 -446h590l77 446h136l-181 -1024h-135l78 446h-590l-78 -446h-135z" />
<glyph unicode="&#x43e;" horiz-adv-x="1243" d="M84 522q43 248 230.5 387.5t404.5 139.5q211 0 347 -150.5t93 -394.5q-29 -172 -129 -295t-226 -178.5t-265 -55.5q-217 0 -357.5 149.5t-97.5 397.5zM219 512q-33 -193 68.5 -300.5t263.5 -105.5q164 0 303 109t172 303q33 186 -68.5 293t-263.5 107q-164 -2 -302 -109 t-173 -297z" />
<glyph unicode="&#x43f;" horiz-adv-x="1146" d="M53 0l180 1024h861l-181 -1024h-135l158 893h-590l-158 -893h-135z" />
<glyph unicode="&#x440;" horiz-adv-x="1306" d="M-18 -410l251 1434h136l-31 -174q165 199 444 199q215 0 346.5 -166t92.5 -391q-43 -246 -212 -381.5t-374 -135.5q-133 0 -243.5 62.5t-164.5 179.5l-110 -627h-135zM279 506q-27 -186 77.5 -293t268.5 -107q160 0 293.5 105t166.5 291q29 172 -67 294t-268 122 q-168 0 -300.5 -108t-166.5 -271z" />
<glyph unicode="&#x441;" horiz-adv-x="1132" d="M86 535q39 225 215 369.5t406 144.5q150 0 262 -72t155 -195l-116 -59q-33 90 -115 142.5t-199 52.5q-174 0 -308 -114t-165 -284q-29 -174 63.5 -294t266.5 -120q117 0 216 55.5t159 149.5l108 -71q-78 -125 -211 -195t-295 -70q-223 0 -353 165t-89 395z" />
<glyph unicode="&#x442;" horiz-adv-x="901" d="M88 893l23 131h860l-23 -131h-362l-158 -893h-135l158 893h-363z" />
<glyph unicode="&#x443;" horiz-adv-x="1044" d="M10 -410l23 127q170 -18 309 213l43 72l-274 1022h137l227 -870l488 870h151l-635 -1118q-92 -162 -213 -244t-256 -72z" />
<glyph unicode="&#x444;" horiz-adv-x="1376" d="M84 524q37 215 209 358.5t422 164.5l67 387h136l-68 -387q233 -23 356 -178.5t86 -368.5q-37 -215 -208 -358.5t-422 -164.5l-68 -387h-135l67 387q-233 23 -356 178.5t-86 368.5zM219 512q-29 -160 60.5 -271.5t271.5 -129.5l139 802q-188 -18 -315 -129.5t-156 -271.5z M686 111q188 18 316 129.5t155 271.5q29 160 -59 271.5t-273 129.5z" />
<glyph unicode="&#x445;" horiz-adv-x="1044" d="M-49 0l493 537l-286 487h151l228 -387l356 387h174l-461 -502l307 -522h-151l-250 422l-387 -422h-174z" />
<glyph unicode="&#x446;" horiz-adv-x="1208" d="M53 0l180 1024h136l-158 -893h569l158 893h135l-158 -893h164l-71 -405h-136l50 274h-869z" />
<glyph unicode="&#x447;" horiz-adv-x="1085" d="M135 696l58 328h135l-58 -328q-43 -242 219 -241q150 0 318 61l90 508h135l-180 -1024h-135l67 383q-150 -55 -301 -55q-199 0 -289 100t-59 268z" />
<glyph unicode="&#x448;" horiz-adv-x="1658" d="M53 0l180 1024h136l-158 -893h483l158 893h135l-158 -893h484l157 893h136l-181 -1024h-1372z" />
<glyph unicode="&#x449;" horiz-adv-x="1720" d="M53 0l180 1024h136l-158 -893h483l158 893h135l-158 -893h484l157 893h136l-158 -893h143l-71 -405h-136l50 274h-1381z" />
<glyph unicode="&#x44a;" horiz-adv-x="1107" d="M68 893l22 131h422l-68 -389h281q137 0 223 -96.5t62 -233.5q-25 -139 -136.5 -222t-261.5 -83h-415l157 893h-286zM354 131h281q86 0 155.5 51t84 135t-37 135.5t-137.5 51.5h-280z" />
<glyph unicode="&#x44b;" horiz-adv-x="1323" d="M53 0l180 1024h136l-68 -389h281q137 0 223 -96.5t61 -233.5q-25 -139 -136.5 -222t-260.5 -83h-416zM211 131h281q86 0 155.5 51t83.5 135t-37 135.5t-137 51.5h-281zM954 0l181 1024h135l-180 -1024h-136z" />
<glyph unicode="&#x44c;" horiz-adv-x="964" d="M53 0l180 1024h136l-68 -389h281q137 0 223 -96.5t61 -233.5q-25 -139 -136.5 -222t-260.5 -83h-416zM211 131h281q86 0 155.5 51t83.5 135t-37 135.5t-137 51.5h-281z" />
<glyph unicode="&#x44d;" horiz-adv-x="1132" d="M8 242l117 59q66 -195 313 -195q158 0 286 95.5t173 244.5h-510l25 132h506q4 150 -85.5 245t-250.5 95q-117 0 -216.5 -55.5t-158.5 -149.5l-109 71q78 125 211 195t295 70q229 0 356 -164t87 -396q-39 -227 -213.5 -370.5t-407.5 -143.5q-150 0 -262.5 72t-155.5 195z " />
<glyph unicode="&#x44e;" horiz-adv-x="1638" d="M53 0l180 1024h136l-78 -446h211q57 223 233 347t379 124q211 0 347 -150.5t93 -394.5q-29 -172 -129 -295t-226 -178.5t-265 -55.5q-197 0 -331 127t-122 344h-215l-78 -446h-135zM614 512q-33 -193 68.5 -300.5t263.5 -105.5q164 0 303 108.5t172 303.5 q33 186 -68.5 293t-262.5 107q-164 -2 -302.5 -109t-173.5 -297z" />
<glyph unicode="&#x44f;" horiz-adv-x="1024" d="M-8 0l391 399q-113 25 -179.5 113t-45.5 207q25 137 137.5 221t259.5 84h416l-180 -1024h-136l70 393h-186l-381 -393h-166zM293 707q-14 -84 37 -135.5t137 -51.5h281l65 373h-281q-86 0 -155.5 -51t-83.5 -135z" />
<glyph unicode="&#x451;" horiz-adv-x="1196" d="M86 532q39 225 212 371t396 146q231 0 353 -160t77 -381q-6 -37 -16 -64h-895q-6 -156 87 -247t255 -91q236 0 363 177l106 -70q-74 -113 -208 -175.5t-279 -62.5q-238 0 -365 160t-86 397zM233 575h762q12 168 -73.5 255.5t-235.5 87.5q-162 0 -284 -93.5t-169 -249.5z M463 1270q6 39 37.5 65.5t70.5 26.5t60.5 -26.5t15.5 -65.5q-8 -39 -38.5 -65.5t-69.5 -26.5t-61.5 26.5t-14.5 65.5zM852 1270q6 39 38 65.5t70.5 26.5t60 -26.5t15.5 -65.5q-8 -39 -38.5 -65.5t-69.5 -26.5t-61.5 26.5t-14.5 65.5z" />
<glyph unicode="&#x452;" horiz-adv-x="1163" d="M74 0l207 1180h-142l19 110h143l25 144h135l-25 -144h295l-18 -110h-297l-51 -299q141 168 362 168q186 0 278.5 -115t59.5 -305l-125 -711q-66 -377 -430 -352l22 131q227 -25 273 221l125 711q23 139 -33.5 214t-194.5 75q-145 0 -252.5 -90.5t-144.5 -276.5l-96 -551 h-135z" />
<glyph unicode="&#x453;" horiz-adv-x="808" d="M53 0l180 1024h656l-23 -131h-520l-158 -893h-135zM436 1167l205 267h168l-238 -267h-135z" />
<glyph unicode="&#x454;" horiz-adv-x="1132" d="M86 535q39 225 215 369.5t406 144.5q150 0 262 -72t155 -195l-116 -59q-33 90 -115 142.5t-199 52.5q-158 0 -284.5 -95.5t-173.5 -244.5h509l-24 -132h-506q-2 -147 90 -243.5t246 -96.5q117 0 216 55.5t159 149.5l108 -71q-78 -125 -211 -195t-295 -70q-223 0 -353 165 t-89 395z" />
<glyph unicode="&#x455;" horiz-adv-x="972" d="M51 219l121 64q16 -78 85 -127.5t173.5 -49.5t174 43.5t83.5 118.5q10 57 -26.5 98.5t-100 60.5t-136.5 47t-133.5 57.5t-94 93t-17.5 151.5q20 115 125 194t250 79q256 0 346 -209l-119 -64q-23 72 -86 107t-145 35t-151.5 -40t-84.5 -120q-12 -68 42.5 -110 t137.5 -67.5t164.5 -57t132 -100.5t31.5 -173q-23 -129 -130 -202t-273 -73q-150 0 -244 68t-125 176z" />
<glyph unicode="&#x456;" horiz-adv-x="421" d="M53 0l180 1024h136l-181 -1024h-135zM258 1339q6 41 39 70t76 29q41 0 65.5 -29t16 -70t-40 -69.5t-76.5 -28.5q-41 0 -63.5 28.5t-16.5 69.5z" />
<glyph unicode="&#x457;" horiz-adv-x="421" d="M53 0l180 1024h136l-181 -1024h-135zM57 1270q6 39 38 65.5t71 26.5t60.5 -26.5t15.5 -65.5q-8 -39 -39 -65.5t-70 -26.5t-61.5 26.5t-14.5 65.5zM446 1270q6 39 38 65.5t71 26.5t60.5 -26.5t15.5 -65.5q-8 -39 -39 -65.5t-70 -26.5t-61.5 26.5t-14.5 65.5z" />
<glyph unicode="&#x458;" horiz-adv-x="471" d="M-207 -434l23 131q117 -12 183 40t89 181l195 1106h135l-195 -1106q-35 -205 -142.5 -287t-287.5 -65zM307 1339q6 41 39 70t76 29q41 0 65.5 -29t16.5 -70t-40 -69.5t-77 -28.5q-41 0 -63.5 28.5t-16.5 69.5z" />
<glyph unicode="&#x459;" horiz-adv-x="1619" d="M-70 0l23 127q115 -14 182.5 53.5t102.5 255.5l102 588h713l-76 -430h270q131 0 213 -86t57.5 -223.5t-128 -211t-246.5 -73.5h-406l158 893h-442l-80 -457q-45 -262 -157 -355t-286 -81zM895 131h270q82 0 142.5 42t75 124t-30.5 124t-127 42h-271z" />
<glyph unicode="&#x45a;" horiz-adv-x="1619" d="M53 0l180 1024h136l-76 -430h549l76 430h135l-76 -430h270q131 0 213 -86t57.5 -223.5t-128 -211t-246.5 -73.5h-406l82 463h-549l-82 -463h-135zM895 131h270q82 0 142.5 42t75 124t-30.5 124t-127 42h-271z" />
<glyph unicode="&#x45b;" horiz-adv-x="1163" d="M74 0l207 1180h-142l19 110h143l25 144h135l-25 -144h295l-18 -110h-297l-51 -299q141 168 362 168q186 0 278.5 -115t59.5 -305l-111 -629h-135l111 629q23 139 -33.5 214t-194.5 75q-145 0 -252.5 -90.5t-144.5 -276.5l-96 -551h-135z" />
<glyph unicode="&#x45c;" horiz-adv-x="1011" d="M53 0l180 1024h136l-78 -446l561 446h188l-618 -492l459 -532h-164l-438 510l-91 -510h-135zM518 1167l205 267h168l-238 -267h-135z" />
<glyph unicode="&#x45e;" horiz-adv-x="1044" d="M10 -410l23 127q170 -18 309 213l43 72l-274 1022h137l227 -870l488 870h151l-635 -1118q-92 -162 -213 -244t-256 -72zM340 1188l20 119h533l-21 -119h-532z" />
<glyph unicode="&#x45f;" horiz-adv-x="1146" d="M53 0l180 1024h136l-158 -893h590l157 893h136l-181 -1024h-362l-49 -274h-135l49 274h-363z" />
<glyph unicode="&#x490;" horiz-adv-x="1003" d="M74 0l252 1434h657l43 245h143l-67 -381h-658l-227 -1298h-143z" />
<glyph unicode="&#x491;" horiz-adv-x="808" d="M53 0l180 1024h521l37 213h135l-60 -344h-520l-158 -893h-135z" />
<glyph unicode="&#x2000;" horiz-adv-x="920" />
<glyph unicode="&#x2001;" horiz-adv-x="1841" />
<glyph unicode="&#x2002;" horiz-adv-x="920" />
<glyph unicode="&#x2003;" horiz-adv-x="1841" />
<glyph unicode="&#x2004;" horiz-adv-x="613" />
<glyph unicode="&#x2005;" horiz-adv-x="460" />
<glyph unicode="&#x2006;" horiz-adv-x="306" />
<glyph unicode="&#x2007;" horiz-adv-x="306" />
<glyph unicode="&#x2008;" horiz-adv-x="230" />
<glyph unicode="&#x2009;" horiz-adv-x="368" />
<glyph unicode="&#x200a;" horiz-adv-x="102" />
<glyph unicode="&#x2010;" d="M174 567l23 131h737l-23 -131h-737z" />
<glyph unicode="&#x2011;" d="M174 567l23 131h737l-23 -131h-737z" />
<glyph unicode="&#x2012;" d="M174 567l23 131h737l-23 -131h-737z" />
<glyph unicode="&#x2013;" horiz-adv-x="1329" d="M174 567l23 131h1001l-22 -131h-1002z" />
<glyph unicode="&#x2014;" horiz-adv-x="1533" d="M174 567l23 131h1206l-23 -131h-1206z" />
<glyph unicode="&#x2018;" horiz-adv-x="493" d="M205 973l205 461h122l-163 -461h-164z" />
<glyph unicode="&#x2019;" horiz-adv-x="493" d="M205 973l164 461h163l-204 -461h-123z" />
<glyph unicode="&#x201a;" horiz-adv-x="491" d="M-18 -287l163 461h164l-205 -461h-122z" />
<glyph unicode="&#x201c;" horiz-adv-x="780" d="M205 973l205 461h122l-163 -461h-164zM492 973l204 461h123l-164 -461h-163z" />
<glyph unicode="&#x201d;" horiz-adv-x="780" d="M205 973l164 461h163l-204 -461h-123zM492 973l163 461h164l-205 -461h-122z" />
<glyph unicode="&#x201e;" horiz-adv-x="778" d="M-18 -287l163 461h164l-205 -461h-122zM268 -287l164 461h164l-205 -461h-123z" />
<glyph unicode="&#x2020;" horiz-adv-x="983" d="M203 965l22 131h301l60 338h135l-59 -338h301l-23 -131h-301l-170 -965h-135l170 965h-301z" />
<glyph unicode="&#x2021;" horiz-adv-x="983" d="M92 338l23 131h301l88 496h-301l22 131h301l60 338h135l-59 -338h301l-23 -131h-301l-88 -496h301l-23 -131h-301l-59 -338h-135l59 338h-301z" />
<glyph unicode="&#x2022;" horiz-adv-x="614" d="M141 727q16 84 84 139.5t156 55.5q84 0 133 -62.5t32.5 -148.5t-83 -142.5t-154.5 -56.5q-86 0 -135 64.5t-33 150.5z" />
<glyph unicode="&#x2026;" horiz-adv-x="1249" d="M49 94q8 47 44 79t87 32q47 0 75 -34t19 -81q-10 -49 -45 -79.5t-88 -30.5q-47 0 -73.5 33.5t-18.5 80.5zM438 94q8 47 44 79t87 32q47 0 75 -34t20 -81q-10 -49 -45.5 -79.5t-88.5 -30.5q-47 0 -73.5 33.5t-18.5 80.5zM827.5 94q8.5 47 44 79t86.5 32q47 0 75 -34 t20 -81q-10 -49 -45 -79.5t-88 -30.5q-47 0 -74 33.5t-18.5 80.5z" />
<glyph unicode="&#x202f;" horiz-adv-x="368" />
<glyph unicode="&#x2030;" horiz-adv-x="2181" d="M135 197l1151 1079l88 -53l-1153 -1080zM237.5 1159q22.5 129 127 214t241.5 85q131 0 206 -93t52.5 -222t-125 -214t-241.5 -85q-131 0 -207 93t-53.5 222zM368.5 1151q-14.5 -78 27.5 -131t122 -53t140.5 53t75 131t-27.5 131t-122 53t-140.5 -53t-75 -131zM663.5 291 q22.5 129 127 214t241.5 85q131 0 206 -93.5t52.5 -222.5t-126 -214t-240.5 -85q-131 0 -207 93.5t-53.5 222.5zM794.5 282.5q-12.5 -77.5 28.5 -131t121 -53.5t140.5 53.5t75 131t-27.5 131t-122 53.5t-141.5 -53.5t-74 -131zM1390.5 291q22.5 129 127 214t241.5 85 q131 0 206 -93.5t52.5 -222.5t-126 -214t-240.5 -85q-131 0 -207 93.5t-53.5 222.5zM1521.5 282.5q-12.5 -77.5 28.5 -131t121 -53.5t140.5 53.5t75 131t-27.5 131t-122 53.5t-141.5 -53.5t-74 -131z" />
<glyph unicode="&#x2039;" horiz-adv-x="690" d="M164 633l291 368h178l-297 -378l158 -359h-168z" />
<glyph unicode="&#x203a;" horiz-adv-x="692" d="M100 264l297 379l-157 358h168l161 -368l-290 -369h-179z" />
<glyph unicode="&#x2044;" horiz-adv-x="450" d="M-336 0l1061 1434h133l-1061 -1434h-133z" />
<glyph unicode="&#x205f;" horiz-adv-x="460" />
<glyph unicode="&#x20ac;" horiz-adv-x="1218" d="M47 545l21 119h143q2 20 10 65q2 8 5 28.5t5 28.5h-141l21 119h153q82 260 245 406.5t386 146.5q143 0 242.5 -71.5t144.5 -202.5l-131 -68q-60 203 -281 203q-156 0 -274.5 -107.5t-183.5 -306.5h518l-21 -119h-530q-6 -27 -14 -69q-4 -16 -9 -53h531l-21 -119h-520 q-8 -207 73 -318.5t238 -111.5q223 0 351 209l114 -72q-176 -276 -489 -277q-213 0 -326.5 155t-105.5 415h-154z" />
<glyph unicode="&#x2122;" horiz-adv-x="954" d="M231 1358l15 76h317l-14 -76h-115l-59 -334h-82l59 334h-121zM541 1024l71 410h82l84 -209l164 209h92l-71 -410h-82l47 274l-164 -204h-8l-86 200l-47 -270h-82z" />
<glyph unicode="&#x25fc;" horiz-adv-x="1024" d="M0 0v1024h1024v-1024h-1024z" />
</font>
</defs>
</svg>
