<?xml version="1.0" standalone="no"?>
<!DOCTYPE svg PUBLIC "-//W3C//DTD SVG 1.1//EN" "http://www.w3.org/Graphics/SVG/1.1/DTD/svg11.dtd" >
<svg xmlns="http://www.w3.org/2000/svg" xmlns:xlink="http://www.w3.org/1999/xlink" version="1.1">
<metadata></metadata>
<defs>
<font id="gilroy-thinitalicuploadedfile" horiz-adv-x="1187" >
<font-face units-per-em="2048" ascent="1591" descent="-457" />
<missing-glyph horiz-adv-x="614" />
<glyph horiz-adv-x="0" />
<glyph unicode="&#xd;" horiz-adv-x="681" />
<glyph unicode=" "  horiz-adv-x="614" />
<glyph unicode="&#x09;" horiz-adv-x="614" />
<glyph unicode="&#xa0;" horiz-adv-x="614" />
<glyph unicode="!" horiz-adv-x="409" d="M72 33q10 49 59 49q20 0 32.5 -15.5t8.5 -37.5q-10 -49 -59 -49q-20 0 -32.5 15t-8.5 38zM152 328l122 696l72 410h41l-72 -410l-122 -696h-41z" />
<glyph unicode="&#x22;" horiz-adv-x="532" d="M227 1106l58 328h41l-58 -328h-41zM473 1106l57 328h41l-57 -328h-41z" />
<glyph unicode="#" horiz-adv-x="1253" d="M102 512l15 41h243l111 328h-244l13 41h245l140 409h45l-140 -409h406l139 409h45l-139 -409h242l-13 -41h-243l-111 -328h244l-17 -41h-241l-140 -410h-45l140 410h-406l-139 -410h-45l139 410h-244zM406 553h405l111 328h-406z" />
<glyph unicode="$" horiz-adv-x="1128" d="M57 254l37 20q18 -123 123 -190.5t266 -67.5h2l123 693q-182 66 -275 155.5t-65 253.5q27 150 156 243t307 93h8l33 184h41l-33 -186q127 -10 213 -74.5t113 -171.5l-33 -18q-59 211 -299 227l-121 -680q184 -66 276.5 -159t63.5 -248q-27 -160 -151.5 -250t-321.5 -98 l-33 -185h-41l33 185q-172 2 -286.5 75.5t-135.5 198.5zM309 1114q-14 -78 5.5 -138.5t70.5 -102.5t102.5 -68.5t126.5 -54.5l119 667q-170 0 -285.5 -88t-138.5 -215zM526 18q184 8 292.5 93.5t133.5 220.5q25 137 -57 220t-248 144z" />
<glyph unicode="%" horiz-adv-x="1492" d="M168 162l1192 1128l37 -18l-1192 -1129zM256 1155q23 129 125 214t240 85q133 0 208.5 -90t53.5 -217q-23 -129 -125.5 -214t-239.5 -85q-133 0 -209 90t-53 217zM296.5 1151q-20.5 -115 44 -190.5t181.5 -75.5q119 0 209 75.5t110.5 190.5t-44 190.5t-181 75.5 t-208 -75.5t-112 -190.5zM682 287q23 129 125 214t240 85q133 0 208.5 -90t53.5 -217q-23 -129 -125.5 -214t-239.5 -85q-133 0 -209 90t-53 217zM722.5 282.5q-20.5 -114.5 44 -190.5t181.5 -76q119 0 209 76t110.5 190.5t-44 190.5t-181 76t-208 -76t-112 -190.5z" />
<glyph unicode="&#x26;" horiz-adv-x="1341" d="M121 383q25 137 129 245.5t250 178.5q-109 147 -82 299q29 154 147.5 251t280.5 97q131 0 224 -64.5t136 -181.5l-35 -18q-88 227 -327 227q-150 0 -255.5 -90t-129.5 -221q-18 -104 15.5 -180t119.5 -183l399 -489q98 127 158 317l31 -20q-63 -199 -164 -328l174 -213 l-33 -18l-166 203q-186 -215 -481 -215q-199 0 -311.5 113.5t-79.5 289.5zM162 379q-31 -166 72.5 -264.5t279.5 -98.5q276 0 457 207l-404 496q-4 4 -45 57q-143 -66 -241.5 -171t-118.5 -226z" />
<glyph unicode="'" horiz-adv-x="266" d="M227 1106l58 328h41l-58 -328h-41z" />
<glyph unicode="(" horiz-adv-x="450" d="M160 721q88 508 387 917h41q-305 -449 -387 -921.5t61 -921.5h-41q-143 459 -61 926z" />
<glyph unicode=")" horiz-adv-x="450" d="M-66 -205q305 449 387 922t-61 921h41q143 -459 61 -925q-88 -508 -387 -918h-41z" />
<glyph unicode="*" horiz-adv-x="770" d="M268 1221l6 36l211 -2l-82 181l35 18l80 -182l137 182l35 -20l-143 -179l211 2l-6 -36l-211 2l82 -181l-35 -18l-80 182l-137 -182l-35 20l143 179z" />
<glyph unicode="+" horiz-adv-x="1064" d="M176 698l6 37h369l65 371h41l-65 -371h369l-7 -37h-368l-66 -370h-41l66 370h-369z" />
<glyph unicode="," horiz-adv-x="389" d="M-8 -287l131 359h55l-147 -359h-39z" />
<glyph unicode="-" horiz-adv-x="1146" d="M223 614l6 37h738l-6 -37h-738z" />
<glyph unicode="." horiz-adv-x="368" d="M49 33q10 49 60 49q20 0 32.5 -15.5t8.5 -37.5q-11 -49 -60 -49q-20 0 -32.5 15t-8.5 38z" />
<glyph unicode="/" horiz-adv-x="1064" d="M-25 -205l1143 1843h43l-1143 -1843h-43z" />
<glyph unicode="0" horiz-adv-x="1290" d="M159.5 721q59.5 336 231.5 534.5t416 198.5t349.5 -202.5t46 -538.5t-231.5 -534.5t-416 -198.5t-349.5 202.5t-46 538.5zM200.5 716.5q-57.5 -325.5 39 -513t317.5 -187.5t384 187.5t220.5 513t-39 513t-317.5 187.5t-384 -187.5t-220.5 -513z" />
<glyph unicode="1" horiz-adv-x="647" d="M180 1307l393 127h31l-252 -1434h-41l244 1389l-369 -117z" />
<glyph unicode="2" horiz-adv-x="1085" d="M12 0l6 37l648 581q303 276 333 457q27 152 -59 247t-248 95q-281 0 -430 -246l-31 21q76 123 199 192.5t268 69.5q170 0 270.5 -106.5t69.5 -278.5q-33 -195 -346 -477l-616 -555h823l-6 -37h-881z" />
<glyph unicode="3" horiz-adv-x="1142" d="M63 231l35 19q29 -109 123 -171.5t240 -62.5q195 0 332 112t167.5 282t-67.5 281.5t-293 111.5h-12l-13 24l472 570h-752l6 37h799l-6 -37l-459 -557q188 -10 293.5 -131t72.5 -303q-33 -193 -185 -309.5t-361 -116.5q-150 0 -254.5 67.5t-137.5 183.5z" />
<glyph unicode="4" horiz-adv-x="1146" d="M39 328l6 37l754 1069h45l-752 -1069h752l84 475h41l-84 -475h184l-6 -37h-184l-58 -328h-41l58 328h-799z" />
<glyph unicode="5" horiz-adv-x="1112" d="M63 236l35 18q27 -111 121 -174.5t242 -63.5q197 0 334 111t167.5 281t-66.5 282.5t-296 112.5h-371l154 631h737l-6 -37h-700l-135 -557h327q203 0 315.5 -122t79.5 -315q-33 -190 -185 -306.5t-361 -116.5q-152 0 -256.5 68.5t-135.5 187.5z" />
<glyph unicode="6" horiz-adv-x="1126" d="M72 457q31 170 141 286l618 691h48l-521 -580q125 66 277 66q207 0 320.5 -134.5t76.5 -341t-194.5 -335.5t-368.5 -129q-205 0 -319.5 135t-77.5 342zM110.5 450.5q-32.5 -186.5 64.5 -310.5t300 -124t344.5 124t174 310.5t-65 309.5t-300 123t-344 -123t-174 -309.5z " />
<glyph unicode="7" horiz-adv-x="1003" d="M182 0l834 1397h-799l6 37h840l-6 -37l-832 -1397h-43z" />
<glyph unicode="8" horiz-adv-x="1134" d="M78 375q25 143 125 239.5t254 128.5q-117 37 -173.5 130.5t-33.5 218.5q27 162 160 262t319 100q184 0 286 -104.5t75 -266.5q-23 -127 -112 -218t-220 -126q141 -35 206.5 -135t41.5 -242q-33 -178 -174.5 -280t-358.5 -102q-211 0 -319.5 108.5t-75.5 286.5zM119 369 q-29 -156 64 -254.5t296 -98.5t330 97.5t156 255.5q27 158 -65.5 255t-295.5 97t-331 -98.5t-154 -253.5zM291 1087q-27 -141 57 -235t262 -94t295 94t144 235q25 141 -59.5 235.5t-262.5 94.5t-295 -94t-141 -236z" />
<glyph unicode="9" horiz-adv-x="1126" d="M166 989q37 207 194.5 336t368.5 129q205 0 319.5 -135t77.5 -342q-31 -170 -141 -287l-618 -690h-48l521 580q-125 -66 -277 -66q-207 0 -320.5 134t-76.5 341zM205 983q-33 -186 64.5 -309t300 -123t344 123t174 309t-64.5 310t-300 124t-344 -124t-174 -310z" />
<glyph unicode=":" horiz-adv-x="368" d="M49 33q10 49 60 49q20 0 32.5 -15.5t8.5 -37.5q-11 -49 -60 -49q-20 0 -32.5 15t-8.5 38zM209 934q10 49 59 49q20 0 32.5 -15.5t8.5 -37.5q-10 -49 -59 -49q-20 0 -32.5 15t-8.5 38z" />
<glyph unicode=";" horiz-adv-x="407" d="M-8 -287l131 359h55l-147 -359h-39zM248 934q10 49 59 49q20 0 32.5 -15.5t8.5 -37.5q-10 -49 -59 -49q-20 0 -32.5 15t-8.5 38z" />
<glyph unicode="&#x3c;" horiz-adv-x="1105" d="M176 698l4 19l2 18l885 375l-8 -43l-834 -352l709 -353l-6 -38z" />
<glyph unicode="=" horiz-adv-x="1085" d="M139 494l8 36h799l-8 -36h-799zM213 903l6 37h799l-6 -37h-799z" />
<glyph unicode="&#x3e;" horiz-adv-x="1105" d="M111 324l6 43l837 352l-712 352l8 39l751 -375l-2 -18l-4 -19z" />
<glyph unicode="?" horiz-adv-x="1077" d="M244 1200q61 113 188 183.5t268 70.5q178 0 272.5 -96t65.5 -256q-14 -82 -69.5 -160t-126 -143.5t-141 -133t-128 -155.5t-73.5 -182h-41q18 100 75.5 191t128 160t141 133.5t125 140t68.5 153.5q25 141 -51 226t-252 85q-135 0 -249.5 -66.5t-168.5 -168.5zM377 33 q10 49 59 49q20 0 32.5 -15.5t8.5 -37.5q-10 -49 -59 -49q-20 0 -32.5 15t-8.5 38z" />
<glyph unicode="@" horiz-adv-x="1710" d="M123 516q53 309 305 523t571 214q217 0 365.5 -106.5t204 -265t24.5 -332.5q-39 -217 -133 -313.5t-207 -96.5q-94 0 -127.5 59.5t-19.5 143.5l4 18q-113 -176 -322 -176q-139 0 -219 96.5t-55 235.5t133.5 231.5t253.5 92.5q98 0 167 -52.5t93 -138.5l31 176h41 l-86 -483q-29 -166 113 -166q106 0 183 99.5t109 277.5q49 281 -110.5 472.5t-448.5 191.5q-297 0 -536.5 -204t-292.5 -501q-53 -303 122 -504t494 -201q201 0 353 54l8 -35q-162 -55 -367 -55q-336 0 -522 212t-129 533zM555 512q-23 -125 46 -208t194 -83q119 0 214 77 t124 196l6 34q16 119 -53.5 197t-188.5 78q-125 0 -223.5 -83t-118.5 -208z" />
<glyph unicode="A" horiz-adv-x="1286" d="M-39 0l819 1434h51l314 -1434h-41l-86 391h-789l-223 -391h-45zM250 428h760l-209 963z" />
<glyph unicode="B" horiz-adv-x="1290" d="M115 0l252 1434h534q157 0 253 -106q76 -84 76 -196q0 -30 -5 -61q-20 -115 -101.5 -206t-193.5 -128q124 -27 190 -129q49 -76 49 -169q0 -32 -6 -66q-25 -154 -148.5 -263.5t-301.5 -109.5h-598zM162 37h557q152 0 265 97.5t138 240.5q6 33 6 63q0 100 -62 176 q-81 100 -218 99h-567zM287 750h520q133 0 243 95q112 95 134 228q5 29 4 56q0 99 -64 173q-82 96 -223 95h-500z" />
<glyph unicode="C" horiz-adv-x="1562" d="M160 721q55 311 294.5 522t553.5 211q195 0 342 -90t221 -240l-35 -18q-70 143 -209 227t-321 84q-299 0 -526.5 -202.5t-278.5 -497.5q-12 -71 -13 -137q0 -204 120 -359q158 -205 456 -205q190 0 359 89.5t282 240.5l33 -20q-113 -156 -291 -251t-381 -95 q-312 0 -486 214q-133 163 -133 385q0 68 13 142z" />
<glyph unicode="D" horiz-adv-x="1515" d="M115 0l252 1434h512q287 0 445 -213q117 -159 117 -365q0 -71 -14 -147q-53 -303 -276 -506t-524 -203h-512zM162 37h471q276 0 490 196.5t263 481.5q13 73 13 141q0 198 -107 344q-143 198 -420 197h-471z" />
<glyph unicode="E" horiz-adv-x="1105" d="M115 0l252 1434h788l-6 -37h-748l-114 -656h696l-6 -36h-698l-117 -668h758l-7 -37h-798z" />
<glyph unicode="F" horiz-adv-x="1075" d="M115 0l252 1434h768l-7 -37h-727l-116 -664h716l-6 -37h-716l-123 -696h-41z" />
<glyph unicode="G" horiz-adv-x="1681" d="M162 731q49 303 289.5 513t554.5 210q205 0 350 -92t215 -238l-35 -18q-68 139 -207 225t-328 86q-297 0 -524 -201.5t-274 -488.5q-11 -67 -11 -129q0 -215 131 -375q169 -207 476 -207q274 0 477 169t258 419h-678l6 37h719l-4 -20q-55 -281 -270 -461t-510 -180 q-328 0 -507 220q-139 171 -139 398q0 64 11 133z" />
<glyph unicode="H" horiz-adv-x="1433" d="M115 0l252 1434h41l-119 -678h942l119 678h41l-252 -1434h-41l127 719h-942l-127 -719h-41z" />
<glyph unicode="I" horiz-adv-x="450" d="M115 0l252 1434h41l-252 -1434h-41z" />
<glyph unicode="J" horiz-adv-x="1134" d="M49 211l35 18q25 -98 112 -155.5t236 -57.5q178 0 301 99.5t152 253.5l186 1065h41l-186 -1065q-33 -176 -169.5 -282.5t-324.5 -106.5q-154 0 -254 61t-129 170z" />
<glyph unicode="K" horiz-adv-x="1138" d="M115 0l252 1434h41l-121 -686l911 686h62l-930 -703l698 -731h-51l-694 725l-127 -725h-41z" />
<glyph unicode="L" horiz-adv-x="1024" d="M115 0l6 37l246 1397h41l-246 -1397h717l-7 -37h-757z" />
<glyph unicode="M" horiz-adv-x="1679" d="M115 0l252 1434h51l416 -947l747 947h55l-252 -1434h-41l242 1372l-751 -944h-17l-418 954l-243 -1382h-41z" />
<glyph unicode="N" horiz-adv-x="1433" d="M115 0l252 1434h41l700 -1366l242 1366h41l-252 -1434h-41l-701 1366l-241 -1366h-41z" />
<glyph unicode="O" horiz-adv-x="1720" d="M160 723q54 305 306.5 518t557.5 213q302 0 482 -219q138 -169 139 -388q-1 -65 -13 -136q-54 -305 -306.5 -518t-557.5 -213q-306 0 -484 219q-137 168 -137 388q1 66 13 136zM201 717q-12 -68 -12 -132q-1 -207 127 -364q166 -205 455.5 -205t528 205t291.5 496 q12 68 12 132q1 207 -127 363q-166 204 -455.5 204.5t-529 -204t-290.5 -495.5z" />
<glyph unicode="P" d="M115 0l252 1434h432q195 0 299 -124q80 -96 80 -227q0 -37 -6 -79q-30 -182 -175 -306.5t-342 -124.5h-399l-100 -573h-41zM262 610h395q178 0 311.5 112t161.5 282q7 40 7 77q0 119 -70 205q-92 112 -266 111h-400z" />
<glyph unicode="Q" horiz-adv-x="1730" d="M160 723q53 305 306 518t558 213q303 0 482 -219q138 -169 138 -389q0 -65 -12 -135q-29 -162 -120 -304.5t-224 -244.5l146 -174l-29 -27l-148 178q-226 -159 -486 -159h-3q-305 0 -484 219q-137 168 -137 388q0 66 13 136zM201 717q-12 -68 -12 -132q0 -207 127 -364 q167 -205 456 -205q244 0 461 152l-270 326l26 24l275 -328q127 98 214 235.5t113 291.5q12 68 12 132q0 207 -127 363q-167 205 -456 205t-528.5 -204.5t-290.5 -495.5z" />
<glyph unicode="R" horiz-adv-x="1269" d="M115 0l252 1434h553q166 0 265 -123q77 -95 76 -218q0 -36 -6 -75q-27 -145 -137 -256t-256 -139l256 -623h-41l-254 616q-16 -2 -47 -2h-512l-108 -614h-41zM270 651h512q152 0 279 109.5t156 263.5q6 36 6 69q-1 111 -69 195q-90 110 -241 109h-512z" />
<glyph unicode="S" horiz-adv-x="1128" d="M43 295l37 18q25 -137 135.5 -217t290.5 -80q197 0 313.5 86t143.5 224q7 34 7 65q0 41 -12 77q-22 62 -80.5 107.5t-113.5 72t-146 61.5q-193 72 -262 127q-112 88 -112 219q0 31 6 65q29 152 155.5 243t296.5 91q164 0 268.5 -80t139.5 -209l-35 -16q-78 268 -373 268 q-158 0 -272.5 -84t-138.5 -217q-5 -28 -5 -54q0 -150 171 -243q53 -29 184 -80q98 -39 158.5 -69.5t120.5 -79.5q60 -50 80 -116q12 -37 11 -80q0 -34 -7 -72q-31 -166 -166 -254t-334 -88q-188 0 -310 85t-151 230z" />
<glyph unicode="T" horiz-adv-x="1105" d="M217 1397l6 37h983l-6 -37h-471l-246 -1397h-41l246 1397h-471z" />
<glyph unicode="U" horiz-adv-x="1392" d="M176 461l172 973h41l-172 -973q-9 -50 -9 -95q0 -130 74 -224q100 -126 328 -126t370 126t177 319l172 973h41l-172 -973q-37 -215 -195 -348t-391 -133q-238 0 -356 135q-89 103 -89 249q0 46 9 97z" />
<glyph unicode="V" horiz-adv-x="1224" d="M203 1434h41l284 -1389l772 1389h46l-799 -1434h-49z" />
<glyph unicode="W" horiz-adv-x="2007" d="M244 1434h39l157 -1385l699 1385h49l213 -1385l643 1385h43l-668 -1434h-49l-213 1384l-700 -1384h-49z" />
<glyph unicode="X" horiz-adv-x="1146" d="M-29 0l617 733l-346 701h43l331 -668l562 668h51l-594 -707l360 -727h-43l-344 696l-585 -696h-52z" />
<glyph unicode="Y" horiz-adv-x="1146" d="M203 1434h43l360 -725l615 725h47l-645 -760l-119 -674h-41l119 676z" />
<glyph unicode="Z" horiz-adv-x="1085" d="M12 0l6 37l1074 1360h-813l6 37h860l-6 -37l-1071 -1360h852l-7 -37h-901z" />
<glyph unicode="[" horiz-adv-x="552" d="M16 -205l326 1843h369l-6 -39h-328l-314 -1765h330l-8 -39h-369z" />
<glyph unicode="\" horiz-adv-x="1064" d="M301 1638h37l498 -1843h-37z" />
<glyph unicode="]" horiz-adv-x="552" d="M-86 -205l8 39h326l313 1765h-328l7 39h368l-325 -1843h-369z" />
<glyph unicode="^" horiz-adv-x="1036" d="M197 819l465 615h32l252 -615h-41l-231 565l-428 -565h-49z" />
<glyph unicode="_" horiz-adv-x="983" d="M-51 -242l6 37h819l-6 -37h-819z" />
<glyph unicode="`" horiz-adv-x="290" d="M201 1413l131 -246h33l-123 246h-41z" />
<glyph unicode="a" horiz-adv-x="1355" d="M106 538q38 226 207.5 366t397.5 140q170 0 293.5 -104t154.5 -268l62 352h41l-181 -1024h-41l52 289q-80 -143 -219.5 -226t-309.5 -83q-221 0 -358 166q-107 130 -107 296q0 47 8 96zM148 532q-8 -47 -9 -91q-1 -152 97 -271q126 -154 333 -154t364 134t193 342 q8 47 9 90q0 152 -98 272q-126 154 -332.5 154t-363.5 -134t-193 -342z" />
<glyph unicode="b" horiz-adv-x="1355" d="M94 0l252 1434h41l-123 -699q80 143 219.5 226t309.5 83q219 0 357 -166q108 -130 107 -296q0 -46 -8 -96q-39 -226 -208 -366t-396 -140q-170 0 -294 105t-154 267l-62 -352h-41zM230 532q-8 -47 -9 -91q-1 -152 97 -271q126 -154 333 -154t363 134q157 134 194 342 q8 47 8 91q0 152 -97 271q-126 154 -332.5 154t-363.5 -134t-193 -342z" />
<glyph unicode="c" d="M104 518q41 225 219.5 375.5t407.5 150.5q145 0 254 -68.5t148 -180.5l-35 -21q-35 109 -132.5 171.5t-240.5 62.5q-213 0 -378 -142.5t-201 -353.5q-9 -51 -9 -99q-1 -147 85 -255q114 -142 327 -142q139 0 261 63.5t196 170.5l30 -21q-80 -117 -208.5 -183t-284.5 -66 q-227 0 -353 156q-96 117 -96 275q0 51 10 107z" />
<glyph unicode="d" horiz-adv-x="1355" d="M106 538q38 226 207.5 366t397.5 140q170 0 293.5 -104t154.5 -266l133 760h41l-252 -1434h-41l52 289q-80 -143 -219.5 -226t-309.5 -83q-221 0 -358 166q-107 130 -107 296q0 47 8 96zM148 532q-8 -47 -9 -91q-1 -152 97 -271q126 -154 333 -154t364 134t193 342 q8 47 9 90q0 152 -98 272q-126 154 -332.5 154t-363.5 -134t-193 -342z" />
<glyph unicode="e" horiz-adv-x="1222" d="M102 516q41 229 208.5 378.5t400.5 149.5q225 0 335 -158q83 -118 83 -270q0 -51 -9 -106l-4 -23h-977q-5 -42 -5 -80q0 -157 88 -261q110 -130 317 -130q139 0 254.5 56.5t183.5 154.5l31 -20q-74 -106 -199 -166.5t-277 -60.5q-229 0 -350 152q-90 113 -90 271 q0 54 10 113zM145 524h940q6 47 6 90q1 156 -81 260q-104 134 -303 134q-207 0 -364 -135.5t-198 -348.5z" />
<glyph unicode="f" horiz-adv-x="612" d="M145 987l7 37h184l14 82q31 180 138 271q94 79 243 79q23 0 47 -2l-6 -37q-24 2 -46 2q-278 0 -335 -313l-14 -82h325l-6 -37h-325l-174 -987h-41l174 987h-185z" />
<glyph unicode="g" horiz-adv-x="1376" d="M86 -188l35 18q29 -94 135 -158.5t270 -64.5q217 0 361.5 120.5t183.5 335.5l39 224q-78 -141 -216 -224t-300 -83q-231 0 -368 164q-107 130 -107 300q0 46 8 95q35 217 206 361t388 144q180 0 304 -104t155 -268l61 352h41l-170 -961q-41 -229 -194.5 -361t-393.5 -132 q-176 0 -290.5 68.5t-147.5 173.5zM168 532q-8 -47 -8 -90q0 -156 98 -274q125 -152 338 -152q199 0 354.5 131.5t194.5 329.5l2 17q8 47 8 90q0 156 -98 274q-125 150 -338 150q-201 0 -359.5 -135.5t-191.5 -340.5z" />
<glyph unicode="h" horiz-adv-x="1177" d="M94 0l252 1434h41l-119 -674q72 139 194 211.5t261 72.5q174 0 265 -108q68 -82 68 -202q0 -39 -7 -83l-115 -651h-41l115 651q7 40 7 77q0 106 -57 180q-77 100 -239 100q-176 0 -310.5 -121t-175.5 -322l-98 -565h-41z" />
<glyph unicode="i" horiz-adv-x="409" d="M94 0l180 1024h41l-180 -1024h-41zM311 1380q12 47 56 47q20 0 31.5 -14t6.5 -32.5t-19.5 -33t-35 -14.5t-32 14.5t-7.5 32.5z" />
<glyph unicode="j" horiz-adv-x="428" d="M-207 -430l6 37q25 -3 47 -3q197 0 234 212l213 1208h41l-213 -1208q-23 -129 -105 -196q-66 -53 -171 -53q-25 0 -52 3zM330 1380q12 47 55 47q20 0 31.5 -14t7.5 -32.5t-19.5 -33t-36 -14.5t-31.5 14.5t-7 32.5z" />
<glyph unicode="k" horiz-adv-x="944" d="M94 0l252 1434h41l-156 -891l668 481h64l-691 -496l521 -528h-54l-512 520l-92 -520h-41z" />
<glyph unicode="l" horiz-adv-x="411" d="M96 0l115 657l147 838h41l-147 -838l-115 -657h-41z" />
<glyph unicode="m" horiz-adv-x="1792" d="M94 0l180 1024h41l-41 -233q66 127 174.5 190t227.5 63q125 0 206 -68.5t85 -201.5q66 135 177 202.5t236 67.5q150 0 234 -96q60 -69 60 -182q0 -44 -9 -96l-117 -670h-41l117 670q8 47 8 89q0 99 -49 161q-70 88 -209 88q-156 0 -272.5 -107.5t-155.5 -302.5l-104 -598 h-41l117 670q9 48 9 90q0 98 -48 160q-68 88 -207 88q-156 0 -273.5 -107.5t-156.5 -298.5l-107 -602h-41z" />
<glyph unicode="n" horiz-adv-x="1177" d="M94 0l180 1024h41l-47 -262q72 137 194 209.5t261 72.5q174 0 265 -108q68 -82 68 -202q0 -39 -7 -83l-115 -651h-41l115 651q7 40 7 77q0 106 -57 180q-77 100 -239 100q-174 0 -308.5 -120t-174.5 -319l-101 -569h-41z" />
<glyph unicode="o" horiz-adv-x="1273" d="M104 520q38 225 219 374.5t406 149.5q221 0 350 -158q99 -121 99 -281q0 -49 -9 -101q-39 -225 -219 -374.5t-405 -149.5q-221 0 -350 158q-99 121 -99 282q-1 48 8 100zM146 512q-9 -50 -9 -95q-1 -147 89 -257q118 -144 323 -144q207 0 375 143.5t204 352.5q9 50 9 95 q1 147 -89 257q-118 144 -323 144q-207 0 -375 -143.5t-204 -352.5z" />
<glyph unicode="p" horiz-adv-x="1355" d="M23 -410l251 1434h41l-51 -287q80 143 219.5 225t309.5 82q219 0 357 -166q108 -130 108 -296q0 -47 -9 -96q-39 -226 -208 -366t-396 -140q-170 0 -294 104t-154 266l-134 -760h-40zM230 532q-9 -46 -9 -91q0 -152 97 -271q126 -154 333 -154t363.5 133.5t193.5 342.5 q8 47 8 91q0 152 -97 271q-126 154 -332.5 154t-363.5 -133.5t-193 -342.5z" />
<glyph unicode="q" horiz-adv-x="1355" d="M106 538q39 226 208 366t397 140q170 0 293.5 -104t154.5 -268l62 352h41l-252 -1434h-41l123 699q-78 -143 -218.5 -226t-310.5 -83q-221 0 -358 166q-107 130 -107 296q0 47 8 96zM148 532q-9 -46 -9 -91q0 -152 97 -271q126 -154 333 -154t364 133.5t193 342.5 q9 46 9 90q0 153 -98 272q-126 154 -332.5 154t-363.5 -133.5t-193 -342.5z" />
<glyph unicode="r" horiz-adv-x="665" d="M94 0l180 1024h41l-45 -252q68 132 184 200q110 64 228 64h14l-6 -37q-160 0 -290 -114.5t-164 -315.5l-101 -569h-41z" />
<glyph unicode="s" horiz-adv-x="954" d="M57 195l37 16q66 -195 326 -195q131 0 226 57.5t114 162.5q4 21 4 40q0 44 -20 78q-28 48 -83 76.5t-122.5 50t-135 44t-121.5 51.5q-54 30 -82 84q-18 35 -19 80q0 23 5 48q20 121 122 188.5t247 67.5q111 0 198 -54t119 -142l-34 -17q-31 80 -110 128.5t-177 48.5 q-125 0 -215 -58.5t-109 -169.5q-3 -17 -3 -33q0 -67 48 -110q60 -53 154 -81t188 -58q93 -30 149 -96q42 -50 43 -124q0 -24 -5 -51q-20 -117 -126.5 -182t-258.5 -65q-281 0 -359 215z" />
<glyph unicode="t" horiz-adv-x="776" d="M145 987l7 37h243l49 274l43 13l-51 -287h328l-6 -37h-328l-133 -760q-7 -36 -7 -65q0 -81 51 -111q42 -25 124 -24q54 0 125 10l-6 -37q-71 -11 -126 -11q-98 1 -149 35q-60 41 -60 134q0 32 7 69l133 760h-244z" />
<glyph unicode="u" horiz-adv-x="1177" d="M129 373l115 651h41l-115 -651q-7 -40 -7 -77q0 -106 57 -180q77 -100 239 -100q174 0 308 120t175 319l100 569h41l-180 -1024h-41l47 262q-72 -137 -193.5 -209.5t-260.5 -72.5q-173 0 -265 108q-68 81 -69 200q0 40 8 85z" />
<glyph unicode="v" horiz-adv-x="1007" d="M131 1024h41l246 -979l592 979h47l-621 -1024h-45z" />
<glyph unicode="w" horiz-adv-x="1576" d="M172 1024h39l147 -969l496 969h45l154 -971l487 971h45l-516 -1024h-45l-156 969l-495 -969h-45z" />
<glyph unicode="x" horiz-adv-x="1024" d="M-29 0l518 526l-317 498h45l301 -469l461 469h53l-493 -502l333 -522h-45l-315 494l-487 -494h-54z" />
<glyph unicode="y" horiz-adv-x="1044" d="M2 -410l6 37q10 -1 20 -1q96 0 196 72q110 79 190 220l18 31l-301 1075h39l289 -1026l590 1026h45l-643 -1118q-90 -154 -207 -240q-105 -77 -216 -77q-13 0 -26 1z" />
<glyph unicode="z" horiz-adv-x="1003" d="M33 0l4 23l868 964h-678l6 37h738l-4 -23l-869 -964h719l-6 -37h-778z" />
<glyph unicode="{" horiz-adv-x="692" d="M156 700l6 37q246 0 280 209l84 467q23 131 106 195.5t222 50.5l-6 -37q-240 27 -281 -209l-84 -467q-35 -203 -209 -229q78 -14 112 -75.5t17 -149.5l-81 -469q-20 -117 29.5 -170.5t176.5 -38.5l-6 -37q-143 -14 -203.5 52.5t-37.5 193.5l81 469q20 109 -29.5 158.5 t-176.5 49.5z" />
<glyph unicode="|" horiz-adv-x="450" d="M43 -410l332 1885h41l-332 -1885h-41z" />
<glyph unicode="}" horiz-adv-x="694" d="M-88 -221l6 37q240 -27 281 209l84 467q35 203 209 229q-78 14 -112 75.5t-18 149.5l82 469q20 117 -29.5 170t-176.5 39l6 37q143 14 203.5 -52.5t37.5 -193.5l-82 -469q-20 -109 30 -159t177 -50l-6 -37q-246 0 -280 -208l-84 -467q-23 -131 -106 -196t-222 -50z" />
<glyph unicode="~" horiz-adv-x="1173" d="M164 623q12 27 28.5 53t46 62t68.5 56.5t86 30t109.5 -13.5t130.5 -78q72 -57 136.5 -74.5t107.5 -3t80.5 48t56 63.5t33.5 60l36 -16q-14 -33 -34.5 -65.5t-63.5 -72.5t-92 -56.5t-123 2t-156 81.5q-72 57 -137 74t-108 3.5t-81 -48.5t-55.5 -63.5t-31.5 -59.5z" />
<glyph unicode="&#xa2;" d="M139 723q41 225 219.5 375.5t407.5 150.5q59 0 127 -14l102 199h43l-108 -211q184 -61 237 -224l-34 -20q-51 158 -220 211l-483 -944q70 -25 154 -25q139 0 261 63.5t195 170.5l31 -21q-80 -117 -209 -183.5t-284 -66.5q-92 0 -164 27l-109 -211h-43l115 225 q-137 61 -202.5 195.5t-35.5 302.5zM180 717q-27 -156 31.5 -279t183.5 -180l482 942q-55 12 -117 12q-213 0 -378 -142t-202 -353z" />
<glyph unicode="&#xa3;" horiz-adv-x="1228" d="M12 0l6 37h226l102 579h-184l6 37h186l74 422q29 172 146.5 275.5t291.5 103.5q129 0 218.5 -66.5t132.5 -187.5l-33 -20q-89 237 -318 237q-162 0 -266 -96t-131 -246l-74 -422h531l-6 -37h-533l-102 -579h819l-6 -37h-1086z" />
<glyph unicode="&#xa5;" horiz-adv-x="1146" d="M135 391l6 37h398l39 225h-398l6 37h389l-372 744h43l360 -725l615 725h47l-631 -744h389l-6 -37h-402l-38 -225h401l-6 -37h-402l-69 -391h-41l69 391h-397z" />
<glyph unicode="&#xa8;" horiz-adv-x="491" d="M168 1229q8 41 49 41q16 0 26.5 -12.5t6.5 -28.5q-8 -41 -47 -41q-16 0 -26.5 12t-8.5 29zM496 1229q8 41 49 41q16 0 26.5 -12.5t6.5 -28.5q-9 -41 -48 -41q-16 0 -26 12t-8 29z" />
<glyph unicode="&#xa9;" horiz-adv-x="1730" d="M160 725q53 307 305 518t565 211q305 0 485.5 -219t126.5 -526q-55 -307 -307 -518t-565 -211q-305 0 -485.5 219t-124.5 526zM201 717q-51 -291 116.5 -496t458.5 -205t532.5 205t293 496t-117.5 495.5t-460 204.5t-531.5 -204.5t-291.5 -495.5zM510 721 q31 168 157 278.5t300 110.5q106 0 188 -51t119 -139l-37 -19q-70 172 -276 172q-154 0 -268.5 -102.5t-141.5 -254t56 -254t237 -102.5q100 0 186 46.5t141 125.5l33 -18q-133 -190 -364 -190q-170 0 -264.5 115.5t-65.5 281.5z" />
<glyph unicode="&#xab;" horiz-adv-x="872" d="M225 633l264 328h50l-269 -332l146 -324h-43zM434 633l264 328h50l-269 -332l146 -324h-43z" />
<glyph unicode="&#xad;" horiz-adv-x="1146" d="M223 614l6 37h738l-6 -37h-738z" />
<glyph unicode="&#xae;" horiz-adv-x="1730" d="M160 725q53 307 305 518t565 211q305 0 485.5 -219t126.5 -526q-55 -307 -307 -518t-565 -211q-305 0 -485.5 219t-124.5 526zM201 717q-51 -291 116.5 -496t458.5 -205t532.5 205t293 496t-117.5 495.5t-460 204.5t-531.5 -204.5t-291.5 -495.5zM629 338l133 758h213 q129 0 186.5 -69t40.5 -159q-31 -180 -225 -213l145 -317h-43l-141 313q-12 -2 -41 -2h-172l-55 -311h-41zM731 686h172q225 0 258 186q14 80 -35 133.5t-157 53.5h-172z" />
<glyph unicode="&#xb4;" horiz-adv-x="286" d="M156 1167h39l211 246h-46z" />
<glyph unicode="&#xb8;" horiz-adv-x="440" d="M-123 -414l6 33q315 -39 338 94q10 49 -30.5 75t-133.5 17l35 195h37l-29 -162q70 4 120 -29.5t38 -99.5q-12 -78 -109.5 -111.5t-271.5 -11.5z" />
<glyph unicode="&#xbb;" horiz-adv-x="874" d="M168 305l268 332l-145 324h43l147 -328l-264 -328h-49zM377 305l268 332l-145 324h43l147 -328l-264 -328h-49z" />
<glyph unicode="&#x2c6;" horiz-adv-x="585" d="M156 1167l272 246h45l186 -246h-41l-167 222l-246 -222h-49z" />
<glyph unicode="&#x2da;" horiz-adv-x="471" d="M186 1331q14 82 77 133.5t147 51.5t132 -50.5t33 -134.5q-14 -80 -76.5 -132t-148.5 -52t-132 52t-32 132zM223 1331q-12 -68 23.5 -109.5t107.5 -41.5q70 0 121 42t63.5 109.5t-25.5 109.5t-107.5 42t-119.5 -41t-63 -111z" />
<glyph unicode="&#x2dc;" horiz-adv-x="606" d="M164 1208q25 145 111.5 178t175.5 -79q78 -94 145.5 -67.5t87.5 140.5h35q-25 -141 -113 -175t-176 77q-80 96 -145.5 70.5t-85.5 -144.5h-35z" />
<glyph unicode="&#x401;" horiz-adv-x="1105" d="M115 0l252 1434h788l-6 -37h-748l-114 -656h696l-6 -36h-698l-117 -668h758l-7 -37h-798zM580 1638q8 41 49 41q16 0 26.5 -12t6.5 -29q-9 -41 -48 -41q-16 0 -26 12.5t-8 28.5zM907 1638q8 41 49 41q16 0 26.5 -12t6.5 -29q-8 -41 -47 -41q-16 0 -26.5 12.5t-8.5 28.5z " />
<glyph unicode="&#x402;" horiz-adv-x="1433" d="M217 1397l6 37h983l-6 -37h-512l-96 -543q225 109 397 109q174 0 260 -93.5t58 -261.5l-66 -372q-23 -129 -104.5 -196t-223.5 -50l7 37q240 -27 280 209l66 372q27 154 -47 236t-228 82q-170 0 -407 -119l-142 -807h-41l246 1397h-430z" />
<glyph unicode="&#x403;" horiz-adv-x="1024" d="M115 0l252 1434h757l-6 -37h-717l-245 -1397h-41zM702 1575l205 246h45l-211 -246h-39z" />
<glyph unicode="&#x404;" horiz-adv-x="1562" d="M160 721q55 311 294.5 522t553.5 211q195 0 342 -90t221 -240l-35 -18q-70 143 -209 227t-321 84q-295 0 -519.5 -196.5t-281.5 -485.5h854l-6 -37h-854q-43 -285 115.5 -483.5t449.5 -198.5q190 0 359 89.5t282 240.5l33 -20q-113 -156 -291 -251t-381 -95 q-311 0 -485.5 214t-120.5 527z" />
<glyph unicode="&#x405;" horiz-adv-x="1128" d="M43 295l37 18q25 -137 135.5 -217t290.5 -80q197 0 313.5 86t143.5 224q16 80 -5.5 142t-80 107.5t-113.5 72t-146 61.5q-193 72 -262 127q-139 109 -106 284q29 152 155.5 243t296.5 91q164 0 268.5 -80t139.5 -209l-35 -16q-78 268 -373 268q-158 0 -272.5 -84 t-138.5 -217q-35 -188 166 -297q53 -29 184 -80q98 -39 158.5 -69.5t120 -79.5t80 -115.5t4.5 -152.5q-31 -166 -166 -254t-334 -88q-188 0 -310 85t-151 230z" />
<glyph unicode="&#x406;" horiz-adv-x="450" d="M115 0l252 1434h41l-252 -1434h-41z" />
<glyph unicode="&#x407;" horiz-adv-x="450" d="M115 0l252 1434h41l-252 -1434h-41zM217 1638q8 41 49 41q16 0 26.5 -12t6.5 -29q-8 -41 -47 -41q-16 0 -26.5 12.5t-8.5 28.5zM545 1638q8 41 49 41q16 0 26.5 -12t6.5 -29q-8 -41 -47 -41q-16 0 -26.5 12.5t-8.5 28.5z" />
<glyph unicode="&#x408;" horiz-adv-x="1134" d="M49 211l35 18q25 -98 112 -155.5t236 -57.5q178 0 301 99.5t152 253.5l186 1065h41l-186 -1065q-33 -176 -169.5 -282.5t-324.5 -106.5q-154 0 -254 61t-129 170z" />
<glyph unicode="&#x409;" horiz-adv-x="2041" d="M-39 -4l6 37q150 -12 258.5 108.5t161.5 411.5l154 881h778l-115 -656h369q168 0 270.5 -116.5t71.5 -284.5t-166 -272.5t-313 -104.5h-410l246 1397h-697l-147 -844q-51 -285 -164.5 -428t-302.5 -129zM1073 37h369q156 0 280.5 98t151.5 250t-63.5 254t-243.5 102h-369 z" />
<glyph unicode="&#x40a;" horiz-adv-x="2031" d="M115 0l252 1434h41l-115 -656h860l115 656h41l-115 -656h369q168 0 270 -116.5t71.5 -284.5t-165.5 -272.5t-314 -104.5h-409l131 741h-860l-131 -741h-41zM1063 37h369q156 0 280.5 98t151 250t-63.5 254t-244 102h-368z" />
<glyph unicode="&#x40b;" horiz-adv-x="1454" d="M217 1397l6 37h983l-6 -37h-512l-96 -543q225 109 397 109q174 0 260 -93.5t58 -261.5l-107 -608h-41l107 608q27 154 -47 236t-228 82q-170 0 -407 -119l-142 -807h-41l246 1397h-430z" />
<glyph unicode="&#x40c;" horiz-adv-x="1138" d="M115 0l252 1434h41l-121 -686l911 686h62l-930 -703l698 -731h-51l-694 725l-127 -725h-41zM723 1575l205 246h45l-211 -246h-39z" />
<glyph unicode="&#x40e;" horiz-adv-x="1144" d="M141 0l6 37q219 -18 406 291l27 43l-336 1063h37l325 -1020l615 1020h45l-672 -1117q-205 -340 -453 -317zM539 1638l6 33h491l-6 -33h-491z" />
<glyph unicode="&#x40f;" horiz-adv-x="1433" d="M115 0l252 1434h41l-246 -1397h942l246 1397h41l-252 -1434h-492l-49 -274h-41l49 274h-491z" />
<glyph unicode="&#x410;" horiz-adv-x="1286" d="M-39 0l819 1434h51l314 -1434h-41l-86 391h-789l-223 -391h-45zM250 428h760l-209 963z" />
<glyph unicode="&#x411;" horiz-adv-x="1198" d="M115 0l252 1434h798l-6 -37h-758l-102 -578h453q162 0 264 -124t71 -292q-29 -170 -168 -286.5t-313 -116.5h-491zM162 37h450q154 0 281 109.5t154 263.5q29 154 -60.5 263t-243.5 109h-450z" />
<glyph unicode="&#x412;" horiz-adv-x="1290" d="M115 0l252 1434h534q158 0 253.5 -105.5t70.5 -257.5q-20 -115 -101.5 -206t-193.5 -128q123 -27 189.5 -129t43.5 -235q-25 -154 -148.5 -263.5t-301.5 -109.5h-598zM162 37h557q152 0 265 97.5t138 240.5q25 139 -56 238.5t-218 99.5h-567zM287 750h520q133 0 243.5 95 t133 228t-59.5 228.5t-223 95.5h-500z" />
<glyph unicode="&#x413;" horiz-adv-x="1024" d="M115 0l252 1434h757l-6 -37h-717l-245 -1397h-41z" />
<glyph unicode="&#x414;" horiz-adv-x="1413" d="M-88 -274l55 311h109q184 164 250 520l153 877h860l-245 -1397h143l-55 -311h-41l49 274h-1188l-49 -274h-41zM131 37h922l239 1360h-778l-147 -840q-61 -350 -236 -520z" />
<glyph unicode="&#x415;" horiz-adv-x="1105" d="M115 0l252 1434h788l-6 -37h-748l-114 -656h696l-6 -36h-698l-117 -668h758l-7 -37h-798z" />
<glyph unicode="&#x416;" horiz-adv-x="1652" d="M-49 0l856 741l-576 693h48l573 -686l121 686h41l-121 -686l815 686h57l-831 -703l588 -731h-45l-588 727l-127 -727h-41l127 727l-840 -727h-57z" />
<glyph unicode="&#x417;" horiz-adv-x="1103" d="M41 279l39 18q63 -281 420 -281q180 0 305 100.5t151 256.5q27 147 -57 243.5t-254 96.5h-158l7 37h120q164 0 278 96t138 235q27 147 -61 241.5t-258 94.5q-297 0 -451 -262l-33 21q164 279 490 278q182 0 282.5 -107.5t71.5 -269.5q-23 -123 -106.5 -215t-212.5 -127 q137 -29 202.5 -130t42.5 -236q-31 -172 -167 -280.5t-336 -108.5q-375 0 -453 299z" />
<glyph unicode="&#x418;" horiz-adv-x="1433" d="M115 0l252 1434h41l-238 -1358l1180 1358h41l-252 -1434h-41l239 1360l-1181 -1360h-41z" />
<glyph unicode="&#x419;" horiz-adv-x="1433" d="M115 0l252 1434h41l-238 -1358l1180 1358h41l-252 -1434h-41l239 1360l-1181 -1360h-41zM649 1640l6 33h492l-6 -33h-492z" />
<glyph unicode="&#x41a;" horiz-adv-x="1138" d="M115 0l252 1434h41l-121 -686l911 686h62l-930 -703l698 -731h-51l-694 725l-127 -725h-41z" />
<glyph unicode="&#x41b;" horiz-adv-x="1443" d="M-39 -4l6 37q150 -12 258.5 108.5t161.5 411.5l154 881h860l-252 -1434h-41l246 1397h-779l-147 -844q-51 -287 -164 -430t-303 -127z" />
<glyph unicode="&#x41c;" horiz-adv-x="1679" d="M115 0l252 1434h51l416 -947l747 947h55l-252 -1434h-41l242 1372l-751 -944h-17l-418 954l-243 -1382h-41z" />
<glyph unicode="&#x41d;" horiz-adv-x="1433" d="M115 0l252 1434h41l-119 -678h942l119 678h41l-252 -1434h-41l127 719h-942l-127 -719h-41z" />
<glyph unicode="&#x41e;" horiz-adv-x="1720" d="M159.5 723q53.5 305 306.5 518t558 213q303 0 482.5 -219t126 -524t-306.5 -518t-558 -213t-483.5 219t-125 524zM201 717q-51 -291 115.5 -496t455.5 -205t527.5 205t291.5 496q51 291 -115.5 495.5t-455.5 204.5t-528.5 -204.5t-290.5 -495.5z" />
<glyph unicode="&#x41f;" horiz-adv-x="1433" d="M115 0l252 1434h1024l-252 -1434h-41l245 1397h-942l-245 -1397h-41z" />
<glyph unicode="&#x420;" d="M115 0l252 1434h432q195 0 299 -124t73.5 -306.5t-175 -306.5t-341.5 -124h-399l-100 -573h-41zM262 610h395q178 0 311.5 112t162 282t-63.5 281.5t-266 111.5h-400z" />
<glyph unicode="&#x421;" horiz-adv-x="1562" d="M160 721q55 311 294.5 522t553.5 211q195 0 342 -90t221 -240l-35 -18q-70 143 -209 227t-321 84q-299 0 -526.5 -202.5t-278.5 -497.5q-51 -291 107.5 -496t455.5 -205q190 0 359 89.5t282 240.5l33 -20q-113 -156 -291 -251t-381 -95q-311 0 -485.5 214t-120.5 527z " />
<glyph unicode="&#x422;" horiz-adv-x="1105" d="M217 1397l6 37h983l-6 -37h-471l-246 -1397h-41l246 1397h-471z" />
<glyph unicode="&#x423;" horiz-adv-x="1144" d="M141 0l6 37q219 -18 406 291l27 43l-336 1063h37l325 -1020l615 1020h45l-672 -1117q-205 -340 -453 -317z" />
<glyph unicode="&#x424;" horiz-adv-x="1648" d="M119 725q45 262 269 403.5t548 145.5l29 160h41l-29 -160q207 -4 357.5 -67.5t224 -192.5t43 -305.5t-149.5 -301t-289 -184t-381 -63.5l-28 -160h-41l28 160q-207 4 -356 67.5t-223 192.5t-43 305zM160 716.5q-43 -237.5 115.5 -376.5t472.5 -143l182 1040 q-313 -4 -520 -143.5t-250 -377zM788 197q315 4 522.5 142t250.5 378q43 238 -116 377t-474 143z" />
<glyph unicode="&#x425;" horiz-adv-x="1146" d="M-29 0l617 733l-346 701h43l331 -668l562 668h51l-594 -707l360 -727h-43l-344 696l-585 -696h-52z" />
<glyph unicode="&#x426;" horiz-adv-x="1413" d="M115 0l252 1434h41l-246 -1397h901l246 1397h41l-246 -1397h143l-55 -311h-41l49 274h-1085z" />
<glyph unicode="&#x427;" horiz-adv-x="1290" d="M240 942l86 492h41l-86 -492q-29 -160 63 -256t301 -96q201 0 430 100v-2l131 746h41l-252 -1434h-41l113 645q-219 -92 -422 -92q-233 0 -333.5 108.5t-71.5 280.5z" />
<glyph unicode="&#x428;" horiz-adv-x="1986" d="M115 0l252 1434h41l-246 -1397h727l246 1397h41l-246 -1397h727l246 1397h41l-252 -1434h-1577z" />
<glyph unicode="&#x429;" horiz-adv-x="2007" d="M115 0l252 1434h41l-246 -1397h727l246 1397h41l-246 -1397h727l246 1397h41l-246 -1397h143l-55 -311h-41l49 274h-1679z" />
<glyph unicode="&#x42a;" horiz-adv-x="1392" d="M156 1397l6 37h450l-100 -574h399q190 0 295 -125t70 -309q-35 -186 -178.5 -306t-337.5 -120h-441l246 1397h-409zM367 37h397q174 0 308 111.5t163 281.5q29 172 -62.5 282.5t-269.5 110.5h-397z" />
<glyph unicode="&#x42b;" horiz-adv-x="1515" d="M115 0l252 1434h41l-101 -574h400q190 0 294.5 -125t69.5 -309q-35 -186 -178 -306t-338 -120h-440zM162 37h397q174 0 308 111.5t163 281.5q29 174 -63.5 286.5t-268.5 106.5h-397zM1180 0l252 1434h41l-252 -1434h-41z" />
<glyph unicode="&#x42c;" d="M115 0l252 1434h41l-101 -574h400q190 0 294.5 -125t69.5 -309q-35 -186 -178 -306t-338 -120h-440zM162 37h397q174 0 308 111.5t163 281.5q29 174 -63.5 286.5t-268.5 106.5h-397z" />
<glyph unicode="&#x42d;" horiz-adv-x="1562" d="M66 311l34 19q59 -143 196.5 -228.5t317.5 -85.5q297 0 528.5 198t287.5 484h-855l7 37h856q43 289 -119 485.5t-457 196.5q-184 0 -354 -89t-279 -238l-32 20q117 158 293.5 251t377.5 93q311 0 485.5 -216t121.5 -525q-55 -311 -298 -522t-569 -211q-186 0 -332.5 90 t-209.5 241z" />
<glyph unicode="&#x42e;" horiz-adv-x="2170" d="M115 0l252 1434h41l-119 -678h327q66 293 314 495.5t545 202.5q303 0 482 -219t126 -524t-306 -518t-558 -213q-303 0 -482.5 217t-126.5 522h-327l-127 -719h-41zM651 717q-51 -291 116 -496t455.5 -205t527.5 205t292 496q51 291 -116 495.5t-455.5 204.5 t-528.5 -204.5t-291 -495.5z" />
<glyph unicode="&#x42f;" horiz-adv-x="1310" d="M12 0l527 616q-152 14 -243 138.5t-63 281.5q31 170 166.5 284t315.5 114h553l-252 -1434h-41l108 614h-495l-525 -614h-51zM274.5 1030.5q-26.5 -153.5 63.5 -266.5t240 -113h512l131 746h-512q-156 0 -282 -106.5t-152.5 -260z" />
<glyph unicode="&#x430;" horiz-adv-x="1355" d="M106.5 538.5q38.5 225.5 207.5 365.5t397 140q170 0 293.5 -104t154.5 -268l62 352h41l-181 -1024h-41l52 289q-80 -143 -219.5 -226t-309.5 -83q-221 0 -358 166.5t-98.5 392zM147.5 532.5q-36.5 -208.5 89 -362.5t332.5 -154t364 133.5t193.5 342t-89.5 362.5 t-332.5 154t-363.5 -133.5t-193.5 -342z" />
<glyph unicode="&#x431;" d="M100 502q43 248 138.5 387t336.5 250q61 29 145.5 60.5t134.5 52t103.5 49t86 64.5t51.5 85l32 -18q-25 -63 -84 -112.5t-115.5 -74t-168 -67.5t-174.5 -72q-184 -84 -278.5 -189.5t-141.5 -291.5q100 150 243.5 227.5t290.5 77.5q199 0 314.5 -138.5t79.5 -345.5 q-35 -207 -195 -338t-379 -131t-341 144.5t-79 380.5zM141 502q-39 -219 67.5 -353.5t317.5 -134.5q199 0 346.5 123t180.5 316q33 190 -69.5 315t-291.5 125q-174 0 -327.5 -110.5t-223.5 -280.5z" />
<glyph unicode="&#x432;" horiz-adv-x="1064" d="M94 0l180 1024h459q135 0 198.5 -74.5t45.5 -185.5q-35 -182 -203 -234q98 -25 140 -95t26 -165q-23 -121 -110 -195.5t-242 -74.5h-494zM141 37h453q125 0 205 62.5t100.5 173t-39 173t-184.5 62.5h-451zM231 545h416q117 0 194 59.5t95 161.5q16 102 -39 161.5 t-170 59.5h-418z" />
<glyph unicode="&#x433;" horiz-adv-x="819" d="M94 0l180 1024h615l-6 -37h-574l-174 -987h-41z" />
<glyph unicode="&#x434;" horiz-adv-x="1210" d="M-78 -274l58 311h108q152 172 203 461l92 526h690l-174 -987h145l-57 -311h-41l51 274h-983l-51 -274h-41zM141 37h717l168 950h-608l-86 -489q-54 -289 -191 -461z" />
<glyph unicode="&#x435;" horiz-adv-x="1222" d="M102 516q41 229 208.5 378.5t400.5 149.5q225 0 335.5 -157.5t73.5 -376.5l-4 -23h-977q-27 -211 83 -341t317 -130q139 0 254.5 56.5t183.5 154.5l31 -20q-74 -106 -199 -166.5t-277 -60.5q-229 0 -350 151.5t-80 384.5zM145 524h940q29 217 -75.5 350.5t-302.5 133.5 q-207 0 -364 -135.5t-198 -348.5z" />
<glyph unicode="&#x436;" horiz-adv-x="1310" d="M-29 0l633 537l-424 487h47l418 -477l84 477h41l-84 -479l584 479h57l-606 -496l438 -528h-47l-430 518l-92 -518h-41l90 518l-610 -518h-58z" />
<glyph unicode="&#x437;" horiz-adv-x="911" d="M29 215l34 18q27 -217 316 -217q147 0 245.5 68t119 178.5t-45 178t-196.5 67.5h-123l6 37h88q123 0 208 63.5t101 167.5q18 102 -51 167t-194 65q-119 0 -208 -51.5t-139 -137.5l-30 19q53 94 151.5 150t231.5 56q145 0 222.5 -80.5t57.5 -191.5q-31 -184 -219 -242 q104 -25 151.5 -100.5t28.5 -171.5q-20 -119 -128.5 -198.5t-282.5 -79.5q-307 0 -344 235z" />
<glyph unicode="&#x438;" d="M94 0l180 1024h41l-170 -958l908 958h41l-181 -1024h-41l170 958l-907 -958h-41z" />
<glyph unicode="&#x439;" d="M94 0l180 1024h41l-170 -958l908 958h41l-181 -1024h-41l170 958l-907 -958h-41zM475 1231l6 33h492l-6 -33h-492z" />
<glyph unicode="&#x43a;" horiz-adv-x="944" d="M94 0l180 1024h41l-84 -479l668 479h64l-691 -496l521 -528h-54l-512 520l-92 -520h-41z" />
<glyph unicode="&#x43b;" d="M-49 0l6 37q131 -10 213 84t117 295l106 608h701l-181 -1024h-41l175 987h-619l-100 -571q-43 -242 -139.5 -335t-237.5 -81z" />
<glyph unicode="&#x43c;" horiz-adv-x="1331" d="M94 0l180 1024h50l313 -639l543 639h57l-180 -1024h-41l170 969l-551 -650h-12l-318 652l-170 -971h-41z" />
<glyph unicode="&#x43d;" d="M94 0l180 1024h41l-86 -494h738l86 494h41l-181 -1024h-41l86 494h-737l-86 -494h-41z" />
<glyph unicode="&#x43e;" horiz-adv-x="1273" d="M104.5 520q38.5 225 219 374.5t405.5 149.5q221 0 350 -157.5t90 -382.5t-219 -374.5t-405 -149.5q-221 0 -350 157.5t-90.5 382.5zM145.5 512q-36.5 -209 81 -352.5t322.5 -143.5q207 0 375 143.5t204.5 352.5t-81 352.5t-322.5 143.5q-207 0 -375 -143.5t-204.5 -352.5 z" />
<glyph unicode="&#x43f;" d="M94 0l180 1024h820l-181 -1024h-41l175 987h-738l-174 -987h-41z" />
<glyph unicode="&#x440;" horiz-adv-x="1355" d="M23 -410l251 1434h41l-51 -287q80 143 219.5 225t309.5 82q219 0 357 -166.5t99 -392t-208 -365.5t-396 -140q-170 0 -294 104t-154 266l-134 -760h-40zM229.5 532.5q-36.5 -208.5 89 -362.5t332.5 -154t363.5 133.5t193.5 342t-89 362.5t-332.5 154t-363.5 -133.5 t-193.5 -342z" />
<glyph unicode="&#x441;" d="M104 518q41 225 219.5 375.5t407.5 150.5q145 0 254 -68.5t148 -180.5l-35 -21q-35 109 -132.5 171.5t-240.5 62.5q-213 0 -378 -142.5t-201.5 -353.5t77 -353.5t326.5 -142.5q139 0 261 63.5t196 170.5l30 -21q-80 -117 -208.5 -183t-284.5 -66q-227 0 -353.5 155.5 t-85.5 382.5z" />
<glyph unicode="&#x442;" horiz-adv-x="901" d="M125 987l6 37h819l-6 -37h-389l-174 -987h-41l174 987h-389z" />
<glyph unicode="&#x443;" horiz-adv-x="1044" d="M2 -410l6 37q106 -8 216 71t190 220l18 31l-301 1075h39l289 -1026l590 1026h45l-643 -1118q-90 -154 -207 -240t-242 -76z" />
<glyph unicode="&#x444;" horiz-adv-x="1376" d="M104.5 520q38.5 225 222 373.5t435.5 155.5l67 385h41l-67 -385q244 -8 376 -164t93 -381t-222.5 -373.5t-435.5 -155.5l-67 -385h-41l67 385q-244 8 -375.5 164t-93 381zM145.5 512q-36.5 -213 85 -353.5t349.5 -146.5l176 1000q-231 -8 -402.5 -147.5t-208 -352.5z M621 12q231 8 402 148.5t208 351.5q37 213 -85 353.5t-349 146.5z" />
<glyph unicode="&#x445;" horiz-adv-x="1024" d="M-29 0l518 526l-317 498h45l301 -469l461 469h53l-493 -502l333 -522h-45l-315 494l-487 -494h-54z" />
<glyph unicode="&#x446;" horiz-adv-x="1228" d="M94 0l180 1024h41l-174 -987h717l174 987h41l-174 -987h164l-55 -311h-41l49 274h-922z" />
<glyph unicode="&#x447;" horiz-adv-x="1126" d="M176 696l57 328h41l-57 -328q-25 -139 52 -225t249 -86q160 0 375 82l98 557h41l-180 -1024h-41l74 420q-201 -72 -363 -72q-193 0 -284 95.5t-62 252.5z" />
<glyph unicode="&#x448;" horiz-adv-x="1699" d="M94 0l180 1024h41l-174 -987h604l175 987h41l-175 -987h605l174 987h41l-181 -1024h-1331z" />
<glyph unicode="&#x449;" horiz-adv-x="1740" d="M94 0l180 1024h41l-174 -987h604l175 987h41l-175 -987h605l174 987h41l-174 -987h143l-55 -311h-41l49 274h-1434z" />
<glyph unicode="&#x44a;" horiz-adv-x="1105" d="M84 987l6 37h348l-73 -414h346q133 0 217 -87t59 -222q-25 -137 -134.5 -219t-250.5 -82h-385l174 987h-307zM264 37h344q125 0 221.5 76.5t117 193.5t-48.5 191.5t-196 74.5h-344z" />
<glyph unicode="&#x44b;" horiz-adv-x="1310" d="M94 0l180 1024h41l-73 -414h346q133 0 217 -87t59 -222q-25 -137 -134 -219t-251 -82h-385zM141 37h344q125 0 221.5 76.5t117 193.5t-48 191.5t-195.5 74.5h-344zM995 0l181 1024h41l-181 -1024h-41z" />
<glyph unicode="&#x44c;" horiz-adv-x="983" d="M94 0l180 1024h41l-73 -414h346q133 0 217 -87t59 -222q-25 -137 -134 -219t-251 -82h-385zM141 37h344q125 0 221.5 76.5t117 193.5t-48 191.5t-195.5 74.5h-344z" />
<glyph unicode="&#x44d;" d="M55 229l35 21q35 -109 132 -171.5t241 -62.5q207 0 370.5 136.5t204.5 341.5h-565l8 36h563q29 205 -84.5 341.5t-320.5 136.5q-139 0 -261 -63.5t-196 -170.5l-30 21q80 117 208.5 183t284.5 66q227 0 353 -155.5t85 -382.5q-41 -225 -219 -375.5t-407 -150.5 q-145 0 -254 68.5t-148 180.5z" />
<glyph unicode="&#x44e;" horiz-adv-x="1658" d="M94 0l180 1024h41l-86 -494h263q43 221 222 367.5t400 146.5t350 -157.5t90.5 -382.5t-219 -374.5t-405.5 -149.5q-215 0 -344 148t-101 366h-264l-86 -494h-41zM530.5 512q-36.5 -209 81 -352.5t322.5 -143.5q207 0 375 143.5t204.5 352.5t-81 352.5t-322.5 143.5 q-207 0 -375 -143.5t-204.5 -352.5z" />
<glyph unicode="&#x44f;" horiz-adv-x="1024" d="M12 0l408 414q-127 6 -206 92t-54 217q25 137 135.5 219t249.5 82h385l-180 -1024h-41l73 414h-311l-401 -414h-58zM200.5 717q-20.5 -117 48 -191.5t195.5 -74.5h344l95 536h-344q-127 0 -222.5 -76.5t-116 -193.5z" />
<glyph unicode="&#x451;" horiz-adv-x="1222" d="M102 516q41 229 208.5 378.5t400.5 149.5q225 0 335.5 -157.5t73.5 -376.5l-4 -23h-977q-27 -211 83 -341t317 -130q139 0 254.5 56.5t183.5 154.5l31 -20q-74 -106 -199 -166.5t-277 -60.5q-229 0 -350 151.5t-80 384.5zM145 524h940q29 217 -75.5 350.5t-302.5 133.5 q-207 0 -364 -135.5t-198 -348.5zM537 1229q8 41 49 41q16 0 26.5 -12.5t5.5 -28.5q-8 -41 -47 -41q-16 0 -26 12t-8 29zM864 1229q8 41 49 41q16 0 26.5 -12.5t6.5 -28.5q-8 -41 -47 -41q-16 0 -26.5 12t-8.5 29z" />
<glyph unicode="&#x452;" horiz-adv-x="1218" d="M135 0l215 1219h-164l7 34h163l31 181h41l-31 -181h369l-6 -34h-369l-82 -459q72 139 194 211.5t261 72.5q174 0 265 -108.5t61 -284.5l-148 -835q-23 -129 -104.5 -195.5t-223.5 -50.5l7 37q240 -27 280 209l148 835q27 156 -50 256.5t-239 100.5q-176 0 -310.5 -121 t-175.5 -322l-98 -565h-41z" />
<glyph unicode="&#x453;" horiz-adv-x="819" d="M94 0l180 1024h615l-6 -37h-574l-174 -987h-41zM508 1167l205 246h45l-211 -246h-39z" />
<glyph unicode="&#x454;" d="M104 518q41 225 219.5 375.5t407.5 150.5q145 0 254 -68.5t148 -180.5l-35 -21q-35 109 -132.5 171.5t-240.5 62.5q-207 0 -371 -136.5t-204 -341.5h565l-8 -36h-564q-29 -205 85 -341.5t321 -136.5q139 0 261 63.5t196 170.5l30 -21q-80 -117 -209 -183t-284 -66 q-227 0 -353.5 155.5t-85.5 382.5z" />
<glyph unicode="&#x455;" horiz-adv-x="954" d="M57 195l37 16q66 -195 326 -195q131 0 226 57.5t114 162.5q12 70 -16.5 118.5t-83 76.5t-122 49.5t-135 44t-122 52t-82 83t-13.5 128.5q20 121 122 188.5t247 67.5q111 0 198 -54t119 -142l-34 -17q-31 80 -110 128.5t-177 48.5q-125 0 -215 -58.5t-109 -169.5 q-14 -90 45.5 -143t153.5 -81t187.5 -57.5t149.5 -96t38 -175.5q-20 -117 -126.5 -182t-258.5 -65q-281 0 -359 215z" />
<glyph unicode="&#x456;" horiz-adv-x="409" d="M94 0l180 1024h41l-180 -1024h-41zM311 1380q12 47 56 47q20 0 31.5 -14t7 -32.5t-19.5 -33t-35.5 -14.5t-32 14.5t-7.5 32.5z" />
<glyph unicode="&#x457;" horiz-adv-x="409" d="M94 0l180 1024h41l-180 -1024h-41zM125 1229q8 41 49 41q16 0 26.5 -12.5t6.5 -28.5q-8 -41 -47 -41q-16 0 -26.5 12t-8.5 29zM453 1229q8 41 49 41q16 0 26.5 -12.5t6.5 -28.5q-9 -41 -48 -41q-16 0 -26 12t-8 29z" />
<glyph unicode="&#x458;" horiz-adv-x="428" d="M-207 -430l6 37q240 -27 281 209l213 1208h41l-213 -1208q-23 -129 -105 -195.5t-223 -50.5zM330 1380q12 47 55 47q20 0 31.5 -14t7.5 -32.5t-19.5 -33t-36 -14.5t-31.5 14.5t-7 32.5z" />
<glyph unicode="&#x459;" horiz-adv-x="1701" d="M-49 0l6 37q131 -10 212 82t118 297l106 608h680l-80 -455h324q129 0 208 -77.5t54 -213t-126 -207t-236 -71.5h-365l174 987h-598l-100 -571q-43 -244 -139.5 -337t-237.5 -79zM899 37h324q121 0 208 67.5t107.5 182t-43 180t-184.5 65.5h-324z" />
<glyph unicode="&#x45a;" horiz-adv-x="1681" d="M94 0l180 1024h41l-79 -455h696l80 455h41l-80 -455h323q129 0 208 -77.5t54.5 -213t-126 -207t-236.5 -71.5h-365l95 532h-697l-94 -532h-41zM879 37h323q121 0 208 67.5t107.5 182t-43 180t-184.5 65.5h-323z" />
<glyph unicode="&#x45b;" horiz-adv-x="1218" d="M135 0l215 1219h-164l7 34h163l31 181h41l-31 -181h369l-6 -34h-369l-82 -459q72 139 194 211.5t261 72.5q174 0 265 -108.5t61 -284.5l-115 -651h-41l115 651q27 156 -50 256.5t-239 100.5q-176 0 -310.5 -121t-175.5 -322l-98 -565h-41z" />
<glyph unicode="&#x45c;" horiz-adv-x="944" d="M94 0l180 1024h41l-84 -479l668 479h64l-691 -496l521 -528h-54l-512 520l-92 -520h-41zM528 1167l205 246h45l-211 -246h-39z" />
<glyph unicode="&#x45e;" horiz-adv-x="1044" d="M2 -410l6 37q106 -8 216 71t190 220l18 31l-301 1075h39l289 -1026l590 1026h45l-643 -1118q-90 -154 -207 -240t-242 -76zM377 1231l6 33h491l-6 -33h-491z" />
<glyph unicode="&#x45f;" d="M94 0l180 1024h41l-174 -987h738l174 987h41l-181 -1024h-389l-49 -274h-41l49 274h-389z" />
<glyph unicode="&#x490;" horiz-adv-x="1024" d="M115 0l252 1434h716l45 245h41l-51 -282h-717l-245 -1397h-41z" />
<glyph unicode="&#x491;" horiz-adv-x="819" d="M94 0l180 1024h574l37 213h41l-43 -250h-574l-174 -987h-41z" />
<glyph unicode="&#x2000;" horiz-adv-x="910" />
<glyph unicode="&#x2001;" horiz-adv-x="1821" />
<glyph unicode="&#x2002;" horiz-adv-x="910" />
<glyph unicode="&#x2003;" horiz-adv-x="1821" />
<glyph unicode="&#x2004;" horiz-adv-x="607" />
<glyph unicode="&#x2005;" horiz-adv-x="455" />
<glyph unicode="&#x2006;" horiz-adv-x="303" />
<glyph unicode="&#x2007;" horiz-adv-x="303" />
<glyph unicode="&#x2008;" horiz-adv-x="227" />
<glyph unicode="&#x2009;" horiz-adv-x="364" />
<glyph unicode="&#x200a;" horiz-adv-x="101" />
<glyph unicode="&#x2010;" horiz-adv-x="1146" d="M223 614l6 37h738l-6 -37h-738z" />
<glyph unicode="&#x2011;" horiz-adv-x="1146" d="M223 614l6 37h738l-6 -37h-738z" />
<glyph unicode="&#x2012;" horiz-adv-x="1146" d="M223 614l6 37h738l-6 -37h-738z" />
<glyph unicode="&#x2013;" horiz-adv-x="1427" d="M223 614l6 37h1018l-6 -37h-1018z" />
<glyph unicode="&#x2014;" horiz-adv-x="1632" d="M223 614l6 37h1223l-6 -37h-1223z" />
<glyph unicode="&#x2018;" horiz-adv-x="389" d="M231 1075l148 359h39l-131 -359h-56z" />
<glyph unicode="&#x2019;" horiz-adv-x="389" d="M231 1075l131 359h56l-148 -359h-39z" />
<glyph unicode="&#x201a;" horiz-adv-x="389" d="M-8 -287l131 359h55l-147 -359h-39z" />
<glyph unicode="&#x201c;" horiz-adv-x="593" d="M231 1075l148 359h39l-131 -359h-56zM436 1075l148 359h39l-131 -359h-56z" />
<glyph unicode="&#x201d;" horiz-adv-x="593" d="M231 1075l131 359h56l-148 -359h-39zM436 1075l131 359h56l-148 -359h-39z" />
<glyph unicode="&#x201e;" horiz-adv-x="593" d="M-8 -287l131 359h55l-147 -359h-39zM197 -287l131 359h55l-147 -359h-39z" />
<glyph unicode="&#x2020;" horiz-adv-x="942" d="M231 1012l7 37h307l67 385h41l-67 -385h307l-6 -37h-307l-179 -1012h-41l179 1012h-308z" />
<glyph unicode="&#x2021;" horiz-adv-x="942" d="M121 385l6 37h307l105 590h-308l7 37h307l67 385h41l-67 -385h307l-6 -37h-307l-105 -590h307l-6 -37h-307l-68 -385h-41l68 385h-307z" />
<glyph unicode="&#x2022;" horiz-adv-x="493" d="M160 723q8 51 50 84t95 33q51 0 81 -37t20 -88q-8 -51 -50.5 -86t-93.5 -35t-81.5 38t-20.5 91z" />
<glyph unicode="&#x2026;" horiz-adv-x="1146" d="M49 33q10 49 60 49q20 0 32.5 -15.5t8.5 -37.5q-11 -49 -60 -49q-20 0 -32.5 15t-8.5 38zM438 33q10 49 60 49q20 0 32.5 -15.5t8.5 -37.5q-11 -49 -60 -49q-20 0 -32.5 15t-8.5 38zM827 33q10 49 60 49q20 0 32.5 -15.5t8.5 -37.5q-11 -49 -60 -49q-20 0 -32.5 15 t-8.5 38z" />
<glyph unicode="&#x202f;" horiz-adv-x="364" />
<glyph unicode="&#x2030;" horiz-adv-x="2250" d="M168 162l1192 1128l37 -18l-1192 -1129zM256 1155q23 129 125 214t240 85q133 0 208.5 -90t53.5 -217q-23 -129 -125.5 -214t-239.5 -85q-133 0 -209 90t-53 217zM296.5 1151q-20.5 -115 44 -190.5t181.5 -75.5q119 0 209 75.5t110.5 190.5t-44 190.5t-181 75.5 t-208 -75.5t-112 -190.5zM682 287q23 129 125 214t240 85q133 0 208.5 -90t53.5 -217q-23 -129 -125.5 -214t-239.5 -85q-133 0 -209 90t-53 217zM722.5 282.5q-20.5 -114.5 44 -190.5t181.5 -76q119 0 209 76t110.5 190.5t-44 190.5t-181 76t-208 -76t-112 -190.5z M1440 287q23 129 125 214t239 85q133 0 209 -90t53 -217q-23 -129 -125 -214t-239 -85q-133 0 -209 90t-53 217zM1480.5 282.5q-20.5 -114.5 44 -190.5t181.5 -76q119 0 209 76t110.5 190.5t-44 190.5t-181.5 76t-208 -76t-111.5 -190.5z" />
<glyph unicode="&#x2039;" horiz-adv-x="663" d="M225 633l264 328h50l-269 -332l146 -324h-43z" />
<glyph unicode="&#x203a;" horiz-adv-x="665" d="M168 305l268 332l-145 324h43l147 -328l-264 -328h-49z" />
<glyph unicode="&#x2044;" horiz-adv-x="491" d="M-295 0l1106 1434h47l-1106 -1434h-47z" />
<glyph unicode="&#x205f;" horiz-adv-x="455" />
<glyph unicode="&#x20ac;" horiz-adv-x="1269" d="M70 557l6 37h188q8 86 17 127q14 74 26 119h-188l6 37h192q78 270 239 423.5t374 153.5q141 0 236.5 -72.5t133.5 -201.5l-34 -17q-35 123 -122 188.5t-216 65.5q-193 0 -342.5 -142t-227.5 -398h607l-7 -37h-610q-12 -45 -26 -123q-8 -41 -17 -123h610l-6 -37h-606 q-14 -256 85 -398.5t292 -142.5q131 0 241.5 67t186.5 191l35 -18q-170 -276 -469 -276q-209 0 -317.5 155.5t-94.5 421.5h-192z" />
<glyph unicode="&#x2122;" horiz-adv-x="1034" d="M299 1395l6 39h291l-6 -39h-127l-66 -371h-41l66 371h-123zM592 1024l72 410h41l106 -250l197 250h45l-72 -410h-41l59 336l-192 -242h-8l-107 244l-59 -338h-41z" />
<glyph unicode="&#x25fc;" horiz-adv-x="1024" d="M0 0v1024h1024v-1024h-1024z" />
</font>
</defs>
</svg>
