<?xml version="1.0" standalone="no"?>
<!DOCTYPE svg PUBLIC "-//W3C//DTD SVG 1.1//EN" "http://www.w3.org/Graphics/SVG/1.1/DTD/svg11.dtd" >
<svg xmlns="http://www.w3.org/2000/svg" xmlns:xlink="http://www.w3.org/1999/xlink" version="1.1">
<metadata></metadata>
<defs>
<font id="gilroy-heavyitaliuploadedfile" horiz-adv-x="1167" >
<font-face units-per-em="2048" ascent="1587" descent="-461" />
<missing-glyph horiz-adv-x="409" />
<glyph horiz-adv-x="0" />
<glyph unicode="&#xd;" horiz-adv-x="681" />
<glyph unicode=" "  horiz-adv-x="409" />
<glyph unicode="&#x09;" horiz-adv-x="409" />
<glyph unicode="&#xa0;" horiz-adv-x="409" />
<glyph unicode="!" horiz-adv-x="634" d="M30.5 209q16.5 98 95.5 164.5t179 66.5q98 0 153.5 -70.5t39.5 -168.5q-16 -100 -92.5 -166t-182.5 -66q-98 0 -153.5 71t-39 169zM158 532l14 492l72 410h471l-72 -410l-158 -492h-327z" />
<glyph unicode="&#x22;" horiz-adv-x="1003" d="M205 860l59 574h348l-141 -574h-266zM655 860l60 574h348l-141 -574h-267z" />
<glyph unicode="#" horiz-adv-x="1316" d="M18 389l88 266h201l41 123h-198l90 266h200l99 287h295l-99 -287h148l98 287h295l-98 -287h192l-90 -266h-195l-41 -123h195l-88 -266h-199l-98 -287h-295l98 287h-147l-98 -287h-295l98 287h-197zM602 655h148l41 123h-148z" />
<glyph unicode="$" horiz-adv-x="1179" d="M-2 328l354 182q47 -127 154 -160l35 199q-35 10 -58 20q-381 158 -321 492q33 188 182.5 296.5t357.5 108.5l31 172h144l-33 -186q266 -55 375 -319l-347 -185q-33 88 -96 123l-33 -190l35 -13q33 -12 57.5 -21t56.5 -23.5t55.5 -29t51 -33t46 -40t38 -47t29.5 -55 t17.5 -64.5t6.5 -77t-10 -89q-35 -199 -179 -306.5t-365 -115.5l-31 -172h-143l30 178q-172 23 -283.5 115t-156.5 240zM555 1020q-8 -49 53 -84l29 154q-72 -15 -82 -70zM649 346q72 19 82 76q8 47 -55 78z" />
<glyph unicode="%" horiz-adv-x="1777" d="M164 1090q29 162 157 269t300 107q168 0 265 -118.5t68.5 -282.5t-155.5 -270.5t-299 -106.5q-170 0 -267.5 119t-68.5 283zM276 225l1137 1022l127 -84l-1137 -1022zM461 1077q-8 -41 15.5 -71.5t64.5 -30.5q43 0 76.5 30.5t41.5 71.5q8 43 -15 73t-66 30t-76 -30 t-41 -73zM897 369q29 162 157 269t300 107q168 0 265 -119.5t69 -281.5q-29 -164 -156 -270.5t-299 -106.5q-170 0 -267.5 119t-68.5 283zM1194 356q-8 -41 15.5 -71.5t64.5 -30.5q43 0 76.5 30.5t42 71.5t-15 72t-66.5 31t-76 -30t-41 -73z" />
<glyph unicode="&#x26;" horiz-adv-x="1437" d="M47 428q37 256 311 387q-57 129 -39 252q27 182 170.5 290.5t352.5 108.5q371 0 510 -338l-367 -192q-57 150 -154 149q-41 0 -67.5 -23.5t-32.5 -60.5q-4 -23 0 -45t22.5 -54t28 -46t41.5 -57l158 -215q53 88 94 192l287 -186q-90 -172 -176 -285l157 -217l-333 -164 l-103 135q-168 -92 -372 -92q-260 0 -388.5 132t-99.5 329zM457 438q-10 -55 27.5 -93t113.5 -38q51 0 109 21l-170 225q-70 -49 -80 -115z" />
<glyph unicode="'" horiz-adv-x="552" d="M205 860l59 574h348l-141 -574h-266z" />
<glyph unicode="(" horiz-adv-x="686" d="M102.5 257q-18.5 251 22.5 501q82 473 381 880h379q-305 -449 -387 -921.5t61 -921.5h-366q-72 211 -90.5 462z" />
<glyph unicode=")" horiz-adv-x="684" d="M-127 -205q305 449 387 922t-61 921h366q72 -211 90.5 -461.5t-22.5 -500.5q-82 -473 -381 -881h-379z" />
<glyph unicode="*" horiz-adv-x="839" d="M172 1018l37 213l184 -21l-92 146l191 110l59 -161l117 161l170 -110l-146 -146l193 21l-37 -213l-186 20l94 -145l-193 -111l-59 162l-117 -162l-168 111l143 145z" />
<glyph unicode="+" horiz-adv-x="1146" d="M66 532l65 369h328l57 328h369l-58 -328h328l-65 -369h-328l-57 -327h-369l57 327h-327z" />
<glyph unicode="," horiz-adv-x="645" d="M-59 -287l182 686h430l-305 -686h-307z" />
<glyph unicode="-" horiz-adv-x="1024" d="M90 444l64 357h819l-64 -357h-819z" />
<glyph unicode="." horiz-adv-x="614" d="M18.5 209q16.5 98 96.5 164.5t180 66.5q98 0 153.5 -70.5t38.5 -168.5q-16 -100 -92 -166t-182 -66q-98 0 -154.5 71t-40 169z" />
<glyph unicode="/" horiz-adv-x="1064" d="M-86 -205l1135 1843h174l-1135 -1843h-174z" />
<glyph unicode="0" horiz-adv-x="1290" d="M80 737q59 342 244.5 535.5t478.5 193.5q281 0 409.5 -215t69.5 -555q-61 -344 -244.5 -536.5t-478.5 -192.5q-283 0 -412 215t-67 555zM487 717q-63 -352 131.5 -352t258.5 352q59 352 -134 352q-197 0 -256 -352z" />
<glyph unicode="1" horiz-adv-x="876" d="M137 1288l430 146h348l-251 -1434h-410l172 985l-254 -59z" />
<glyph unicode="2" horiz-adv-x="1118" d="M-49 0l51 299l569 506q141 123 152 188q4 33 -14.5 54.5t-57.5 21.5q-106 0 -198 -151l-336 202q100 170 255.5 258t329.5 88q209 0 340.5 -138t94.5 -353q-23 -127 -84.5 -215t-192.5 -201l-188 -162h385l-70 -397h-1036z" />
<glyph unicode="3" horiz-adv-x="1116" d="M-27 307l377 195q39 -137 162 -137q125 0 143 106q8 51 -23.5 76.5t-82.5 25.5h-84l-117 238l219 225h-420l70 398h942l-55 -316l-277 -280q125 -49 190.5 -158t41.5 -260q-43 -229 -203 -341t-389 -112q-188 0 -317.5 86t-176.5 254z" />
<glyph unicode="4" horiz-adv-x="1177" d="M-33 209l66 369l536 856h473l-544 -856h137l35 200h401l-35 -200h144l-66 -369h-143l-37 -209h-402l37 209h-602z" />
<glyph unicode="5" horiz-adv-x="1126" d="M-27 307l379 199q20 -72 61.5 -106.5t114.5 -34.5q131 0 150 98q10 49 -20.5 77.5t-84.5 28.5h-471l211 865h863l-70 -398h-488l-26 -104h63q219 0 344 -131t82 -371q-39 -225 -205.5 -344t-394.5 -119q-197 0 -327.5 86t-180.5 254z" />
<glyph unicode="6" horiz-adv-x="1146" d="M16 494q27 158 127 276l533 664h469l-373 -469q186 -39 281.5 -180.5t62.5 -331.5q-41 -225 -204.5 -355.5t-413.5 -130.5q-262 0 -392.5 149.5t-89.5 377.5zM424 473q-14 -70 18.5 -104.5t100.5 -34.5q141 0 168 139q25 139 -118.5 139t-168.5 -139z" />
<glyph unicode="7" horiz-adv-x="1003" d="M16 0l574 1036h-518l69 398h1002l-58 -336l-606 -1098h-463z" />
<glyph unicode="8" horiz-adv-x="1155" d="M14 420q43 231 265 342q-135 117 -103 295q33 188 185.5 296.5t363.5 108.5q215 0 346 -118.5t96 -315.5q-33 -182 -202 -287q176 -129 137 -354q-35 -199 -187.5 -307.5t-410.5 -108.5q-270 0 -398.5 123t-91.5 326zM432 461q-12 -57 18.5 -89t96.5 -32q133 0 160 121 q10 57 -22 89t-95 32q-137 0 -158 -121zM535 997q-8 -51 20.5 -77.5t89.5 -26.5q57 0 98 26.5t49.5 78t-22.5 78t-88 26.5q-129 -1 -147 -105z" />
<glyph unicode="9" horiz-adv-x="1146" d="M74 0l372 469q-186 39 -281 180.5t-63 331.5q41 225 205 355t414 130q262 0 392 -149.5t89 -376.5q-27 -158 -127 -276l-532 -664h-469zM508 961q-25 -139 118.5 -139.5t168.5 139.5q14 70 -19 104.5t-100 34.5q-141 0 -168 -139z" />
<glyph unicode=":" horiz-adv-x="614" d="M18.5 209q16.5 98 96.5 164.5t180 66.5q98 0 153.5 -70.5t38.5 -168.5q-16 -100 -92 -166t-182 -66q-98 0 -154.5 71t-40 169zM127 823.5q16 98.5 96 165t180 66.5q98 0 153.5 -71t39.5 -169q-16 -100 -92 -165.5t-182 -65.5q-98 0 -154.5 70.5t-40.5 169z" />
<glyph unicode=";" horiz-adv-x="645" d="M-70 -287l183 686h430l-305 -686h-308zM157.5 823.5q16.5 98.5 96.5 165t180 66.5q98 0 153.5 -71t39.5 -169q-16 -100 -92.5 -165.5t-182.5 -65.5q-98 0 -154.5 70.5t-40 169z" />
<glyph unicode="&#x3c;" horiz-adv-x="1044" d="M68 543l61 348l991 399l-73 -418l-564 -176l502 -176l-67 -377z" />
<glyph unicode="=" horiz-adv-x="1024" d="M25 297l63 369h899l-63 -369h-899zM106 768l66 369h899l-65 -369h-900z" />
<glyph unicode="&#x3e;" horiz-adv-x="1044" d="M-4 143l76 418l563 176l-502 176l66 377l852 -399l-62 -348z" />
<glyph unicode="?" horiz-adv-x="1093" d="M127 1120q90 174 244.5 260t337.5 86q205 0 326.5 -123.5t88.5 -308.5q-16 -86 -61 -156.5t-101.5 -114.5t-110.5 -81t-95 -74t-47 -76h-369q12 84 53 151t89 106.5t96.5 72.5t84 68t42.5 69q6 33 -13.5 53.5t-56.5 20.5q-100 0 -182 -158zM233.5 209q16.5 98 96.5 164.5 t180 66.5q98 0 153.5 -70.5t38.5 -168.5q-16 -100 -92 -166t-182 -66q-98 0 -154.5 71t-40 169z" />
<glyph unicode="@" horiz-adv-x="1564" d="M55 532q55 313 290.5 517t561.5 204q209 0 362.5 -110.5t216 -274t32.5 -336.5q-41 -223 -144.5 -335.5t-279.5 -112.5q-98 0 -168 44t-92 120q-84 -74 -201 -74q-139 0 -213 105.5t-47 252.5q27 145 122 231.5t224 86.5q113 0 180 -88l12 63h312l-86 -483q-10 -61 5 -92 t64 -31q154 0 209 313q45 256 -109.5 441.5t-414.5 185.5q-272 0 -479 -177t-254 -450q-49 -281 115.5 -474t445.5 -193q166 0 301 41l-19 -101q-133 -35 -299 -34q-322 0 -513 221t-134 540zM680 512q-8 -41 12.5 -68.5t59.5 -27.5t66.5 26.5t35.5 69.5t-11.5 69.5 t-58.5 26.5t-67.5 -26.5t-36.5 -69.5z" />
<glyph unicode="A" horiz-adv-x="1351" d="M-111 0l709 1434h479l205 -1434h-428l-16 184h-414l-82 -184h-453zM569 512h238l-41 440z" />
<glyph unicode="B" horiz-adv-x="1239" d="M12 0l252 1434h549q233 0 354 -120q94 -93 94 -225q0 -38 -8 -79q-37 -188 -194 -283q135 -96 135 -257q0 -33 -6 -69q-27 -180 -177.5 -290.5t-392.5 -110.5h-606zM483 352h172q51 0 87 28t46 75q3 14 3 26q0 64 -72 74l-199 2zM578 889l157 2q90 12 105 94q2 11 2 22 q0 35 -22 51q-28 22 -72 23h-136z" />
<glyph unicode="C" horiz-adv-x="1476" d="M90 737q51 319 289.5 524t554.5 205q422 0 604 -352l-375 -199q-84 150 -266 150q-147 0 -260 -98.5t-139 -249.5q-6 -37 -6 -70q0 -101 55 -177q74 -102 221 -101q170 0 293 159l340 -215q-111 -164 -284 -255t-380 -91q-334 -1 -517 219q-142 170 -142 408q0 69 12 143 z" />
<glyph unicode="D" horiz-adv-x="1443" d="M12 0l252 1434h594q283 0 452 -218q128 -165 128 -378q0 -68 -13 -142q-55 -309 -276 -502.5t-543 -193.5h-594zM512 397h164q125 0 221 89.5t123 230.5q7 39 7 74q0 92 -48 156q-66 89 -191 89h-163z" />
<glyph unicode="E" horiz-adv-x="1105" d="M12 0l252 1434h932l-66 -373h-522l-26 -156h471l-66 -368h-471l-29 -160h533l-66 -377h-942z" />
<glyph unicode="F" horiz-adv-x="1054" d="M12 0l252 1434h891l-70 -398h-481l-33 -186h471l-69 -397h-471l-80 -453h-410z" />
<glyph unicode="G" horiz-adv-x="1583" d="M90 737q53 322 290.5 525.5t557.5 203.5q209 0 360.5 -89t239.5 -242l-375 -203q-84 133 -266 133q-147 0 -260 -97.5t-139 -250.5q-7 -39 -7 -74q0 -104 58 -185q78 -110 225 -110q217 0 313 150h-288l61 348h729l-28 -170q-53 -317 -272.5 -513t-547.5 -196 q-336 0 -521 221q-143 169 -143 404q0 70 13 145z" />
<glyph unicode="H" horiz-adv-x="1372" d="M12 0l252 1434h410l-90 -508h348l90 508h410l-252 -1434h-410l92 528h-348l-92 -528h-410z" />
<glyph unicode="I" horiz-adv-x="614" d="M12 0l252 1434h410l-252 -1434h-410z" />
<glyph unicode="J" horiz-adv-x="1163" d="M-2 272l367 195q23 -57 56.5 -79.5t86.5 -22.5q137 0 158 116l168 953h409l-170 -963q-90 -504 -590 -504q-365 0 -485 305z" />
<glyph unicode="K" horiz-adv-x="1302" d="M12 0l252 1434h410l-96 -553l417 553h475l-567 -719l330 -715h-428l-275 616l-108 -616h-410z" />
<glyph unicode="L" horiz-adv-x="1003" d="M12 0l252 1434h410l-182 -1037h471l-70 -397h-881z" />
<glyph unicode="M" horiz-adv-x="1699" d="M12 0l252 1434h410l215 -588l440 588h430l-252 -1434h-409l121 690l-402 -528h-37l-233 555l-125 -717h-410z" />
<glyph unicode="N" horiz-adv-x="1392" d="M12 0l252 1434h328l330 -689l120 689h410l-252 -1434h-328l-329 688l-121 -688h-410z" />
<glyph unicode="O" horiz-adv-x="1622" d="M92 741q49 297 281.5 511t572.5 214q176 0 315.5 -66.5t219.5 -175.5q81 -108 113 -244q19 -81 19 -165q0 -57 -9 -115q-47 -299 -275.5 -516t-572.5 -217q-233 0 -399.5 116t-230.5 291q-44 118 -44 244q0 61 10 123zM498 716q-6 -37 -7 -70q0 -104 62 -178 q82 -99 233.5 -99t267.5 99q117 98 144 248q7 37 7 71q0 103 -62 179q-82 100 -233.5 99.5t-268.5 -100t-143 -249.5z" />
<glyph unicode="P" horiz-adv-x="1218" d="M12 0l252 1434h563q209 0 341 -146q105 -116 105 -294q0 -46 -7 -95q-33 -225 -194 -359t-415 -134h-163l-72 -406h-410zM563 803h164q47 0 86 32t47 85q2 13 2 25q0 39 -24 61q-32 30 -80 30h-154z" />
<glyph unicode="Q" horiz-adv-x="1632" d="M92 741q49 297 281.5 511t572.5 214q176 0 315.5 -66.5t219.5 -175t113 -244.5q19 -81 19 -165q0 -57 -9 -115q-39 -260 -215 -454l102 -133l-293 -226l-111 144q-152 -63 -331 -64q-233 0 -399.5 116t-230.5 291q-44 118 -44 244q0 61 10 123zM498 716q-7 -36 -7 -70 q0 -103 62 -178q82 -99 233 -99q27 0 39 2l-155 200l295 224l176 -228q41 66 57 150q7 37 7 71q0 104 -62 178q-82 99 -233.5 99t-268.5 -99.5t-143 -249.5z" />
<glyph unicode="R" horiz-adv-x="1280" d="M12 2l254 1434h574q223 0 358 -149q104 -114 104 -274q0 -49 -10 -102q-45 -262 -286 -385l184 -524h-410l-147 451h-131l-80 -451h-410zM561 793h168h6q55 1 95 33q42 34 52 98q3 17 3 31q1 42 -21 68q-30 36 -92 36h-164z" />
<glyph unicode="S" horiz-adv-x="1210" d="M-23 328l355 182q66 -164 250 -164q145 0 159 76q4 25 -8 43t-43 32.5t-57.5 24.5t-74.5 24.5t-75 22.5q-329 115 -329 383q0 42 8 88q35 193 188.5 309.5t374.5 116.5q184 0 315 -86t199 -247l-346 -185q-53 139 -195 139q-106 0 -123 -73q-1 -7 -1 -13q0 -36 38 -61 q45 -29 185 -76q88 -29 146 -58.5t118.5 -82.5t82.5 -137q12 -46 11 -100q0 -45 -8 -97q-37 -209 -193.5 -315.5t-406.5 -106.5q-233 0 -375.5 95.5t-194.5 265.5z" />
<glyph unicode="T" horiz-adv-x="1126" d="M113 1036l69 398h1086l-70 -398h-338l-182 -1036h-410l183 1036h-338z" />
<glyph unicode="U" horiz-adv-x="1331" d="M76 479l168 955h409l-159 -910q-4 -22 -3 -40q0 -119 146 -119h2q176 0 203 159l159 910h410l-168 -955q-43 -242 -220 -377t-429 -135q-266 -1 -412 145q-115 115 -114 277q0 43 8 90z" />
<glyph unicode="V" horiz-adv-x="1310" d="M141 1434h424l68 -953l403 953h457l-698 -1434h-459z" />
<glyph unicode="W" horiz-adv-x="2068" d="M162 1434h420l63 -789l371 789h323l95 -789l344 789h452l-657 -1434h-404l-90 766l-360 -766h-404z" />
<glyph unicode="X" horiz-adv-x="1320" d="M-90 0l563 735l-301 699h442l142 -328l250 328h467l-549 -719l307 -715h-443l-147 344l-264 -344h-467z" />
<glyph unicode="Y" horiz-adv-x="1339" d="M162 1434h430l139 -435l291 435h479l-608 -813l-109 -621h-409l108 618z" />
<glyph unicode="Z" horiz-adv-x="1116" d="M-29 0l56 315l577 721h-440l69 398h984l-56 -316l-575 -721h469l-70 -397h-1014z" />
<glyph unicode="[" horiz-adv-x="696" d="M-45 -205l326 1843h573l-63 -360h-195l-199 -1122h195l-64 -361h-573z" />
<glyph unicode="\" horiz-adv-x="1064" d="M240 1638h159l498 -1843h-160z" />
<glyph unicode="]" horiz-adv-x="696" d="M-86 -205l63 361h195l199 1122h-195l64 360h573l-326 -1843h-573z" />
<glyph unicode="^" horiz-adv-x="1187" d="M70 676l555 758h262l289 -758h-398l-90 301l-196 -301h-422z" />
<glyph unicode="_" horiz-adv-x="1044" d="M-119 -391l64 356h962l-63 -356h-963z" />
<glyph unicode="`" horiz-adv-x="675" d="M203 1434l192 -308h348l-118 308h-422z" />
<glyph unicode="a" horiz-adv-x="1241" d="M39 516q31 223 175 380t357 157q197 0 279 -144l20 115h379l-180 -1024h-379l17 90q-119 -119 -287 -119q-204 0 -308 160q-80 123 -80 285q0 48 7 100zM416 512q-4 -22 -4 -43q0 -55 28 -95q38 -54 125 -55q84 0 140.5 51.5t72.5 135.5l2 6q4 22 4 43q0 55 -28 95 q-38 54 -122.5 54.5t-144 -53t-73.5 -139.5z" />
<glyph unicode="b" horiz-adv-x="1241" d="M-8 0l252 1434h379l-86 -490q108 109 274 109q201 0 315 -165q84 -121 85 -279q0 -56 -11 -117q-41 -233 -185.5 -377t-342.5 -144q-197 0 -281 144l-20 -115h-379zM461 512q-5 -25 -5 -47q0 -55 30 -93q40 -52 122 -53q84 0 143.5 52.5t73.5 140.5q5 25 5 47 q0 55 -30 93q-40 52 -122 53q-84 0 -143.5 -52.5t-73.5 -140.5z" />
<glyph unicode="c" horiz-adv-x="1083" d="M41 532q39 229 211 375t399 146q162 0 273.5 -75t171.5 -196l-344 -180q-35 86 -136 86q-76 0 -131 -49t-69 -127q-4 -20 -4 -38q0 -51 30 -88q40 -50 111 -50q104 0 164 90l297 -188q-78 -131 -208 -199t-284 -68q-250 0 -385 163q-105 126 -105 296q0 49 9 102z" />
<glyph unicode="d" horiz-adv-x="1241" d="M39 516q31 223 175 380t357 157q197 0 279 -144l92 525h379l-252 -1434h-379l17 90q-119 -119 -287 -119q-204 0 -308 160q-80 123 -80 285q0 48 7 100zM416 512q-4 -22 -4 -43q0 -55 28 -95q38 -54 125 -55q82 0 139.5 49.5t73.5 131.5l4 20q2 17 2 33q0 61 -30 101 q-38 52 -121.5 51.5t-143 -54t-73.5 -139.5z" />
<glyph unicode="e" horiz-adv-x="1132" d="M41 532q37 225 207 373t399 148q238 0 366 -158q98 -121 98 -279q0 -48 -9 -100q-10 -66 -39 -133h-668q33 -102 183 -102q117 0 188 65l219 -221q-178 -154 -442 -154q-275 0 -409 162q-102 124 -103 292q0 51 10 107zM432 627h338q-8 123 -137 123q-138 0 -201 -123z " />
<glyph unicode="f" horiz-adv-x="675" d="M47 664l64 360h118q41 229 197 343q138 101 359 101q29 0 59 -2l-60 -340q-13 1 -25 1q-57 0 -95 -23q-46 -29 -56 -80h158l-64 -360h-157l-117 -664h-379l117 664h-119z" />
<glyph unicode="g" horiz-adv-x="1255" d="M-12 -193l329 179q57 -100 191 -101q76 0 132 36t71 110l14 84q-109 -102 -272 -103q-150 0 -248.5 77t-132.5 193q-23 77 -23 162q0 44 6 91q29 209 174.5 363.5t366.5 154.5q182 0 268 -146l21 117h379l-174 -993q-43 -240 -215.5 -356.5t-405.5 -116.5 q-174 0 -302 65.5t-179 183.5zM434 532q-3 -20 -3 -39q0 -55 31 -93q42 -52 124 -52q80 0 137 48t74 126l4 17q2 16 2 30q0 60 -33 99q-41 49 -121 49q-82 0 -141 -51.5t-74 -133.5z" />
<glyph unicode="h" horiz-adv-x="1177" d="M-8 0l252 1434h379l-91 -510q117 129 293 129q164 0 249 -120q58 -82 58 -212q0 -60 -12 -129l-104 -592h-379l96 551q4 23 4 41q0 96 -106 96q-133 0 -166 -149l-94 -539h-379z" />
<glyph unicode="i" horiz-adv-x="542" d="M-8 0l180 1024h379l-180 -1024h-379zM203 1311q12 82 81.5 145.5t161.5 63.5q88 0 140 -62q40 -49 40 -112q0 -17 -3 -35q-14 -86 -84 -147.5t-158 -61.5q-89 0 -141 62q-41 49 -40 111q0 17 3 36z" />
<glyph unicode="j" horiz-adv-x="573" d="M-188 -442l59 340q13 -1 26 -1q108 0 126 103l180 1024h379l-181 -1024q-43 -254 -184 -356q-123 -88 -339 -88q-32 0 -66 2zM233 1311q12 82 82 145.5t162 63.5q88 0 139 -62q40 -49 40 -110q0 -18 -3 -37q-14 -86 -83.5 -147.5t-157.5 -61.5t-140 62q-42 50 -42 113 q0 16 3 34z" />
<glyph unicode="k" horiz-adv-x="1126" d="M-8 0l252 1434h379l-138 -785l275 375h434l-403 -516l245 -508h-403l-187 426l-75 -426h-379z" />
<glyph unicode="l" horiz-adv-x="544" d="M-6 0l117 664l145 831h379l-148 -838l-114 -657h-379z" />
<glyph unicode="m" horiz-adv-x="1740" d="M-8 0l180 1024h379l-16 -94q123 123 284 123q172 0 240 -135q131 135 311 135q170 0 261 -113q66 -82 66 -213q0 -49 -9 -104l-109 -623h-379l100 571q3 19 3 35q0 82 -86 82q-113 0 -146 -131l-96 -557h-379l100 571q3 19 3 35q0 82 -87 82q-115 0 -145 -139l-96 -549 h-379z" />
<glyph unicode="n" horiz-adv-x="1177" d="M-8 0l180 1024h379l-19 -100q119 129 293 129q164 0 249 -120q58 -82 58 -212q0 -60 -12 -129l-104 -592h-379l96 551q4 23 4 41q0 96 -106 96q-131 0 -164 -147l-96 -541h-379z" />
<glyph unicode="o" horiz-adv-x="1175" d="M41 537q37 213 203 364.5t420 151.5q246 0 378 -173q102 -134 101 -295q0 -48 -8 -98q-39 -213 -204 -364.5t-417 -151.5t-382 172q-100 132 -100 294q0 49 9 100zM408 512q-4 -21 -4 -40q0 -53 29 -90q40 -50 116 -50t132 50q57 50 71 130q4 22 3 41q0 52 -28 89 q-39 50 -114.5 50t-133 -50t-71.5 -130z" />
<glyph unicode="p" horiz-adv-x="1241" d="M-80 -410l252 1434h379l-14 -80q108 109 274 109q201 0 315 -165q85 -121 85 -279q0 -56 -11 -117q-41 -233 -185.5 -377t-342.5 -144q-197 0 -281 144l-92 -525h-379zM459 504q-3 -20 -3 -37q0 -59 30 -97q40 -51 122 -51q84 0 143.5 52.5t73.5 140.5q5 25 5 47 q0 56 -30 93q-40 53 -122 53t-140.5 -50.5t-74.5 -134.5z" />
<glyph unicode="q" horiz-adv-x="1241" d="M39 516q31 223 175 380t357 157q197 0 279 -144l20 115h379l-252 -1434h-379l89 500q-119 -119 -287 -119q-205 0 -308 160q-80 123 -80 285q0 48 7 100zM416 512q-4 -22 -4 -43q0 -56 28 -95q39 -55 125 -55q84 0 142.5 53.5t72.5 139.5q4 22 4 43q0 56 -28 95 q-39 55 -123 55t-143.5 -53.5t-73.5 -139.5z" />
<glyph unicode="r" horiz-adv-x="798" d="M-8 0l180 1024h379l-35 -199q45 104 136 161.5t210 57.5l-71 -409q-25 3 -49 3q-92 0 -174 -48q-102 -62 -130 -209l2 16l-69 -397h-379z" />
<glyph unicode="s" horiz-adv-x="980" d="M-31 223l322 154q45 -117 160 -117q74 0 81 43q1 3 1 6q0 25 -44 43q-49 20 -120.5 42t-140 55.5t-108.5 108.5q-28 52 -28 119q0 30 6 64q18 106 93 180t166.5 103t193.5 29q147 0 258 -59.5t162 -178.5l-303 -141q-37 94 -121 100h-9q-53 0 -63 -45q-6 -31 28 -51.5 t89 -31.5t118.5 -35.5t115.5 -58.5q50 -34 76 -106q15 -41 15 -91q0 -38 -8 -81q-29 -160 -161 -231.5t-308 -71.5q-180 0 -296.5 57.5t-174.5 194.5z" />
<glyph unicode="t" horiz-adv-x="819" d="M47 664l64 360h143l31 174l397 113l-49 -287h215l-64 -360h-215l-39 -222q-3 -17 -3 -31q0 -48 32 -61q30 -12 105 -12q28 0 63 2l-59 -340q-95 -15 -173 -15q-173 1 -263 73q-96 78 -97 240q0 57 12 124l43 242h-143z" />
<glyph unicode="u" horiz-adv-x="1177" d="M57 432l105 592h379l-97 -551q-4 -22 -4 -41q0 -96 107 -96q131 0 164 147l96 541h379l-180 -1024h-379l18 100q-119 -129 -293 -129q-164 0 -249 120q-58 82 -58 212q0 59 12 129z" />
<glyph unicode="v" horiz-adv-x="1146" d="M90 1024h383l80 -528l268 528h416l-559 -1024h-389z" />
<glyph unicode="w" horiz-adv-x="1640" d="M111 1024h378l31 -567l236 567h297l51 -543l215 543h410l-478 -1024h-385l-43 479l-200 -479h-396z" />
<glyph unicode="x" d="M-90 0l473 535l-277 489h394l123 -217l190 217h428l-453 -512l289 -512h-393l-135 240l-211 -240h-428z" />
<glyph unicode="y" d="M0 -410l63 359q106 0 162 19.5t92 72.5l-227 983h414l86 -545l221 545h446l-514 -993q-229 -446 -650 -446q-46 0 -93 5z" />
<glyph unicode="z" horiz-adv-x="931" d="M-49 0l47 266l395 410h-303l62 348h819l-47 -266l-396 -410h344l-61 -348h-860z" />
<glyph unicode="{" horiz-adv-x="749" d="M68 541l61 358q80 -6 120 13.5t52 88.5l45 256q78 432 563 402l-59 -340q-111 23 -125 -62l-45 -256q-20 -119 -72.5 -182t-146.5 -98q158 -72 121 -283l-45 -256q-6 -37 17.5 -53t82.5 -8l-59 -340q-244 -14 -349.5 97.5t-70.5 303.5l45 256q20 115 -135 103z" />
<glyph unicode="|" horiz-adv-x="583" d="M-59 -410l331 1885h379l-332 -1885h-378z" />
<glyph unicode="}" horiz-adv-x="749" d="M-88 -221l59 340q111 -23 125 61l45 256q20 119 72.5 182.5t146.5 98.5q-158 72 -120 282l45 256q6 37 -17.5 53.5t-83.5 8.5l60 340q244 14 349 -97.5t71 -304.5l-46 -256q-20 -115 136 -102l-62 -358q-80 6 -120 -13.5t-52 -89.5l-45 -256q-78 -432 -563 -401z" />
<glyph unicode="~" horiz-adv-x="1253" d="M76 594q78 242 251 335t353 -3q127 -66 190.5 -57.5t106.5 96.5l272 -134q-80 -242 -253 -335t-351 4q-129 66 -192.5 57.5t-104.5 -96.5z" />
<glyph unicode="&#xa2;" horiz-adv-x="1081" d="M76 737q39 229 211 374.5t399 145.5q66 0 121 -12l94 189h137l-114 -232q135 -70 206 -215l-344 -180q-14 31 -34 49l-156 -315q98 4 156 90l297 -189q-78 -131 -208 -198.5t-284 -67.5q-76 0 -135 14l-94 -190h-138l115 233q-133 68 -194.5 203t-34.5 301zM451 717 q-16 -82 30 -131l152 307q-70 -8 -120 -56t-62 -120z" />
<glyph unicode="&#xa3;" d="M-49 0l69 397h117l31 166h-96l51 287h94l29 158q29 160 112.5 266t188 149t229.5 43q344 0 484 -336l-371 -182q-45 133 -135 133q-84 0 -103 -96l-24 -135h377l-52 -287h-374l-31 -166h600l-70 -397h-1126z" />
<glyph unicode="&#xa5;" horiz-adv-x="1339" d="M117 276l35 205h307l16 86h-307l35 205h221l-262 662h430l139 -435l291 435h479l-493 -662h219l-35 -205h-307l-17 -86h308l-35 -205h-307l-50 -276h-409l49 276h-307z" />
<glyph unicode="&#xa8;" horiz-adv-x="800" d="M172 1259.5q12 71.5 72.5 123t132.5 51.5t113.5 -51.5t29.5 -123t-72.5 -123t-132 -51.5t-113.5 51.5t-30 123zM581.5 1259.5q12.5 71.5 73 123t132 51.5t113.5 -51.5t30 -123t-72.5 -123t-132.5 -51.5t-114 51.5t-29.5 123z" />
<glyph unicode="&#xa9;" horiz-adv-x="1585" d="M90 737q53 309 288.5 515t541.5 206q309 0 504.5 -228.5t142.5 -533.5q-55 -309 -289 -515t-539 -206q-201 0 -364.5 104.5t-242.5 281t-42 376.5zM192.5 737.5q-47.5 -268.5 115.5 -468t427 -199.5t473 179t256 447.5t-115.5 468t-427 199.5t-473 -179t-256 -447.5z M430 737q27 158 144.5 270.5t302.5 112.5q102 0 187 -56t136 -153l-274 -141q-23 49 -80 49q-47 0 -81 -30.5t-40 -71.5q-8 -41 15.5 -72t68.5 -31q57 0 98 50l244 -154q-66 -94 -164.5 -145.5t-202.5 -51.5q-197 0 -290 127t-64 297z" />
<glyph unicode="&#xab;" horiz-adv-x="1181" d="M123 633l297 409h321l-307 -421l160 -398h-307zM545 623l305 419h324l-318 -436l156 -383h-305z" />
<glyph unicode="&#xad;" horiz-adv-x="1024" d="M90 444l64 357h819l-64 -357h-819z" />
<glyph unicode="&#xae;" horiz-adv-x="1585" d="M90 737q53 309 289 515t541 206q309 0 504.5 -228.5t142.5 -533.5q-55 -309 -289 -515t-539 -206q-201 0 -364.5 104.5t-242.5 281t-42 376.5zM192.5 737.5q-47.5 -268.5 115.5 -468t427 -199.5t473 179t256 447.5t-115.5 468t-427 199.5t-473 -179t-256 -447.5zM446 338 l134 758h397q115 0 186.5 -88t50.5 -205q-27 -152 -139 -221l96 -244h-299l-65 188h-37l-33 -188h-291zM809 752h45q57 0 68 49q7 49 -50 49h-45z" />
<glyph unicode="&#xb4;" horiz-adv-x="675" d="M150 1126h366l281 308h-441z" />
<glyph unicode="&#xb8;" horiz-adv-x="583" d="M-131 -463l41 234q190 -14 201 28q6 37 -103 41l29 160h307l-16 -94q98 -59 75 -178q-20 -115 -147 -162t-387 -29z" />
<glyph unicode="&#xbb;" horiz-adv-x="1183" d="M51 223l318 436l-156 383h305l162 -399l-305 -420h-324zM483 223l308 422l-160 397h307l164 -409l-297 -410h-322z" />
<glyph unicode="&#x2c6;" horiz-adv-x="901" d="M145 1106l275 328h385l160 -328h-312l-73 117l-111 -117h-324z" />
<glyph unicode="&#x2da;" horiz-adv-x="692" d="M194.5 1378q22.5 125 119 203t233.5 78q133 0 205.5 -84t50 -209t-117.5 -203t-236 -78q-133 0 -205 84t-49.5 209zM434 1372q-4 -27 9 -44t44 -17q66 0 76 61.5t-55 61.5q-63 0 -74 -62z" />
<glyph unicode="&#x2dc;" horiz-adv-x="817" d="M147 1112q14 123 59.5 203t106 108.5t124 28.5t122.5 -27q8 -4 27.5 -14t28 -13t22.5 -6t22.5 3t16.5 20.5t12 38.5h254q-12 -100 -45 -173t-75 -108.5t-94 -50t-101 -8.5t-99 27q-8 4 -27.5 14t-26.5 13t-22.5 6.5t-22.5 -3t-15 -20.5t-13 -39h-254z" />
<glyph unicode="&#x401;" horiz-adv-x="1105" d="M12 0l252 1434h932l-66 -373h-522l-26 -156h471l-66 -368h-471l-29 -160h533l-66 -377h-942zM393.5 1669q12.5 72 72.5 123t132 51t114 -51t29.5 -123t-73 -123t-132 -51t-113.5 51t-29.5 123zM803 1669q12 72 72.5 123t132 51t113.5 -51t30 -123t-72.5 -123t-132.5 -51 t-113.5 51t-29.5 123z" />
<glyph unicode="&#x402;" horiz-adv-x="1423" d="M113 1036l69 398h1086l-70 -398h-358l-31 -178q106 31 223 31q197 0 284 -102.5t52 -297.5l-14 -79q-47 -262 -172 -359.5t-398 -83.5l62 350q51 -6 74.5 16.5t33.5 76.5l7 28q8 47 -15.5 66.5t-73 19.5t-127.5 -22l-88 -502h-409l182 1036h-317z" />
<glyph unicode="&#x403;" horiz-adv-x="983" d="M12 0l252 1434h881l-70 -398h-471l-182 -1036h-410zM500 1534l207 307h440l-281 -307h-366z" />
<glyph unicode="&#x404;" horiz-adv-x="1476" d="M90 737q51 319 289.5 524t554.5 205q215 0 369.5 -95t234.5 -257l-375 -199q-63 160 -266 160q-102 0 -190.5 -46t-145.5 -128h432l-65 -369h-428q29 -80 97.5 -127t170.5 -47q176 0 293 170l340 -215q-111 -164 -284 -255t-380 -91q-334 0 -517 219.5t-130 550.5z" />
<glyph unicode="&#x405;" horiz-adv-x="1210" d="M-23 328l355 182q66 -164 250 -164q145 0 159 76q4 25 -8 43t-43 32.5t-57.5 24.5t-74.5 24.5t-75 22.5q-381 133 -321 471q35 193 188.5 309.5t374.5 116.5q184 0 315 -86t199 -247l-346 -185q-53 139 -195 139q-106 0 -123 -73q-8 -45 37 -74t185 -76q88 -29 146 -58.5 t118.5 -82.5t82 -137t3.5 -197q-37 -209 -193.5 -315.5t-406.5 -106.5q-233 0 -375.5 95.5t-194.5 265.5z" />
<glyph unicode="&#x406;" horiz-adv-x="614" d="M12 0l252 1434h410l-252 -1434h-410z" />
<glyph unicode="&#x407;" horiz-adv-x="614" d="M12 0l252 1434h410l-252 -1434h-410zM131 1669q12 72 72.5 123t132.5 51t114 -51t29.5 -123t-73 -123t-132 -51t-113.5 51t-30 123zM540.5 1669q12.5 72 73 123t132 51t113.5 -51t30 -123t-72.5 -123t-132.5 -51t-114 51t-29.5 123z" />
<glyph unicode="&#x408;" horiz-adv-x="1163" d="M-2 272l367 195q23 -57 56.5 -79.5t86.5 -22.5q137 0 158 116l168 953h409l-170 -963q-90 -504 -590 -504q-365 0 -485 305z" />
<glyph unicode="&#x409;" horiz-adv-x="1894" d="M-90 -4l65 381q109 -6 160 35t74 170l149 852h1033l-78 -449h123q199 0 334 -143.5t96 -370.5q-39 -229 -207 -351t-397 -122h-410v2h-123l182 1036h-213l-88 -504q-25 -145 -78 -250.5t-120.5 -163t-151.5 -91t-171 -34.5t-179 3zM1208 395h123q111 0 129.5 96.5 t-94.5 96.5h-125z" />
<glyph unicode="&#x40a;" horiz-adv-x="1914" d="M12 0l252 1434h410l-78 -447h328l77 447h410l-78 -447h125q199 0 334 -143.5t96 -370.5q-39 -229 -207 -351t-397 -122h-534l104 590h-328l-104 -590h-410zM1229 397h125q110 0 128.5 96.5t-93.5 96.5h-125z" />
<glyph unicode="&#x40b;" horiz-adv-x="1433" d="M113 1036l69 398h1086l-70 -398h-358l-29 -159q129 32 233 32q362 0 326 -399l-88 -510h-399l80 459q8 47 -15.5 66.5t-73.5 19.5q-51 0 -124 -19l-93 -526h-409l182 1036h-317z" />
<glyph unicode="&#x40c;" horiz-adv-x="1302" d="M12 0l252 1434h410l-96 -553l417 553h475l-567 -719l330 -715h-428l-275 616l-108 -616h-410zM643 1534l207 307h440l-280 -307h-367z" />
<glyph unicode="&#x40e;" horiz-adv-x="1331" d="M143 0l68 381q164 2 283 98l-312 955h410l166 -547l284 547h451l-575 -992q-139 -238 -321.5 -338t-453.5 -104zM498 1532l53 307h717l-54 -307h-716z" />
<glyph unicode="&#x40f;" horiz-adv-x="1331" d="M12 0l252 1434h410l-182 -1037h307l182 1037h410l-252 -1434h-359l-49 -274h-409l49 274h-359z" />
<glyph unicode="&#x410;" horiz-adv-x="1351" d="M-111 0l709 1434h479l205 -1434h-428l-16 184h-414l-82 -184h-453zM569 512h238l-41 440z" />
<glyph unicode="&#x411;" horiz-adv-x="1228" d="M12 0l252 1434h983l-69 -398h-574l-22 -127h225q205 0 314.5 -132t74.5 -337q-37 -209 -177 -324.5t-372 -115.5h-635zM487 369h195q41 0 70.5 24.5t38 67.5t-13 67.5t-62.5 24.5h-197z" />
<glyph unicode="&#x412;" horiz-adv-x="1239" d="M12 0l252 1434h549q233 0 354 -120t86 -304q-37 -188 -194 -283q162 -115 129 -326q-27 -180 -177.5 -290.5t-392.5 -110.5h-606zM483 352h172q51 0 87 28t46 75q16 88 -69 100l-199 2zM578 889l157 2q90 12 105 94q8 51 -19.5 73.5t-72.5 22.5h-136z" />
<glyph unicode="&#x413;" horiz-adv-x="983" d="M12 0l252 1434h881l-70 -398h-471l-182 -1036h-410z" />
<glyph unicode="&#x414;" horiz-adv-x="1464" d="M-127 -274l117 671h151q115 158 164 434l105 603h1042l-182 -1037h153l-118 -671h-410l49 274h-612l-49 -274h-410zM573 397h287l117 660h-223l-41 -230q-50 -272 -140 -430z" />
<glyph unicode="&#x415;" horiz-adv-x="1105" d="M12 0l252 1434h932l-66 -373h-522l-26 -156h471l-66 -368h-471l-29 -160h533l-66 -377h-942z" />
<glyph unicode="&#x416;" horiz-adv-x="1908" d="M-90 0l530 745l-252 689h428l189 -609l106 609h410l-109 -621l400 621h459l-521 -738l250 -696h-428l-190 637l-113 -637h-410l107 608l-397 -608h-459z" />
<glyph unicode="&#x417;" horiz-adv-x="1155" d="M-25 297l359 190q39 -131 203 -131q145 0 165 99q16 84 -86 92l-217 2l62 348l170 2q109 6 123 92q8 47 -22 70.5t-87 23.5q-129 0 -194 -133l-326 213q90 145 241.5 223t335.5 78q229 0 365.5 -130.5t101.5 -325.5q-35 -201 -204 -291q176 -123 137 -338 q-35 -195 -190.5 -304.5t-419.5 -109.5q-403 0 -517 330z" />
<glyph unicode="&#x418;" horiz-adv-x="1392" d="M12 0l252 1434h410l-111 -635l561 635h328l-252 -1434h-409l110 635l-561 -635h-328z" />
<glyph unicode="&#x419;" horiz-adv-x="1392" d="M12 0l252 1434h410l-111 -635l561 635h328l-252 -1434h-409l110 635l-561 -635h-328zM487 1534l54 307h716l-53 -307h-717z" />
<glyph unicode="&#x41a;" horiz-adv-x="1302" d="M12 0l252 1434h410l-96 -553l417 553h475l-567 -719l330 -715h-428l-275 616l-108 -616h-410z" />
<glyph unicode="&#x41b;" horiz-adv-x="1351" d="M-90 -4l65 381q109 -6 160 35t74 170l149 852h1053l-252 -1434h-409l182 1036h-234l-88 -504q-25 -143 -75 -247.5t-116.5 -161.5t-149.5 -92t-172 -38t-187 3z" />
<glyph unicode="&#x41c;" horiz-adv-x="1699" d="M12 0l252 1434h410l215 -588l440 588h430l-252 -1434h-409l121 690l-402 -528h-37l-233 555l-125 -717h-410z" />
<glyph unicode="&#x41d;" horiz-adv-x="1372" d="M12 0l252 1434h410l-90 -508h348l90 508h410l-252 -1434h-410l92 528h-348l-92 -528h-410z" />
<glyph unicode="&#x41e;" horiz-adv-x="1622" d="M92 741q49 297 281.5 511t572.5 214q176 0 315.5 -66.5t219.5 -175t112.5 -244.5t10.5 -280q-47 -299 -275.5 -516t-572.5 -217q-233 0 -399.5 116t-231 291t-33.5 367zM497.5 716.5q-26.5 -149.5 55.5 -248.5t233.5 -99t268 99t143.5 248.5t-55 249t-233.5 99.5 t-268.5 -99.5t-143.5 -249z" />
<glyph unicode="&#x41f;" horiz-adv-x="1331" d="M12 0l252 1434h1127l-252 -1434h-410l182 1036h-307l-182 -1036h-410z" />
<glyph unicode="&#x420;" horiz-adv-x="1218" d="M12 0l252 1434h563q209 0 341 -146.5t98 -388.5q-33 -225 -194 -359t-415 -134h-163l-72 -406h-410zM563 803h164q47 0 86 32t47 85q10 57 -22.5 86.5t-79.5 29.5h-154z" />
<glyph unicode="&#x421;" horiz-adv-x="1476" d="M90 737q51 319 289.5 524t554.5 205q422 0 604 -352l-375 -199q-84 150 -266 150q-147 0 -260 -98.5t-139 -249.5q-25 -145 49 -246.5t221 -101.5q170 0 293 159l340 -215q-111 -164 -284 -255t-380 -91q-334 0 -517 219.5t-130 550.5z" />
<glyph unicode="&#x422;" horiz-adv-x="1126" d="M113 1036l69 398h1086l-70 -398h-338l-182 -1036h-410l183 1036h-338z" />
<glyph unicode="&#x423;" horiz-adv-x="1331" d="M143 0l68 381q164 2 283 98l-312 955h410l166 -547l284 547h451l-575 -992q-139 -238 -321.5 -338t-453.5 -104z" />
<glyph unicode="&#x424;" horiz-adv-x="1728" d="M80 737q41 242 227.5 388.5t501.5 179.5l31 170h389l-31 -175q283 -41 423 -203.5t99 -400.5q-43 -242 -228 -388t-501 -179l-30 -170h-390l31 174q-283 41 -424 204t-98 400zM487 717q-16 -90 26 -140.5t155 -70.5l77 434q-119 -20 -180.5 -74.5t-77.5 -148.5zM1057 506 q121 20 181.5 70.5t76.5 140.5q16 94 -26 148.5t-154 74.5z" />
<glyph unicode="&#x425;" horiz-adv-x="1320" d="M-90 0l563 735l-301 699h442l142 -328l250 328h467l-549 -719l307 -715h-443l-147 344l-264 -344h-467z" />
<glyph unicode="&#x426;" horiz-adv-x="1464" d="M12 0l252 1434h430l-182 -1037h307l182 1037h431l-183 -1037h174l-118 -671h-410l49 274h-932z" />
<glyph unicode="&#x427;" horiz-adv-x="1351" d="M158 942l86 492h409l-84 -484q-12 -72 30 -104.5t136 -34.5q74 0 160 16l106 607h410l-252 -1434h-409l75 430q-90 -16 -188 -16q-281 0 -401.5 141t-77.5 387z" />
<glyph unicode="&#x428;" horiz-adv-x="1966" d="M12 0l252 1434h410l-182 -1037h266l182 1037h410l-183 -1037h267l182 1037h409l-251 -1434h-1762z" />
<glyph unicode="&#x429;" horiz-adv-x="2058" d="M12 0l252 1434h410l-182 -1037h266l182 1037h410l-183 -1037h267l182 1037h409l-182 -1037h174l-119 -671h-409l49 274h-1526z" />
<glyph unicode="&#x42a;" horiz-adv-x="1443" d="M94 1036l68 398h737l-72 -406h166q207 0 337 -151.5t89 -383t-200.5 -362.5t-407.5 -131h-573l184 1036h-328zM717 397h164q47 0 86 32t47 85q10 53 -17.5 85t-74.5 32h-164z" />
<glyph unicode="&#x42b;" horiz-adv-x="1822" d="M12 0l252 1434h410l-72 -406h166q207 0 337 -151.5t89 -383t-200.5 -362.5t-407.5 -131h-574zM492 397h163q47 0 86 32t47 85q10 53 -17.5 85t-74.5 32h-164zM1221 -2l252 1434h409l-252 -1434h-409z" />
<glyph unicode="&#x42c;" horiz-adv-x="1218" d="M12 0l252 1434h410l-72 -406h166q207 0 337 -151.5t89 -383t-200.5 -362.5t-407.5 -131h-574zM492 397h163q47 0 86 32t47 85q10 53 -17.5 85t-74.5 32h-164z" />
<glyph unicode="&#x42d;" horiz-adv-x="1476" d="M14 319l369 195q80 -156 276 -156q211 0 332 174h-434l66 369h432q-25 82 -93.5 128t-169 46t-183.5 -43t-134 -117l-325 207q109 160 283.5 252t375.5 92q322 0 510 -219t139 -551q-47 -309 -274.5 -519t-560.5 -210q-217 0 -373 93.5t-236 258.5z" />
<glyph unicode="&#x42e;" horiz-adv-x="2205" d="M12 0l252 1434h410l-88 -498h168q100 242 313 386t475 144q182 0 320.5 -66.5t214 -177t104.5 -245.5t6 -281q-23 -141 -91 -270t-176 -232.5t-263.5 -165t-337.5 -61.5q-262 0 -437 161t-196 411h-170l-94 -539h-410zM1081.5 716.5q-26.5 -149.5 55.5 -248.5t233.5 -99 t268 99t143 248.5t-55 249t-233.5 99.5t-268.5 -99.5t-143 -249z" />
<glyph unicode="&#x42f;" horiz-adv-x="1290" d="M-70 2l402 520q-117 70 -163 196t-15 263q41 193 204.5 324t419.5 131h574l-254 -1434h-410l80 451h-35l-336 -451h-467zM553 926q-10 -61 23.5 -100.5t95.5 -37.5h155l47 271h-155q-63 0 -108.5 -36t-57.5 -97z" />
<glyph unicode="&#x430;" horiz-adv-x="1241" d="M39 516q31 223 175 380t357 157q197 0 279 -144l20 115h379l-180 -1024h-379l17 90q-119 -119 -287 -119q-205 0 -308.5 160t-72.5 385zM416 512q-14 -84 24.5 -138.5t124.5 -54.5q84 0 140.5 51.5t72.5 135.5l2 6q14 84 -24.5 138.5t-122.5 54.5t-143.5 -53.5 t-73.5 -139.5z" />
<glyph unicode="&#x431;" horiz-adv-x="1177" d="M55 565q45 258 156 411.5t311 244.5q29 12 79 34.5t69.5 31.5t57.5 26.5t53.5 26t42 22.5t37.5 22.5t30.5 21.5t30 24.5t21.5 25.5t22 31l280 -174q-53 -113 -145 -179.5t-262 -132.5q-166 -63 -227.5 -96t-100.5 -88q113 80 262 80q170 0 288 -134t83 -337 q-37 -209 -194.5 -334t-403.5 -125q-262 0 -398.5 166t-91.5 432zM428 446q-12 -72 28.5 -116.5t114.5 -44.5q72 0 127.5 44t65.5 111q12 70 -29 115t-112 45q-68 0 -125.5 -42t-69.5 -112z" />
<glyph unicode="&#x432;" horiz-adv-x="1073" d="M-8 0l180 1024h563q168 0 252.5 -88t59.5 -225q-23 -137 -154 -199q137 -78 108 -229q-49 -283 -415 -283h-594zM408 264h141q70 0 82 66q10 61 -60 61h-141zM471 633h125q70 0 80 61q12 66 -58 66h-124z" />
<glyph unicode="&#x433;" horiz-adv-x="839" d="M-8 0l117 664l63 360h758l-64 -360h-379l-116 -664h-379z" />
<glyph unicode="&#x434;" horiz-adv-x="1228" d="M-139 -274l112 634h113q98 123 135 342l58 322h886l-116 -664h133l-113 -634h-358l49 274h-492l-49 -274h-358zM481 360h199l57 328h-149q-41 -209 -107 -328z" />
<glyph unicode="&#x435;" horiz-adv-x="1132" d="M41 532q37 225 207 373t399 148q238 0 366 -158t89 -379q-10 -66 -39 -133h-668q33 -102 183 -102q117 0 188 65l219 -221q-178 -154 -442 -154q-276 0 -409.5 162t-92.5 399zM432 627h338q-8 123 -137 123q-138 0 -201 -123z" />
<glyph unicode="&#x436;" horiz-adv-x="1615" d="M-90 0l385 524l-172 500h393l123 -393l70 393h378l-71 -410l266 410h424l-383 -539l188 -485h-395l-137 406l-72 -406h-379l68 381l-272 -381h-414z" />
<glyph unicode="&#x437;" horiz-adv-x="942" d="M-43 215l301 156q23 -53 57.5 -77t96.5 -24q80 0 88 56q4 25 -14.5 40t-51.5 15h-98l45 258h94q63 0 72 51q4 27 -15.5 43.5t-52.5 16.5q-94 0 -149 -97l-260 170q98 123 209.5 176.5t271.5 53.5q168 0 279 -99.5t88 -226.5q-29 -145 -162 -211q139 -82 110 -258 q-25 -137 -147.5 -214t-321.5 -77q-348 0 -440 248z" />
<glyph unicode="&#x438;" horiz-adv-x="1187" d="M-8 0l180 1024h369l-76 -424l426 424h305l-180 -1024h-369l74 424l-424 -424h-305z" />
<glyph unicode="&#x439;" horiz-adv-x="1187" d="M-8 0l180 1024h369l-76 -424l426 424h305l-180 -1024h-369l74 424l-424 -424h-305zM344 1124l53 308h717l-53 -308h-717z" />
<glyph unicode="&#x43a;" horiz-adv-x="1126" d="M-8 0l180 1024h379l-72 -401l297 401h420l-401 -512l241 -512h-420l-174 410l-71 -410h-379z" />
<glyph unicode="&#x43b;" horiz-adv-x="1191" d="M-70 0l62 348q74 -16 116 21t60 137l90 518h942l-180 -1024h-379l117 664h-185l-43 -240q-45 -262 -184 -360.5t-416 -63.5z" />
<glyph unicode="&#x43c;" horiz-adv-x="1347" d="M-8 0l180 1024h369l139 -350l276 350h400l-180 -1024h-369l80 449l-260 -316h-37l-150 320l-80 -453h-368z" />
<glyph unicode="&#x43d;" d="M-8 0l180 1024h379l-59 -332h245l60 332h379l-181 -1024h-379l60 332h-246l-59 -332h-379z" />
<glyph unicode="&#x43e;" horiz-adv-x="1175" d="M41 537q37 213 203 364.5t420 151.5q246 0 378 -173t93 -393q-39 -213 -204 -364.5t-417 -151.5t-382 172t-91 394zM407.5 512q-14.5 -80 25.5 -130t116 -50t132 50t70.5 130t-24.5 130t-114.5 50t-133 -50t-72 -130z" />
<glyph unicode="&#x43f;" d="M-8 0l180 1024h1004l-181 -1024h-379l117 664h-246l-116 -664h-379z" />
<glyph unicode="&#x440;" horiz-adv-x="1241" d="M-80 -410l252 1434h379l-14 -80q108 109 274 109q201 0 315.5 -165t73.5 -396q-41 -233 -185.5 -377t-342.5 -144q-197 0 -281 144l-92 -525h-379zM459 504q-12 -84 27.5 -134.5t121.5 -50.5q84 0 143.5 52.5t73.5 140.5q16 88 -24.5 140.5t-122.5 52.5t-140.5 -50.5 t-74.5 -134.5z" />
<glyph unicode="&#x441;" horiz-adv-x="1083" d="M41 532q39 229 211 375t399 146q162 0 273.5 -75t171.5 -196l-344 -180q-35 86 -136 86q-76 0 -131 -49t-69 -127q-14 -76 25.5 -126t111.5 -50q104 0 164 90l297 -188q-78 -131 -208 -199t-284 -68q-250 0 -385 163t-96 398z" />
<glyph unicode="&#x442;" horiz-adv-x="962" d="M37 664l63 360h942l-63 -360h-279l-116 -664h-381l116 664h-282z" />
<glyph unicode="&#x443;" d="M0 -410l63 359q106 0 162 19.5t92 72.5l-227 983h414l86 -545l221 545h446l-514 -993q-254 -494 -743 -441z" />
<glyph unicode="&#x444;" horiz-adv-x="1495" d="M39 528q37 207 190.5 343.5t425.5 170.5l70 392h369l-70 -396q252 -43 359.5 -191.5t72.5 -350.5q-37 -209 -191.5 -346.5t-426.5 -172.5l-68 -387h-369l70 392q-252 43 -359.5 191.5t-72.5 354.5zM414 512q-27 -135 118 -176l62 352q-153 -39 -180 -176zM901 336 q153 39 180 176q27 135 -118 176z" />
<glyph unicode="&#x445;" d="M-90 0l473 535l-277 489h394l123 -217l190 217h428l-453 -512l289 -512h-393l-135 240l-211 -240h-428z" />
<glyph unicode="&#x446;" horiz-adv-x="1259" d="M-8 0l180 1024h379l-117 -664h225l117 664h379l-117 -664h174l-112 -634h-359l50 274h-799z" />
<glyph unicode="&#x447;" horiz-adv-x="1105" d="M61.5 507q-16.5 73 1.5 144l68 373h379l-55 -307q-25 -125 114 -125q43 0 93 12l73 420h379l-180 -1024h-379l45 262q-82 -18 -168 -18q-115 0 -197.5 36.5t-119.5 95t-53.5 131.5z" />
<glyph unicode="&#x448;" horiz-adv-x="1699" d="M-8 0l180 1024h379l-117 -664h205l117 664h368l-116 -664h204l117 664h379l-180 -1024h-1536z" />
<glyph unicode="&#x449;" horiz-adv-x="1792" d="M-8 0l180 1024h379l-117 -664h195l116 664h369l-117 -664h195l117 664h379l-117 -664h174l-113 -634h-358l49 274h-1331z" />
<glyph unicode="&#x44a;" horiz-adv-x="1187" d="M29 664l61 360h604l-47 -266h162q168 0 265 -113t67 -287q-66 -358 -465 -358h-541l117 664h-223zM567 307h115q82 0 94 72t-67 72h-115z" />
<glyph unicode="&#x44b;" horiz-adv-x="1546" d="M-8 0l180 1024h379l-47 -266h162q168 0 265 -113t66 -287q-66 -358 -465 -358h-540zM424 307h115q82 0 94 72t-68 72h-114zM995 0l181 1024h378l-180 -1024h-379z" />
<glyph unicode="&#x44c;" horiz-adv-x="1044" d="M-8 0l180 1024h379l-47 -266h162q168 0 265 -113t66 -287q-66 -358 -465 -358h-540zM424 307h115q82 0 94 72t-68 72h-114z" />
<glyph unicode="&#x44d;" horiz-adv-x="1083" d="M-12 240l311 163q39 -111 172 -110q109 0 180 76h-266l49 286h266q-43 76 -151 76q-135 0 -209 -117l-270 172q84 123 216.5 195t286.5 72q252 0 381 -163t88 -398q-43 -238 -204.5 -379.5t-413.5 -141.5q-145 0 -264 75t-172 194z" />
<glyph unicode="&#x44e;" horiz-adv-x="1634" d="M-8 0l180 1024h379l-59 -332h79q72 160 213 260.5t338 100.5q176 0 294 -83t160 -207t19 -267q-35 -215 -201.5 -370t-420.5 -155q-193 0 -307.5 100.5t-143.5 260.5h-92l-59 -332h-379zM874.5 512q-14.5 -80 25.5 -130t116 -50t132 50t70.5 130t-24.5 130t-114.5 50 t-133 -50t-72 -130z" />
<glyph unicode="&#x44f;" horiz-adv-x="1107" d="M-80 0l307 360q-143 111 -118 304q18 145 143 252.5t323 107.5h541l-180 -1024h-379l51 287h-26l-232 -287h-430zM477 645q-4 -29 12.5 -50.5t53.5 -21.5h114l27 144h-115q-39 0 -63.5 -21.5t-28.5 -50.5z" />
<glyph unicode="&#x451;" horiz-adv-x="1132" d="M41 532q37 225 207 373t399 148q238 0 366 -158t89 -379q-10 -66 -39 -133h-668q33 -102 183 -102q117 0 188 65l219 -221q-178 -154 -442 -154q-276 0 -409.5 162t-92.5 399zM336 1280q12 72 72.5 123t132 51t113.5 -51t30 -123t-72.5 -123t-132 -51t-113.5 51t-30 123z M432 627h338q-8 123 -137 123q-138 0 -201 -123zM745.5 1280q12.5 72 73 123t132 51t113.5 -51t29.5 -123t-72.5 -123t-132 -51t-114 51t-29.5 123z" />
<glyph unicode="&#x452;" horiz-adv-x="1208" d="M23 0l190 1087h-111l43 244h111l18 103h379l-18 -103h268l-43 -244h-268l-37 -213q117 127 291 127q164 0 249 -119.5t46 -340.5l-94 -541q-45 -256 -181.5 -356.5t-408.5 -85.5l59 340q131 -12 152 102l86 500q25 137 -103 137q-123 0 -162 -133l-88 -504h-378z" />
<glyph unicode="&#x453;" horiz-adv-x="839" d="M-8 0l117 664l63 360h758l-64 -360h-379l-116 -664h-379zM326 1126l206 308h441l-281 -308h-366z" />
<glyph unicode="&#x454;" horiz-adv-x="1083" d="M41 532.5q41 233.5 210 377t408 143.5q145 0 264 -75t173 -194l-312 -163q-39 111 -172 110q-109 0 -180 -76h266l-49 -286h-266q43 -76 152 -76q135 0 208 117l271 -172q-84 -123 -217 -195t-287 -72q-246 0 -378 164t-91 397.5z" />
<glyph unicode="&#x455;" horiz-adv-x="980" d="M-31 223l322 154q45 -117 160 -117q74 0 81 43q6 29 -43 49.5t-120.5 42t-140 55t-108.5 108.5t-22 183q18 106 93 180t166.5 103t193.5 29q147 0 258 -59.5t162 -178.5l-303 -141q-37 94 -121 100q-61 4 -72 -45q-6 -31 28 -51.5t89 -31.5t118.5 -35.5t115 -58.5 t77 -105.5t6.5 -172.5q-29 -160 -161 -231.5t-308 -71.5q-180 0 -296.5 57.5t-174.5 194.5z" />
<glyph unicode="&#x456;" horiz-adv-x="542" d="M-8 0l180 1024h379l-180 -1024h-379zM203 1311q12 82 81.5 145.5t161.5 63.5q88 0 139.5 -62.5t37.5 -146.5q-14 -86 -84 -147.5t-158 -61.5t-140.5 62.5t-37.5 146.5z" />
<glyph unicode="&#x457;" horiz-adv-x="542" d="M-8 0l180 1024h379l-180 -1024h-379zM20.5 1259.5q12.5 71.5 73 123t132 51.5t113.5 -51.5t29.5 -123t-72.5 -123t-132 -51.5t-114 51.5t-29.5 123zM430 1259.5q12 71.5 72.5 123t132.5 51.5t114 -51.5t29.5 -123t-73 -123t-132 -51.5t-113.5 51.5t-30 123z" />
<glyph unicode="&#x458;" horiz-adv-x="573" d="M-188 -442l59 340q132 -13 152 102l180 1024h379l-181 -1024q-43 -254 -184 -355.5t-405 -86.5zM233 1311q12 82 82 145.5t162 63.5q88 0 139.5 -62.5t36.5 -146.5q-14 -86 -83.5 -147.5t-157.5 -61.5t-140.5 62.5t-38.5 146.5z" />
<glyph unicode="&#x459;" horiz-adv-x="1642" d="M-70 0l62 348q74 -16 116 21t60 137l90 518h932l-51 -287h141q147 0 245.5 -110.5t67.5 -278.5q-31 -172 -148.5 -260t-293.5 -88h-520l117 664h-175l-43 -240q-45 -262 -184 -360.5t-416 -63.5zM1063 307h94q25 0 46.5 17.5t25.5 44t-10.5 44t-38.5 17.5h-95z" />
<glyph unicode="&#x45a;" horiz-adv-x="1607" d="M-8 0l180 1024h379l-51 -287h225l51 287h379l-51 -287h141q147 0 245.5 -110.5t68.5 -278.5q-31 -172 -149 -260t-294 -88h-520l70 397h-226l-69 -397h-379zM1028 307h94q25 0 46.5 17.5t25.5 44t-10.5 44t-38.5 17.5h-94z" />
<glyph unicode="&#x45b;" horiz-adv-x="1208" d="M23 0l190 1087h-111l43 244h111l18 103h379l-18 -103h268l-43 -244h-268l-37 -213q117 127 291 127q164 0 249 -119.5t46 -340.5l-94 -541h-379l86 500q25 137 -103 137q-123 0 -162 -133l-88 -504h-378z" />
<glyph unicode="&#x45c;" horiz-adv-x="1126" d="M-8 0l180 1024h379l-72 -401l297 401h420l-401 -512l241 -512h-420l-174 410l-71 -410h-379zM449 1126l206 308h441l-281 -308h-366z" />
<glyph unicode="&#x45e;" d="M0 -410l63 359q106 0 162 19.5t92 72.5l-227 983h414l86 -545l221 545h446l-514 -993q-254 -494 -743 -441zM315 1124l54 308h716l-53 -308h-717z" />
<glyph unicode="&#x45f;" d="M-8 0l180 1024h379l-117 -664h246l117 664h379l-181 -1024h-323l-47 -274h-359l47 274h-321z" />
<glyph unicode="&#x490;" horiz-adv-x="983" d="M12 0l252 1434h473l43 245h410l-115 -643h-471l-182 -1036h-410z" />
<glyph unicode="&#x491;" horiz-adv-x="839" d="M-8 0l117 664l63 360h399l37 213h359l-101 -573h-379l-116 -664h-379z" />
<glyph unicode="&#x2000;" horiz-adv-x="921" />
<glyph unicode="&#x2001;" horiz-adv-x="1843" />
<glyph unicode="&#x2002;" horiz-adv-x="921" />
<glyph unicode="&#x2003;" horiz-adv-x="1843" />
<glyph unicode="&#x2004;" horiz-adv-x="614" />
<glyph unicode="&#x2005;" horiz-adv-x="460" />
<glyph unicode="&#x2006;" horiz-adv-x="307" />
<glyph unicode="&#x2007;" horiz-adv-x="307" />
<glyph unicode="&#x2008;" horiz-adv-x="230" />
<glyph unicode="&#x2009;" horiz-adv-x="368" />
<glyph unicode="&#x200a;" horiz-adv-x="102" />
<glyph unicode="&#x2010;" horiz-adv-x="1024" d="M90 444l64 357h819l-64 -357h-819z" />
<glyph unicode="&#x2011;" horiz-adv-x="1024" d="M90 444l64 357h819l-64 -357h-819z" />
<glyph unicode="&#x2012;" horiz-adv-x="1024" d="M90 444l64 357h819l-64 -357h-819z" />
<glyph unicode="&#x2013;" horiz-adv-x="1247" d="M90 444l64 357h1042l-63 -357h-1043z" />
<glyph unicode="&#x2014;" horiz-adv-x="1452" d="M90 444l64 357h1247l-64 -357h-1247z" />
<glyph unicode="&#x2018;" horiz-adv-x="645" d="M113 748l305 686h307l-182 -686h-430z" />
<glyph unicode="&#x2019;" horiz-adv-x="645" d="M123 748l182 686h430l-305 -686h-307z" />
<glyph unicode="&#x201a;" horiz-adv-x="645" d="M-59 -287l182 686h430l-305 -686h-307z" />
<glyph unicode="&#x201c;" horiz-adv-x="1157" d="M113 748l305 686h307l-182 -686h-430zM625 748l305 686h307l-182 -686h-430z" />
<glyph unicode="&#x201d;" horiz-adv-x="1157" d="M123 748l182 686h430l-305 -686h-307zM635 748l182 686h430l-305 -686h-307z" />
<glyph unicode="&#x201e;" horiz-adv-x="1157" d="M-59 -287l182 686h430l-305 -686h-307zM453 -287l182 686h430l-305 -686h-307z" />
<glyph unicode="&#x2020;" horiz-adv-x="942" d="M121 852l63 356h222l38 226h379l-39 -226h220l-64 -356h-219l-150 -852h-378l149 852h-221z" />
<glyph unicode="&#x2021;" horiz-adv-x="942" d="M10 225l64 357h221l47 270h-221l63 356h222l38 226h379l-39 -226h220l-64 -356h-219l-47 -270h219l-64 -357h-219l-39 -225h-378l38 225h-221z" />
<glyph unicode="&#x2022;" horiz-adv-x="860" d="M100 727q27 152 151 255t277 103q152 0 242 -111.5t64 -262.5q-27 -154 -150.5 -258.5t-275.5 -104.5q-154 0 -245 112.5t-63 266.5z" />
<glyph unicode="&#x2026;" horiz-adv-x="1679" d="M18.5 209q16.5 98 96.5 164.5t180 66.5q98 0 153.5 -70.5t38.5 -168.5q-16 -100 -92 -166t-182 -66q-98 0 -154.5 71t-40 169zM551 209q16 98 96 164.5t180 66.5q98 0 153.5 -70.5t39.5 -168.5q-16 -100 -92.5 -166t-182.5 -66q-98 0 -154 71t-40 169zM1083.5 209 q16.5 98 96.5 164.5t180 66.5q98 0 153.5 -70.5t38.5 -168.5q-16 -100 -92 -166t-182 -66q-98 0 -154.5 71t-40 169z" />
<glyph unicode="&#x202f;" horiz-adv-x="368" />
<glyph unicode="&#x2030;" horiz-adv-x="2627" d="M164 1090q29 162 157 269t300 107q168 0 265 -118.5t68.5 -282.5t-155.5 -270.5t-299 -106.5q-170 0 -267.5 119t-68.5 283zM276 225l1137 1022l127 -84l-1137 -1022zM461 1077q-8 -41 15.5 -71.5t64.5 -30.5q43 0 76.5 30.5t41.5 71.5q8 43 -15 73t-66 30t-76 -30 t-41 -73zM897 369q29 162 157 269t300 107q168 0 265 -119.5t69 -281.5q-29 -164 -156 -270.5t-299 -106.5q-170 0 -267.5 119t-68.5 283zM1194 356q-8 -41 15.5 -71.5t64.5 -30.5q43 0 76.5 30.5t42 71.5t-15 72t-66.5 31t-76 -30t-41 -73zM1747 369q29 162 157 269 t300 107q168 0 265 -119.5t68 -281.5q-29 -164 -155.5 -270.5t-298.5 -106.5q-170 0 -267.5 119t-68.5 283zM2044 356q-8 -41 15.5 -71.5t64.5 -30.5q43 0 76.5 30.5t42 71.5t-15 72t-66.5 31t-76 -30t-41 -73z" />
<glyph unicode="&#x2039;" horiz-adv-x="751" d="M123 633l299 409h321l-309 -421l160 -398h-307z" />
<glyph unicode="&#x203a;" horiz-adv-x="753" d="M51 223l309 422l-159 397h307l164 -409l-299 -410h-322z" />
<glyph unicode="&#x2044;" horiz-adv-x="368" d="M-459 0l1082 1434h276l-1081 -1434h-277z" />
<glyph unicode="&#x205f;" horiz-adv-x="460" />
<glyph unicode="&#x20ac;" horiz-adv-x="1316" d="M18 504l31 172h125q2 27 10 69q0 6 2 9h-123l31 172h135q86 258 262.5 399t423.5 141q346 0 482 -321l-365 -191q-59 115 -166 115q-131 0 -211 -143h289l-31 -172h-319l-6 -37q-4 -29 -6 -41h317l-31 -172h-284q26 -139 157 -139q113 0 203 139l316 -199 q-190 -338 -568 -338q-233 0 -371.5 146.5t-152.5 390.5h-150z" />
<glyph unicode="&#x2122;" horiz-adv-x="997" d="M197 1276l28 158h355l-29 -158h-92l-45 -252h-164l45 252h-98zM543 1024l71 410h158l53 -131l99 131h174l-72 -410h-158l31 178l-96 -119h-17l-55 117l-31 -176h-157z" />
<glyph unicode="&#x25fc;" horiz-adv-x="1024" d="M0 0v1024h1024v-1024h-1024z" />
</font>
</defs>
</svg>
